<svg width="328" height="320" version="1.1" viewBox="0 0 328 320" xmlns="http://www.w3.org/2000/svg">
 <g transform="translate(.12594 -1.5152)" stroke-width="1.3333">
  <path d="m154 304.59c-12.627-3.5931-25.367-6.0373-38.667-7.4184-18.113-1.8809-18.676-2.0292-23.642-6.225-2.3968-2.025-6.0679-4.5499-8.1581-5.6109-11.624-5.9003-41.13-41.43-49.566-59.684-7.7267-16.72-15.001-40.129-15.977-51.419-1.0097-11.671 1.3042-31.831 4.1915-36.519 1.0003-1.6242 1.8188-4.7656 1.8188-6.9809 0-7.9512 5.8641-29.44 10.03-36.754 3.9202-6.8826 21.418-25.625 26.261-28.13 2.0477-1.0589 5.1519-4.1885 6.898-6.9546 6.5144-10.319 15.846-18.583 28.144-24.924 12.769-6.584 21.165-9.9192 25.05-9.9509 1.311-0.01067 7.911-2.1805 14.667-4.8218l12.283-4.8024 16.368 0.72224c12.084 0.53318 17.494 1.3391 20.667 3.0787 3.3867 1.8568 7.6912 2.3844 20.298 2.4883 14.849 0.12229 16.767 0.4454 26.667 4.4906 12.246 5.004 16.061 8.197 23.784 19.904 4.664 7.0703 6.894 9.0749 13.974 12.561 10.068 4.9576 17.137 12.636 23.661 25.701 3.947 7.9036 4.7403 11.022 5.1543 20.26 0.42762 9.5422 0.99437 11.643 4.495 16.659 8.8313 12.655 10.918 45.094 3.8584 59.988-2.131 4.4962-3.5932 9.8635-3.5932 13.19 0 5.8772-3.7959 20.112-7.9016 29.632-1.4416 3.3426-7.0229 10.108-13.855 16.795-6.2927 6.1586-13.655 14.859-16.361 19.333-6.491 10.735-18.331 22.886-26.267 26.957-4.3921 2.2532-10.009 3.6267-18 4.4015-7.9232 0.76824-13.947 2.2321-18.949 4.6052-4.0333 1.9134-8.2498 3.4848-9.37 3.492-1.1202 7e-3 -3.2282 0.84763-4.6846 1.8677-3.855 2.7001-16.34 6.1596-21.854 6.0553-2.6169-0.0495-7.758-0.94365-11.425-1.987z" fill="#ab9b92"/>
  <path d="m154.67 303.22c-16.601-4.5991-38.902-8.488-48.898-8.5268-5.6942-0.0221-7.9045-0.78523-12.667-4.3732-3.1728-2.3905-7.5688-5.4931-9.7688-6.8947-3.7721-2.403-20.719-19.333-28.121-28.092-18.434-21.815-33.876-57.249-35.734-82-0.88497-11.787 1.3167-30.05 4.2893-35.579 0.86116-1.6018 1.5657-4.9622 1.5657-7.4677s0.52525-6.2949 1.1672-8.421 1.9128-7.1656 2.8241-11.199c0.91129-4.0333 3.0835-10.228 4.8271-13.765 3.9205-7.9536 18.63-24.519 25.701-28.944 2.893-1.8103 6.1747-4.7914 7.2927-6.6247 3.7577-6.1619 14.241-17.18 20.122-21.149 9.6591-6.5189 29.106-14.851 34.662-14.851 1.3237 0 7.5811-2.0583 13.905-4.574l11.499-4.574 17.489 1.0937c13.39 0.83735 18.367 1.6685 21.232 3.5459 3.1104 2.038 6.575 2.4669 20.511 2.5392 15.116 0.0784 17.615 0.44283 25.367 3.6997 10.39 4.3654 14.589 8.1238 22.37 20.025 3.2682 4.9988 6.9372 9.3908 8.1535 9.76 7.0562 2.1424 16.108 8.2823 20.445 13.867 9.3606 12.056 12.168 19.268 13.078 33.601 0.74813 11.78 1.1643 13.338 4.4911 16.81 2.8762 3.0021 4.2548 6.6701 6.3958 17.017 3.4585 16.714 2.6677 31.085-2.2493 40.875-2.1408 4.2622-3.282 8.7878-3.282 13.015 0 6.5166-6.535 28.635-10.123 34.261-1.0387 1.6288-6.6562 7.5434-12.483 13.144-5.8521 5.624-13.039 14.227-16.055 19.218-5.8444 9.6729-19.259 23.51-26.345 27.174-2.3801 1.2308-9.8966 2.7647-16.703 3.4087-8.4168 0.79631-14.708 2.2422-19.667 4.5201-24.513 11.261-32.655 12.961-45.291 9.4608zm143.98-167.82c2.2196-6.7254-0.0823-14.146-6.812-21.961-3.2078-3.7248-6.2483-6.7727-6.7567-6.7731-0.50841-3.6e-4 -1.8078 1.2606-2.8876 2.8022-1.6677 2.381-2.7829 2.6644-7.4089 1.8828-5.132-0.86705-5.4458-0.73315-5.4458 2.3238 0 1.7841 1.2 4.3299 2.6667 5.6572 1.4763 1.336 2.6667 4.1066 2.6667 6.2066 0 4.1103 2.4145 6.9704 9.3932 11.127 2.4626 1.4667 5.6831 3.3851 7.1567 4.2632 3.3603 2.0023 5.4574 0.44133 7.4278-5.5289zm-11.954-40.138c1.9393-5.8761 0.95029-10.034-4.1504-17.447-4.6261-6.7238-8.7524-9.4692-10.942-7.2798-1.3233 1.3233-0.38166 6.8249 3.9577 23.123 0.89192 3.35 4.2424 6.3412 7.103 6.3412 1.6454 0 2.9892-1.5791 4.0315-4.7375zm-40.698-42.263c0.39028-1.65 0.20855-4.8-0.40386-7-0.84414-3.0325-1.8921-4-4.3326-4-4.0415 0-4.6932 2.9074-2.0629 9.2025 2.2571 5.402 5.7297 6.3201 6.7994 1.7975zm-28.984-24c-0.59367-1.8084-8.0531-2.9852-11.22-1.77-3.6816 1.4128-0.30445 3.4367 5.7346 3.4367 4.2289 0 5.8688-0.4983 5.4853-1.6667z" fill="#998578"/>
  <path d="m154 302.71c-11.284-3.3107-30.672-6.8735-41.333-7.5952-12.553-0.84982-16.985-2.3073-21.21-6.9761-1.3953-1.5418-3.2594-2.8032-4.1425-2.8032-4.4857 0-23.402-19.285-38.582-39.333-7.6218-10.066-17.882-30.181-21.424-42-1.2087-4.0333-3.1889-9.6952-4.4005-12.582-1.7341-4.1316-2.1969-9.6644-2.175-26 0.02495-18.616 0.33175-21.396 2.9812-27.012 1.6244-3.4431 2.9534-8.1735 2.9534-10.512 0-2.3385 0.63925-6.7214 1.4206-9.7398 4.2052-16.246 5.8597-20.745 9.8629-26.821 5.2517-7.9714 18.478-21.464 23.676-24.151 2.047-1.0585 5.136-4.1575 6.8645-6.8866 7.0896-11.194 14.922-18.175 27.668-24.659 6.8796-3.5 17.008-7.4909 22.508-8.8686 5.5-1.3777 13.6-4.0498 18-5.938 8.2431-3.5374 19.299-4.5254 28.833-2.5766 4.2719 0.87317 4.331 0.9607 1.1667 1.7268-4.8466 1.1733-4.3484 4.7611 0.61068 4.3978 2.1692-0.15895 4.8692 0.52985 6 1.5307 1.1308 1.0008 4.8029 3.0985 8.1602 4.6614 5.463 2.5433 8.0539 2.8027 24.667 2.4693 15.446-0.30991 18.562-0.70828 18.562-2.3725 0-1.1-2.1-3.0928-4.6667-4.4284l-4.6667-2.4284 4.6667 0.87874c9.3284 1.7565 20.332 6.5154 24.357 10.534 2.2648 2.2611 6.6954 8.0921 9.8457 12.958 4.066 6.2801 6.7995 9.1158 9.4216 9.7739 2.0316 0.50988 4.5344 1.6288 5.562 2.4865 1.0275 0.85771 3.2271 2.1595 4.8878 2.8928 3.7788 1.6686 12.211 12.431 17.027 21.732 2.6963 5.2072 3.8732 9.8525 4.4758 17.667 0.94148 12.209-0.3223 13.449-5.5915 5.4868-3.1614-4.7772-3.287-5.5722-1.9008-12.035 1.7404-8.1151 0.75309-11.879-5.4995-20.967-2.5638-3.7263-6.1175-6.9371-9.0204-8.15-4.5565-1.9038-4.9063-1.8577-7.1777 0.94742-3.0881 3.8137-3.0161 7.5188 0.27888 14.339 2.4353 5.0405 3.7093 14.982 1.92 14.982-0.41067 0-3.497-2.1-6.8584-4.6667-5.4114-4.1319-11.062-6.1094-11.062-3.8713 0 0.43747 2.3702 3.488 5.267 6.7791s5.9615 8.1831 6.8104 10.871c0.84885 2.6882 3.1902 7.8876 5.203 11.554s4.3752 8.7667 5.2499 11.333c1.1945 3.5052 3.5827 5.911 9.5961 9.6667 13.106 8.1852 16.177 6.6886 18.465-9 0.53479-3.6667 1.2796-5.7667 1.6551-4.6667 0.37552 1.1 1.4309 4.1 2.3454 6.6667s1.9818 12.227 2.372 21.468c0.68322 16.183 0.58037 17.058-2.7938 23.776-2.0048 3.9914-3.5032 9.2161-3.5032 12.215 0 6.435-3.8742 20.628-8.41 30.81-2.4183 5.4285-6.753 10.973-15.155 19.384-6.4725 6.4797-13.754 15.142-16.18 19.25-5.3746 9.0982-17.999 22.602-23.985 25.654-2.4183 1.2333-9.4275 2.8139-15.576 3.5126-10.61 1.2056-23.817 5.4562-37.981 12.225-6.5707 3.1398-23.055 4.4631-30.046 2.412zm99.01-44.041c1.9154 0 5.6609-5.2866 5.642-7.9634-9e-3 -1.2398-2.1347 0.18055-5.4336 3.63-2.9806 3.1167-5.9741 5.6667-6.6523 5.6667s-1.2331 1.0046-1.2331 2.2324c0 1.8956 0.46554 1.7951 3.0859-0.66666 1.6973-1.5945 3.7632-2.8991 4.5911-2.8991zm13.33-17.667c2.6295-3.2868 3.3035-7.6667 1.1797-7.6667-2.4018 0-7.7827 6.4962-6.7564 8.1567 1.0535 1.7046 4.0302 1.443 5.5767-0.49005zm20.326-19.284c0-1.7054-0.92059-1.3332-4 1.617-2.2 2.1077-4 4.0354-4 4.2837s1.8-0.47936 4-1.617 4-3.0653 4-4.2837zm-34.667-149.69c0-2.783 1.0158-4.6348 3.3989-6.1963l3.399-2.2271-4.4988-3.7082c-3.4664-2.8573-4.8822-5.4216-6.1696-11.174-1.7409-7.7792-5.679-12.068-10.254-11.168-7.8436 1.5427-5.2456 11.052 9.6835 35.444 2.5466 4.1608 4.4414 3.7473 4.4414-0.96926zm20.371 31.636c-2.3837-3.0821-3.2024-5.0003-2.1162-4.9581 1.5332 0.05956 6.1291 6.6248 4.6375 6.6248-0.67777 0-1.8124-0.75-2.5213-1.6667zm-88.989-80.096c-4.3481-2.0113-6.0481-3.4138-4.9561-4.0887 0.95204-0.58839 3.7794 0.2225 6.6182 1.8981 4.3442 2.5641 6.1365 2.8185 14.516 2.0599 10.009-0.90606 14.743 0.94297 6.0806 2.3749-9.0897 1.5026-15.571 0.84907-22.258-2.2442z" fill="#8b7568"/>
  <path d="m150.67 301.43c-18.8-4.8148-28.669-6.6672-40.267-7.5576-7.0986-0.54503-12.872-1.7271-14.877-3.046-14.037-9.2335-22.562-15.698-23.804-18.05-0.80524-1.5248-3.9215-5.2048-6.9251-8.1779-14.153-14.009-28.709-36.984-35.436-55.928-8.2676-23.284-8.5376-24.656-8.5306-43.333 0.0053-14.131 0.51804-19.29 2.3856-24 1.3084-3.3 2.8862-9.3 3.5063-13.333 0.62012-4.0333 1.4988-8.8333 1.9527-10.667 0.45385-1.8333 1.4825-6.0333 2.286-9.3333 0.80344-3.3 2.5723-8.2375 3.9308-10.972 3.355-6.7538 18.691-24.139 24.414-27.676 2.557-1.5803 7.4543-6.581 10.883-11.113s8.0895-9.8785 10.357-11.882c5.2831-4.6673 15.721-11.635 17.476-11.666 0.74419-0.01334 3.592-1.2243 6.3285-2.6909 2.7365-1.4667 6.285-2.6667 7.8856-2.6667 3.5879 0 10.298-2.1246 19.224-6.0867 11.904-5.2838 16.78-6.3008 23.275-4.8539 3.2633 0.72695 4.6567 1.386 3.0965 1.4645-3.4069 0.17149-6.7733 3.768-5.0401 5.3845 0.66559 0.62081 5.4102 2.4587 10.543 4.0842 5.1333 1.6255 12.231 4.1291 15.771 5.5636 5.4896 2.2238 8.4363 2.4937 20 1.8313 15.847-0.90766 27.502 0.4119 28.964 3.2792 0.56091 1.1 2.9931 6.8 5.4049 12.667 2.4118 5.8667 5.1405 11.871 6.0638 13.343 0.92327 1.4722 1.6656 3.8722 1.6498 5.3333-0.0676 6.209 3.481 16.482 7.9794 23.101 10.627 15.636 21.429 32.975 21.463 34.453 0.0628 2.6848 6.0741 8.8924 13.692 14.139 6.3273 4.3578 7.788 4.8552 10.845 3.693 3.5496-1.3496 5.3009-4.2213 6.7799-11.118 1.2281-5.7264 2.981-3.1926 4.7885 6.9215 2.2991 12.865 1.1105 25.985-3.2091 35.42-2.0431 4.4626-3.5262 10.075-3.5262 13.342 0 5.5251-0.82041 8.9534-4.875 20.371-1.5959 4.4942-2.6623 5.6667-5.1542 5.6667-1.7531 0-5.8836 2.3729-9.3443 5.3681-3.4113 2.9524-8.4852 6.5327-11.275 7.9561-6.9219 3.5313-9.0422 5.91-10.676 11.977-0.88223 3.2763-4.0814 7.9769-8.7019 12.786-7.5662 7.8746-8.6713 9.9132-5.3736 9.9132 4.3214 0 14.414-8.4468 16.955-14.189 1.4051-3.1765 3.7302-6.4046 5.1669-7.1734 1.4366-0.76888 2.6121-2.4838 2.6121-3.8111 0-1.3272 1.05-3.3373 2.3333-4.4668 2.9201-2.5702 13.927-7.8765 14.712-7.0921 0.32031 0.3203-4.4338 5.6098-10.565 11.755-6.1309 6.1447-13.215 14.645-15.743 18.89-5.7834 9.7112-15.044 20.073-21.687 24.267-3.8965 2.4598-8.0798 3.5095-17.559 4.4064-9.0297 0.8543-14.313 2.1245-19.256 4.6293-3.7466 1.8986-7.6766 3.4519-8.7333 3.4519s-4.8295 1.5088-8.384 3.353c-8.9785 4.6582-20.845 5.3863-33.783 2.0728zm48.873-20.817c0.43426-1.1316 0.42992-2.4171-9e-3 -2.8567-0.94963-0.94964-4.8636 2.0634-4.8636 3.7441 0 2.0121 4.0431 1.2759 4.8732-0.88743zm87.872-106.45c2.1268-8.4737-2.7919-16.335-6.8235-10.906-2.5149 3.3868-2.4264 4.568 0.73015 9.7452 3.1345 5.141 5.005 5.4974 6.0933 1.1611zm3.9621-66.339c-1.8788-3.8138-2.1872-6.4425-1.4489-12.351 0.51582-4.1285 1.4533-7.1878 2.0833-6.7985 2.0297 1.2544 3.9652 14.452 2.8345 19.328l-1.082 4.6667zm-38.518-53.488c-1.0297-1.65-2.2589-4.8-2.7317-7l-0.85954-4 2.5583 3.2453c1.4071 1.7849 3.5564 4.9349 4.7763 7 1.9486 3.2986 1.9696 3.7547 0.17334 3.7547-1.1246 0-2.8871-1.35-3.9168-3zm-18.189-21.237c-4.0411-1.9164-5.2674-3.0214-3.7562-3.3846 2.3803-0.57199 9.6891 2.6893 11.084 4.9457 1.2388 2.0044-0.6636 1.5991-7.3275-1.5611z" fill="#776457"/>
  <path d="m155.33 301.84c-6.3449-1.8812-18.768-4.5383-33.333-7.1294-3.6667-0.6523-10.28-1.2298-14.696-1.2833-6.778-0.0821-8.7523-0.69055-12.667-3.9032-2.5504-2.0932-6.6578-4.8452-9.1276-6.1155-11.541-5.936-37.795-37.883-48.452-58.959-6.6464-13.144-13.858-34.998-15.768-47.787-1.7521-11.728-0.12166-29.381 3.4832-37.712 1.0421-2.4082 1.8946-6.0687 1.8946-8.1344 0-2.0657 0.53527-5.4953 1.1895-7.6214 0.65422-2.1261 1.9559-7.4656 2.8927-11.866s3.0652-10.758 4.7299-14.13c4.167-8.4393 17.152-23.142 24.739-28.01 3.4588-2.2195 7.4298-5.9461 8.8244-8.2812 3.9503-6.6146 14.64-17.876 19.356-20.392 14.248-7.6013 20.709-10.213 24.913-10.07 2.9691 0.10129 9.2512-1.9952 17.418-5.8127 7.0255-3.2841 14.479-5.9711 16.563-5.9711 3.5861 0 3.6708 0.13047 1.5822 2.4383-1.2137 1.3411-2.2066 3.7717-2.2066 5.4014 0 3.5443 6.8046 6.8623 16 7.8017 3.3 0.33713 10.443 2.1048 15.873 3.9281 8.7516 2.9386 11.25 3.2179 22 2.4596 10.464-0.73817 12.767-0.50557 16.794 1.6957 7.2144 3.9439 12.662 12.557 12.687 20.057 0.0107 3.4202 0.59272 7.1185 1.2922 8.2185s1.0885 3.4173 0.86458 5.1495c-0.57236 4.4269 2.6352 20.325 4.7375 23.481 0.96359 1.4465 1.752 3.9965 1.752 5.6667 0 3.1645 1.44 3.6973 8.4704 3.1341 3.8553-0.30885 10.196 4.1674 10.196 7.1977 0 0.82335 2.4 3.8405 5.3333 6.7048 2.9333 2.8643 5.3487 5.8361 5.3675 6.6039 0.12514 5.119 17.139 24.729 21.455 24.729 2.845 0 10.002-5.7064 12.641-10.078l2.9255-4.8474 0.96428 5.7075c2.0234 11.976 1.0162 23.245-2.7399 30.658-2.2936 4.5262-3.8536 10.298-4.4421 16.435-0.71907 7.4988-1.765 10.702-5.0474 15.459-5.8035 8.4101-17.173 18.794-25.568 23.351-6.3514 3.4478-7.5994 4.8889-11.679 13.485-3.0764 6.4829-6.3046 11.001-9.8887 13.84-4.0259 3.1886-5.3212 5.1608-5.3212 8.1024 0 2.5671 0.67948 3.888 2 3.888 3.179 0 2.4812 7.1097-1 10.188-6.5245 5.7696-10.492 7.2289-22.829 8.3961-8.0581 0.76237-14.418 2.168-17.941 3.9651-3.0015 1.5312-6.2542 2.7841-7.2284 2.7841s-4.1481 1.2169-7.0531 2.7042c-6.7461 3.4538-17.446 6.655-21.857 6.5391-1.8836-0.0495-6.4247-0.97946-10.091-2.0666zm44.247-16.742c3.5468-3.332 4.2886-10.434 1.0898-10.434-2.1377 0-12.671 8.9189-12.671 10.729 0 0.93473 2.2944 1.7017 7.2474 2.4227 0.68607 0.0999 2.6361-1.123 4.3333-2.7175zm-147.58-45.563c0-2.1768-4.6014-8.8715-6.0977-8.8715-2.6158 0-2.3878 3.4683 0.43099 6.5556 2.0128 2.2045 5.6667 3.6978 5.6667 2.316zm209.33-34.205c0-0.73333-0.6-1.3333-1.3333-1.3333s-1.3333 0.6-1.3333 1.3333c0 0.73334 0.6 1.3333 1.3333 1.3333s1.3333-0.6 1.3333-1.3333zm-82.103-11c-2.1016-6.6395-5.8731-14.333-7.0263-14.333-2.0605 0-8.708-15.003-9.1567-20.667-0.6917-8.73-1.592-11.192-4.8804-13.347-4.8888-3.2032-7.5-1.3258-7.5 5.3923 0 4.9889 0.64088 6.2886 4.7857 9.7051 2.6322 2.1696 4.1848 4.3162 3.4504 4.7701-1.7829 1.1019-0.52167 4.8743 5.5847 16.704 5.3525 10.369 9.2143 14.657 13.269 14.731 1.9109 0.0349 2.2224-0.58988 1.4736-2.9556zm-143.9-6.2063c0-2.8791-4.2678-5.0592-6.1735-3.1536-1.218 1.218-1.1781 2.0646 0.17402 3.6939 2.0532 2.4739 5.9994 2.1186 5.9994-0.5403zm123.33-3.489c0-2.9882-6.2737-5.571-8.3695-3.4455-1.2878 1.306-1.0864 2.0551 0.95768 3.5638 3.3943 2.5052 7.4118 2.4411 7.4118-0.1184zm131.63-12.242c0.33594-13.703-0.91504-16.396-7.6174-16.396-2.7984 0-4.8183 1.3109-7.7046 5-4.6236 5.9097-4.0349 8.4027 4.0148 17 2.7465 2.9333 4.9965 5.8251 5 6.4261 4e-3 0.601 1.3564 0.901 3.0064 0.66666 2.8371-0.40293 3.0163-1.0924 3.3008-12.697zm-47.634-31.808c0-1.9634-1.5886-2.555-3.0192-1.1243-1.2019 1.2019 0.45306 4.6316 1.8256 3.7833 0.65649-0.40574 1.1936-1.6023 1.1936-2.659zm-5.6281-28.299c-0.20452-0.96958-0.90648-1.8812-1.5599-2.0258-2.0147-0.44584-3.9571 3.9018-2.929 6.5559 0.94547 2.4407 1.0312 2.437 2.9174-0.12632 1.0688-1.4525 1.776-3.4342 1.5714-4.4038zm-101.46-41.009c0.25398-0.76299-0.38136-2.5403-1.4119-3.9497-1.5815-2.1629-2.2036-2.2886-3.99-0.80608-1.6213 1.3456-1.7899 2.3661-0.72099 4.3634 1.422 2.6571 5.2865 2.9047 6.1228 0.3923zm-22.925-21.965c-3.4972-3.6503-4.0393-3.8261-5.9161-1.9185-1.8676 1.8982-1.8175 2.2843 0.52204 4.0185 1.4235 1.0552 4.0858 1.9185 5.9161 1.9185h3.328zm178.83 56.576c-1.1549-3.0096-0.96356-8.9166 0.35625-10.998 1.1984-1.8904 2.8344 3.8476 2.8344 9.9409 0 3.5872-1.9695 4.24-3.1907 1.0576z" fill="#675347"/>
  <path d="m154.67 301.2c-2.5667-0.74288-8.8667-2.1285-14-3.0792-5.1333-0.95068-11.022-2.4168-13.087-3.2582-2.0644-0.84132-9.0257-1.5297-15.469-1.5297-10.318 0-12.257-0.39034-16.247-3.2714-2.4918-1.7993-8.5383-5.9599-13.437-9.2458-4.8984-3.2859-9.6176-7.3036-10.487-8.9283s-3.9529-5.4141-6.8521-8.4209c-8.383-8.6942-9.8378-10.524-12.197-15.338-1.2232-2.496-2.2239-4.6873-2.2239-4.8696 0-0.18227 1.794-0.95676 3.9866-1.7211 2.8-0.97608 3.7497-2.0071 3.1907-3.4638-0.43774-1.1407-1.2067-2.074-1.7088-2.074-0.50209 0-3.1393-2.1-5.8604-4.6667-5.0315-4.7458-8.8539-6.013-9.0497-3-0.05956 0.91667-0.80956 0.104-1.6667-1.8059-0.85711-1.9099-2.4178-4.5032-3.4681-5.7629-2.7749-3.3278-7.9829-16.571-8.9526-22.765-0.45924-2.9333-1.4528-6.115-2.2079-7.0703-0.75511-0.95534-2.0343-7.8231-2.8426-15.262-1.6177-14.887-0.18968-29.596 3.7499-38.625 1.1897-2.7265 2.1701-6.6264 2.1788-8.6667 0.03579-8.4189 6.6371-30.257 11.175-36.966 5.6131-8.3004 14.156-17.04 21.793-22.294 3.1719-2.1824 7.1741-6.1761 8.8938-8.875 7.1053-11.152 13.724-16.986 26.353-23.23 9.5273-4.7109 13.845-6.124 18.457-6.04 4.6808 0.08524 8.2654-1.1227 16.114-5.4301 12.596-6.913 14.903-7.1597 12.75-1.3635-1.4408 3.8799-1.2781 4.3767 2.2923 7 2.1138 1.553 7.6912 5.6737 12.394 9.157 4.7031 3.4833 9.1237 6.3333 9.8235 6.3333 0.69981 0 1.2724-1.4646 1.2724-3.2546 0-1.7901 0.46987-3.545 1.0442-3.9 0.57428-0.35493 4.9228 0.61076 9.6632 2.146 9.2722 3.0028 19.959 11.888 19.959 16.594 0 1.3543-1.5273 4.71-3.394 7.4572-3.0037 4.4203-3.1396 5.0924-1.182 5.8436 1.2166 0.46685 5.1897-0.40924 8.8291-1.9469 4.7762-2.0179 7.4802-2.4676 9.7192-1.6163 4.846 1.8425 5.2313 3.8738 1.407 7.4181-1.9411 1.799-3.1217 3.9305-2.6234 4.7366 0.49822 0.80616-0.58331 0.48999-2.4034-0.7026-2.6418-1.731-3.5745-1.8261-4.6238-0.47164-2.4488 3.1608-3.0577 6.5464-1.6503 9.1761 1.0953 2.0467 0.64869 4.2119-2.0422 9.8999-2.841 6.0054-4.576 7.8539-9.907 10.555-3.5546 1.8012-6.8378 4.2519-7.2959 5.4459-1.7417 4.5388-0.71513 10.841 2.5484 15.643 3.45 5.0771 5.1529 6.0144 6.6186 3.6428 0.45323-0.73333 3.0956-1.3333 5.872-1.3333 7.5712 0 12.434-7.1605 7.9251-11.67-1.1593-1.1593-0.66872-1.9314 2-3.1474 1.9449-0.88616 3.5362-2.4149 3.5362-3.3972 0-3.747 4.0629-1.5564 6.6998 3.6123 1.5147 2.9691 3.572 5.7122 4.5717 6.0958 0.99973 0.38363 2.5332 2.6044 3.4076 4.935 0.87449 2.3306 2.2281 5.5824 3.008 7.2261 1.0216 2.1532 0.98397 3.9412-0.13456 6.3961-2.6861 5.8953-1.8906 16.018 1.8158 23.106 3.0839 5.8979 3.3541 10.842 0.5924 10.842-0.598 0-1.7588 2.0349-2.5796 4.522-2.0898 6.3321 0.39752 15.294 6.0909 21.945 3.4992 4.088 4.528 6.4923 4.528 10.581 0 6.9808 2.2584 8.8289 7.4036 6.0586 2.1614-1.1638 6.3892-2.016 9.3952-1.8939 4.7967 0.19484 6.0443-0.41878 10.197-5.015 2.6022-2.8803 5.1804-6.6533 5.7294-8.3844 2.333-7.3569 7.0275-12.804 11.808-13.701 2.5889-0.48569 5.1626-1.6098 5.7193-2.4981 0.55671-0.88827 0.83526-7.015 0.61902-13.615s0.23764-13.658 1.0086-15.685c1.7662-4.6432 10.392-13.383 12.142-12.302 1.6603 1.0261 1.7303 15.689 0.0831 17.387-2.5462 2.6238-8.1042 21.309-8.1042 27.244 0 10.748-12.46 28.299-25.333 35.683-8.9573 5.1386-13.028 9.4236-16.736 17.617-1.8392 4.064-5.7256 9.7891-8.6364 12.722-11.824 11.916-17.294 17.964-17.294 19.122 0 0.67172-1.7924 1.9637-3.983 2.8711-2.1907 0.9074-3.6539 2.1824-3.2516 2.8333 0.82542 1.3355 5.5031 0.51304 12.928-2.2733 6.1233-2.2978 6.3085-2.3042 6.2979-0.21969-0.0164 3.2483-8.6074 6.485-22.323 8.4103-7.6423 1.0728-15.004 2.5438-16.359 3.269-1.355 0.72516-4.083 1.9342-6.0623 2.6867-2.9836 1.1344-2.5272 0.35611 2.6698-4.5529 5.3863-5.0878 6.2085-6.5468 5.8423-10.367-0.64645-6.7433-4.8621-6.6093-12.462 0.39632-5.8122 5.3575-6.1357 6.0211-5.7287 11.751 0.41776 5.8811 0.26799 6.1529-4.7365 8.5965-6.0136 2.9363-20.612 4.0036-27.499 2.0104zm-70.667-37.2c0-1.4667-1.1847-3.8514-2.6328-5.2994-1.448-1.448-3.0131-4.148-3.4779-6-0.53113-2.1162-1.7822-3.3673-3.3672-3.3673-3.8049 0-3.2087 5.0777 0.81121 6.9093 1.8333 0.83533 3.3333 2.3619 3.3333 3.3924 0 2.6546 2.5191 7.0317 4.0469 7.0317 0.70753 0 1.2864-1.2 1.2864-2.6667zm135.03-30.665c4.4686 3.515 5.2058 3.4075 10.839-1.58 5.7094-5.0547 6.3725-9.7364 1.5504-10.947-3.9733-0.99723-8.3653-6.8956-8.9718-12.049-0.61141-5.195-4.1786-7.3548-7.3728-4.4641-1.7534 1.5868-3.0493 1.8265-4.7447 0.8777-1.5216-0.85156-3.1433-0.85156-4.665 0-1.6903 0.94594-2.9838 0.7159-4.6982-0.83558-1.8842-1.7052-2.6984-1.8034-4.0008-0.48265-1.2936 1.3119-1.1311 2.0305 0.77796 3.4405 1.5225 1.1244 1.8916 2.1046 1 2.6556-2.0555 1.2704-1.6515 8.9553 0.62928 11.971 1.0767 1.4235 1.9576 3.9501 1.9576 5.6147 0 1.6646 1.2996 4.2373 2.888 5.7171 2.8817 2.6847 2.8973 2.6848 7.1552 0.0533 4.2546-2.6295 4.2773-2.6294 7.6557 0.028zm-70.004-0.25134c-0.82409-2.4723-3.6944-2.8823-3.6944-0.52777 0 1.1611 0.95 2.1111 2.1111 2.1111 1.1611 0 1.8736-0.71251 1.5833-1.5833zm39.972-29.008c1.65-1.3765 3-3.9914 3-5.8109 0-2.5965-1.1101-3.7524-5.1599-5.3728-5.2669-2.1074-6.8148-4.2095-6.8729-9.334-0.042-3.7055-4.2821-16.026-7.8601-22.84-1.5256-2.905-2.7738-5.9621-2.7738-6.7934 0-0.83129-1.258-2.6499-2.7956-4.0414-2.3532-2.1296-2.6662-3.505-1.9781-8.6919 0.60176-4.5363 0.30755-6.5851-1.1152-7.7659-1.5698-1.3028-2.3638-0.94599-4.2291 1.9008-1.9719 3.0095-2.9737 3.4016-7.0892 2.7751-2.636-0.40134-6.8006-0.28259-9.2545 0.26388-3.6474 0.81225-4.7885 1.9443-6.2526 6.2031-1.5345 4.4634-1.5056 5.7613 0.2013 9.0621 1.0958 2.1189 2.2325 7.1519 2.5262 11.184 0.29364 4.0324 1.14 9.2488 1.8808 11.592 0.7408 2.343 1.6641 5.8501 2.0518 7.7935 0.48619 2.4372 1.9793 3.9777 4.8127 4.9654 2.2593 0.78759 5.909 2.9476 8.1103 4.7999 2.2014 1.8524 4.9139 3.3679 6.0279 3.3679 2.0428 0 4.6882 1.1671 14.437 6.3692 6.5664 3.504 8.5094 3.5628 12.333 0.37268zm-153.59-12.664c3.1112-2.3103 1.6651-5.6052-3.8297-8.7252-4.8687-2.7646-6.5974-0.72747-4.8262 5.6873 1.494 5.4108 4.1875 6.3561 8.656 3.038zm71.922-86.171c0-1.0288-1.05-2.0728-2.3333-2.32-2.2983-0.44261-3.2485 2.3866-1.4167 4.2184 1.3976 1.3976 3.75 0.20673 3.75-1.8984zm33.836-27.6c0.97204-1.8163 0.0792-4.0431-3.8757-9.6667-2.8263-4.0187-7.266-10.457-9.8662-14.307-3.8857-5.7535-5.4173-7-8.6014-7-2.2135 0-4.2029-0.85723-4.6414-2-1.0568-2.7539-11.313-2.7514-12.37 0.0029-1.7043 4.4412 0.87333 8.0501 9.045 12.664 5.3466 3.0186 9.7513 6.7856 12.473 10.667 3.5818 5.1085 12.445 11.905 15.621 11.978 0.5242 0.012 1.5214-1.04 2.2161-2.338zm112.3 72.164c-6.9702-5.9662-6.9527-9.1684 0.0811-14.804 5.8468-4.6843 8.037-5.2594 10.156-2.6667 3.5976 4.4024 1.2944 19.821-3.2196 21.553-0.85362 0.32756-4.0114-1.5096-7.0173-4.0825zm-39.243-52.026c-1.8128-1.8128-0.79272-3.1111 2.4444-3.1111 3.7239 0 4.4703 1.9451 1.2243 3.1907-2.6114 1.0021-2.5865 1.0026-3.6687-0.07957z" fill="#5b4b43"/>
  <path d="m157.07 301.4c-2.7116-0.52732-5.7116-1.5761-6.6667-2.3307-0.95509-0.75459-5.7832-1.7313-10.729-2.1704-4.946-0.43913-10.185-1.4367-11.643-2.2168-1.4576-0.78008-8.5109-1.7864-15.674-2.2363-12.576-0.78984-20.357-3.0384-20.357-5.8826 0-0.75192-2.0692-2.2317-4.5982-3.2884-4.4418-1.8559-22.06-18.667-28.589-27.279l-3.1873-4.2042 2.8619-5.092c1.8587-3.3071 2.5086-5.9662 1.8539-7.586-1.7337-4.2896-20.014-20.49-22.182-19.658-2.2172 0.8508-4.3115-2.6725-8.2631-13.901-2.3645-6.7186-2.375-7.182-0.19164-8.4039 6.0004-3.358 9.2967-7.3311 8.4073-10.133-1.0059-3.1692-8.9321-8.352-12.773-8.352-1.9705 0-2.7129-1.3589-3.4602-6.3333-1.1229-7.475 1.2895-30.391 3.4767-33.027 0.83735-1.009 1.996-5.0157 2.5747-8.904 2.0033-13.46 5.6323-28.291 8.1112-33.15 3.811-7.4701 17.134-22.409 24.274-27.217 3.5144-2.3667 8.243-7.1009 10.508-10.52 10.423-15.735 29.488-27.511 44.555-27.518 5.5248-0.0027 7.9223-0.88639 14.469-5.3333 4.3156-2.9316 8.9928-5.3302 10.394-5.3302 2.1822 0 2.4234 0.65954 1.6836 4.6033-0.76876 4.0979-0.43069 4.8665 3.0795 7.0012 2.1687 1.3189 5.5835 4.3474 7.5884 6.7301 2.0049 2.3827 4.3742 4.3321 5.2652 4.3321 2.3236 0 9.2449 7.7095 12.868 14.333 1.7047 3.1167 3.481 5.6667 3.9473 5.6667s3.4647 2.24 6.6632 4.9777c3.1984 2.7377 6.4564 5.0464 7.24 5.1302 0.78356 0.08389 2.1746 0.24392 3.0913 0.35561 0.91666 0.11169 1.6667 1.1031 1.6667 2.2031 0 1.1111 1.1852 2 2.6667 2s2.6667 0.88889 2.6667 2c0 1.1-0.67347 2-1.4966 2-1.012 0-1.0694 0.53972-0.17741 1.6667 0.72554 0.91667 1.7064 4.7169 2.1798 8.4451 0.96886 7.631-0.21522 9.3829-8.5058 12.585-7.6306 2.9469-10.449 5.2774-11.352 9.3864-0.46951 2.1377-1.4075 4.229-2.0844 4.6473-2.7126 1.6765-0.89624 5.3562 5.6718 11.49 6.6711 6.2303 10.713 7.8927 12.431 5.1131 0.45323-0.73333 2.7956-1.3333 5.2054-1.3333 4.9836 0 7.7432-2.4914 10.762-9.7155 1.1378-2.7232 2.843-4.9512 3.7893-4.9512s3.6382 1.9786 5.9821 4.3968c4.929 5.0854 5.3699 9.1344 2.0726 19.032-2.895 8.6903-3.7554 9.6129-10.911 11.699-3.3499 0.97677-6.3048 2.4185-6.5666 3.2038-0.26176 0.78531 1.9561 3.3822 4.9285 5.771 2.9724 2.3887 5.4044 5.1123 5.4044 6.0524 0 0.9401 1.7727 3.3897 3.9393 5.4435 3.9333 3.7286 3.9369 3.7462 2.3333 11.604-2.1293 10.434-5.9545 13.548-14.98 12.194-4.0851-0.6126-7.3333-2.0751-9.2844-4.1804-1.6506-1.781-5.2629-4.0212-8.0274-4.9783-4.9022-1.6972-5.1054-2.0345-8.2257-13.656-3.2166-11.98-3.5653-14.511-2.8245-20.505 0.33633-2.7211-0.30777-3.4047-3.9227-4.1632-8.679-1.8212-10.216-5.4896-5.525-13.185l2.8065-4.6038-2.9801-2.4132c-4.062-3.2892-9.2822-4.4225-11.849-2.5725-5.4971 3.9616-7.8339 4.0771-18.142 0.89663l-10.219-3.153 0.79915 3.1841c0.61522 2.4512 0.01 3.7014-2.6316 5.432-3.067 2.0096-3.3363 2.8267-2.54 7.7074 0.55178 3.3818 2.1191 6.4743 4.1185 8.1261 2.4938 2.0603 4.1333 6.3048 7.2106 18.667 5.1638 20.744 5.5526 21.557 10.859 22.712 2.4303 0.52875 6.3896 2.6849 8.7985 4.7914 2.4088 2.1065 5.1658 3.83 6.1267 3.83 0.96082 0 2.8637 1.234 4.2286 2.7422 1.6303 1.8014 3.4709 2.4939 5.3652 2.0185 1.9348-0.4856 4.0604 0.36693 6.4604 2.5911 2.5354 2.3497 5.0868 3.3149 8.7628 3.3149 2.8523 0 5.5252 0.54896 5.9399 1.2199 0.41468 0.67094 1.1444 5.0209 1.6217 9.6667 0.54264 5.282 1.772 9.4459 3.2813 11.113 1.3274 1.4667 3.4831 3.9569 4.7903 5.5338 2.0709 2.4981 4.1528 2.9548 16.174 3.548l13.797 0.68081 2.2032-4.0494c3.3818-6.2154 8.2322-11.713 10.334-11.713 1.0415 0 3.7771-1.8 6.0792-4 2.3021-2.2 5.3264-4 6.7207-4 6.2752 0 16.505-8.9606 22.832-20 1.9761-3.4476 5.4403-7.0755 8.1434-8.5282 5.7706-3.1012 6.6258-5.5112 4.6875-13.209-2.3365-9.2792 0.33896-19.889 6.7482-26.76l5.0712-5.4367 0.94658 6.3122c0.61385 4.0934 0.41334 6.9547-0.57043 8.1401-3.2608 3.929-9.2323 24.588-8.5922 29.725 1.2042 9.6655-14.586 31.034-27.641 37.405-7.6328 3.7252-9.6313 5.9284-13.678 15.079-2.9871 6.7544-8.0725 12.521-27.021 30.642-2.279 2.1795-5.0143 3.9626-6.0785 3.9626-1.0642 0-3.0995 0.8886-4.523 1.9747-2.2493 1.7161-2.3263 2.1608-0.58818 3.396 2.2836 1.6229 14.748 0.65371 19.14-1.4883 2.4142-1.1774 2.3521-0.98593-0.3989 1.229-3.4032 2.74-9.4127 4.1824-17.529 4.2073-2.6334 8e-3 -7.7054 0.89268-11.271 1.9658-7.7649 2.3369-9.1949 1.6812-3.4375-1.5761 3.6387-2.0586 4.0935-2.9077 3.4144-6.375-2.1069-10.757-3.8499-11.141-13.807-3.0414-5.8266 4.7398-7.2716 6.8451-9.1795 13.375-2.2166 7.5865-2.4028 7.7909-8.8396 9.7081-7.011 2.0882-10.503 2.2201-18.355 0.69304zm-28.403-16.735c0-1.9461-1.0348-2.7849-3.8291-3.1042-4.9174-0.56194-7.2235 1.5627-4.8285 4.4485 2.5181 3.0342 8.6576 2.0809 8.6576-1.3442zm-42-17.546c0-2.9958-9.2514-20.138-11.291-20.92-1.0519-0.40364-3.1877 0.29872-4.7463 1.5608-2.2099 1.7895-2.6276 3.1163-1.8971 6.0268 0.51519 2.0527 2.092 4.44 3.5041 5.3051 1.4121 0.86516 3.7036 4.1251 5.0924 7.2443 2.3959 5.3813 2.6992 5.592 5.9312 4.1193 1.8734-0.8536 3.4063-2.355 3.4063-3.3364zm66.015-28.565c0.012-5.4176-0.79743-8.4716-3.2368-12.222-1.7886-2.75-3.7727-5-4.4091-5-0.6364 0-2.657 1.4999-4.4903 3.3332-3.3108 3.3108-3.5226 6.4095-1.059 15.5 0.58351 2.1531 9.2976 6.5069 11.847 5.9189 0.73334-0.16916 1.3402-3.5576 1.3485-7.5298zm-36.966-129.53c2.9516-6.1872 0.19558-13.073-6.684-16.699-7.0367-3.709-9.2661-3.7541-12.436-0.25158-2.0066 2.2172-2.1782 3.1781-0.89321 5 0.8749 1.2404 2.5232 4.3553 3.6628 6.922 4.2051 9.4703 12.948 12.159 16.35 5.0285zm33.705-23.742c1.4184-0.75913 2.579-2.2105 2.579-3.2253 0-3.3591-4.6278-10.044-6.959-10.053-2.6225-0.009646-12.687-14.205-17.023-24.008-0.48646-1.1-2.7824-2.9706-5.1021-4.1569s-5.0455-2.844-6.0574-3.6838c-2.4681-2.0483-14.715 0.73556-17.688 4.0207-1.9983 2.2081-1.9682 2.6934 0.39979 6.4333 1.4086 2.2248 5.3706 5.8268 8.8044 8.0044 5.6207 3.5645 6.1658 4.3466 5.4666 7.8425-0.85149 4.2574 1.4202 6.8117 3.8749 4.357 2.2353-2.2353 3.2451-1.8143 4.133 1.7232 0.58261 2.3213 3.6607 4.6996 11.145 8.611 11.233 5.8711 12.56 6.2049 16.427 4.135zm78.246 127.94c-1.2833-0.74746-2.3333-2.7938-2.3333-4.5474 0-1.7536-0.6-3.5592-1.3333-4.0124-2.5211-1.5581-1.4891-6 1.3939-6 6.277 0 11.768 10.305 7.6727 14.4-1.9105 1.9105-2.3709 1.9242-5.4 0.15986zm23-71.02c0-2.3782 4.3272-6.2066 7.0151-6.2066 2.852 0 4.5084 5.3042 2.1276 6.8127-2.8798 1.8247-9.1427 1.4095-9.1427-0.60606zm-75.264-84.717c-0.45512-2.6528-1.1455-6.4315-1.5341-8.3972-0.5356-2.7089-0.0283-3.937 2.096-5.0739 3.2196-1.7231 8.0352-0.63138 8.0352 1.8216 0 0.91338 1.8 3.3852 4 5.4929 6.4923 6.22 4.8884 9.2002-5.5514 10.316l-6.2181 0.66429z" fill="#56443a"/>
  <path d="m134.67 296.37c-4.6408-0.83255-6.0774-2.5357-4.1241-4.8893 0.89624-1.0799 1.4408-4.2553 1.2102-7.0565-0.38765-4.7079-0.72189-5.0842-4.4194-4.9761-2.2 0.0643-6.7839 0.92106-10.186 1.9039-5.4792 1.5827-6.8969 1.5157-12.402-0.58658-8.4042-3.2096-13.652-8.9977-20.54-22.655-5.8261-11.552-8.9186-14.779-12.753-13.307-1.4409 0.55291-7.2713-4.5395-19.097-16.679-9.3624-9.6113-17.626-17.472-18.363-17.467-0.73723 4e-3 -2.0017-2.105-2.8099-4.6872-1.3922-4.448-1.199-5.0022 3.6737-10.538 2.8288-3.2136 5.1432-6.4245 5.1432-7.1353 0-1.3222-9.1108-10.142-14.121-13.669-1.6723-1.1774-3.1209-4.0965-3.6209-7.296-0.95015-6.0806 1.7835-25.129 4.2704-29.755 1.5878-2.9541 2.2629-6.0266 5.6201-25.578 0.8185-4.7667 2.8703-11.399 4.5596-14.738 4.4682-8.8329 16.027-21.939 24.039-27.257 3.8266-2.54 8.1289-6.5801 9.5605-8.978 3.4893-5.8444 14.903-18.36 16.744-18.36 0.80929 0 3.6186-1.488 6.2429-3.3066 5.4947-3.8078 13.372-5.8659 13.372-3.4937 0 0.84315-1.6489 2.1599-3.6642 2.9261-4.7714 1.8141-8.3358 5.0963-8.3358 7.6758 0 1.1303 1.5722 4.3237 3.4937 7.0964 4.3849 6.3274 5.5754 15.35 2.7679 20.978l-2.0572 4.1239h3.8978c3.0089 0 3.8978 0.60813 3.8978 2.6667 0 3.0582-1.1817 3.2861-5.8978 1.1373-4.0701-1.8545-7.4356 0.28611-7.4356 4.7293 0 1.5804-0.96416 4.2499-2.1426 5.9324-1.9954 2.8488-1.9623 3.2585 0.48041 5.9633 1.4426 1.5974 5.3712 7.1044 8.7302 12.238 3.359 5.1333 7.6428 11.216 9.5196 13.516s3.4124 5.0864 3.4124 6.1907c0 2.542-2.9972 3.7455-5.4542 2.19-6.2573-3.9612-6.94 1.5269-0.95768 7.6991 3.6683 3.7847 4.241 5.3025 4.1548 11.012-0.0841 5.5717 0.40573 6.9531 3.0884 8.7109 2.746 1.7992 3.0747 2.7995 2.3694 7.2099-0.67807 4.2404-0.33744 5.458 1.9811 7.082 1.54 1.0786 4.4819 4.4655 6.5376 7.5263 2.0557 3.0608 5.0183 6.4622 6.5836 7.5586 6.8233 4.7792 8.4647 13.858 5.057 27.971-4.072 16.864-1.9678 24.68 8.3542 31.031 3.681 2.2649 7.7051 5.8096 8.9424 7.877 3.6693 6.131 11.389 11.37 15.305 10.387 7.7115-1.9355 8.6258-5.7636 2.699-11.3-2.5819-2.4118-4.9322-3.4997-6.6119-3.0604-2.1682 0.56701-2.8647-0.3453-4.1449-5.4294-0.84631-3.361-2.671-7.4163-4.0548-9.0119-1.3838-1.5956-2.516-4.5738-2.516-6.6183 0-2.0445-0.6-4.0881-1.3333-4.5414-2.0599-1.2731-1.5752-6.9552 0.66667-7.8155 1.3133-0.50396 2-2.586 2-6.064 0-2.9131 0.46549-5.5842 1.0344-5.9358 1.7806-1.1005 16.816 4.5644 20.02 7.543 1.68 1.5617 4.98 3.4619 7.3333 4.2226 3.8489 1.2441 4.3519 2.0182 5.0055 7.7042 0.55445 4.8235 1.818 7.4566 5.3333 11.114 6.4471 6.7073 10.652 8.5651 19.386 8.5651 4.168 0 9.8754 0.68826 12.683 1.5295 4.6974 1.4074 5.4816 1.2423 9.8214-2.0678 2.9104-2.2199 4.7164-4.7342 4.7164-6.5662 0-2.9808 14.218-16.895 17.264-16.895 2.2345 0 16.069-8.1084 16.069-9.418 0-0.63991 1.5127-1.956 3.3616-2.9248 1.8488-0.96871 5.0867-5.023 7.1953-9.0096 4.0953-7.7428 9.4432-12.781 9.4432-8.897 0 3.5316-2.5215 8.9566-8.3757 18.021-4.1863 6.4817-7.6696 9.997-13.624 13.749-13.248 8.3485-13.876 8.9691-18.459 18.242-2.5995 5.2599-7.4908 12.013-11.88 16.402-8.191 8.191-19.81 17.168-22.22 17.168-0.84422 0-3.0446 0.98919-4.8898 2.1982-3.6537 2.394-5.0141 1.7343-7.7391-3.7526-0.8501-1.7117-2.807-3.2943-4.3488-3.5169-3.4765-0.50184-14.712 8.916-18.463 15.476-3.7742 6.6002-10.849 8.5367-27.691 7.5796-10.935-0.62148-13.151-0.41226-13.809 1.3042-0.78208 2.0381-2.1822 2.2165-8.4992 1.0833zm-40.124-8.3588c-2.4983-2.1926-7.5423-5.9147-11.209-8.2713-3.6667-2.3566-7.5667-5.4403-8.6667-6.8528s-4.6149-5.082-7.8108-8.1545c-3.6492-3.5082-5.6332-6.4932-5.3333-8.0242 0.426-2.175 0.96644-2.0262 5.0109 1.3792 2.4934 2.0994 6.4793 6.8591 8.8576 10.577 2.6825 4.1935 6.2765 7.7501 9.4666 9.3683 2.8283 1.4347 6.1577 3.4252 7.3986 4.4235s3.0409 1.5427 4 1.21c0.9591-0.33276 3.4778 0.83762 5.5972 2.6008 2.1194 1.7632 4.5694 2.9311 5.4444 2.5953 0.8751-0.33581 1.5911 0.23224 1.5911 1.2623 0 3.6463-9.3539 2.2682-14.347-2.1137zm118.46-2.2877c1.65-0.31781 4.35-0.31781 6 0 1.65 0.3178 0.3 0.57783-3 0.57783s-4.65-0.26003-3-0.57783zm-12.223-94.937c-1.2667-1.3997-4.0337-3.2617-6.149-4.1379-3.857-1.5976-5.156-4.135-9.3558-18.274-1.3293-4.4752-1.3329-6.0301-0.0175-7.6151 1.2819-1.5446 1.3067-3.0408 0.11013-6.6662-1.3023-3.946-2.3081-4.8014-6.4538-5.4888-7.5459-1.2512-8.4776-1.7499-7.9762-4.2692 0.35291-1.7731 1.5838-2.2569 5.0986-2.0042 12.395 0.89127 17.587 0.48663 19.833-1.5456 1.289-1.1665 4.0963-2.1535 6.2386-2.1933 3.1344-0.0583 4.6761-1.2799 7.895-6.2562 4.6004-7.1119 6.1804-7.9673 9.1786-4.9691 2.7046 2.7046 2.7834 7.7827 0.15476 9.9643-1.1 0.91292-2 2.7129-2 4 0 2.8587-3.3714 5.8792-5.2596 4.7123-0.757-0.46785-4.1268 0.36599-7.4884 1.853-3.3616 1.487-6.5185 2.6471-7.0154 2.578-4.82-0.67059-6.0006 4.4856-1.57 6.8568 1.4667 0.78494 2.6667 2.56 2.6667 3.9446s1.5881 4.4048 3.5292 6.7116c1.941 2.3068 4.0142 6.4028 4.607 9.1023 0.5928 2.6995 1.4753 6.5616 1.9611 8.5824 0.92204 3.8358-1.1016 7.659-4.0538 7.659-0.89654 0-2.6664-1.1452-3.9331-2.5448zm94.129-22.532c0.49506-6.8439 1.2595-9.0279 4.1831-11.952l3.5773-3.5773v3.7192c0 5.167-3.854 16.439-6.3204 18.486-1.811 1.503-1.9762 0.73722-1.44-6.6765zm-165.57 4.9985c0-0.77661 0.6-1.0412 1.3333-0.58797 0.73333 0.45322 1.3333 1.0886 1.3333 1.412 0 0.32339-0.6 0.58798-1.3333 0.58798-0.73334 0-1.3333-0.63542-1.3333-1.412zm6.8775-51.921c-1.6265-2.2-4.0464-4-5.3774-4-4.1471 0-9.3136-8.6035-12.01-20-1.2117-5.121-1.0945-6.2442 0.80006-7.6667 2.8842-2.1655 6.8833-2.0448 11.043 0.33333 1.8333 1.048 4.6479 1.9268 6.2546 1.9528 3.7526 0.06069 4.7192 1.7116 3.2797 5.602-1.4117 3.8153-0.61872 6.4452 1.9434 6.4452 1.0719 0 2.2784-1.781 2.7274-4.0261 1.0346-5.173 7.9014-11.105 11.68-10.09 1.5295 0.41068 4.431 0.75488 6.4476 0.7649 2.0167 0.01001 3.6667 0.61821 3.6667 1.3515s-0.86459 1.3333-1.9213 1.3333c-2.7521 0-3.8984 2.4741-2.1322 4.6023 0.83019 1.0003 3.5818 2.8022 6.1148 4.0042 5.786 2.7456 5.8588 5.684 0.272 10.972-5.3359 5.0505-9.1802 7.0882-13.372 7.0882-1.7679 0-4.3003 1.2-5.6276 2.6667-3.7526 4.1465-10.199 3.5232-13.789-1.3333zm49.789-21.333c0.45323-0.73333 1.0886-1.3333 1.412-1.3333 0.32338 0 0.58797 0.6 0.58797 1.3333 0 0.73333-0.63541 1.3333-1.412 1.3333-0.77661 0-1.0412-0.6-0.58797-1.3333zm3.3333-2.283c-1.8333-0.32256-5.5481-2.3409-8.2551-4.4851-2.707-2.1442-5.8456-3.8986-6.9746-3.8986-1.129 0-2.4293-1.5-2.8894-3.3333s-1.6716-3.3333-2.6921-3.3333c-1.0205 0-1.8554-0.63121-1.8554-1.4027 0-0.77148-1.7565-2.015-3.9033-2.7634-3.857-1.3445-7.5465-7.8258-5.6545-9.933 0.49012-0.54585-9e-3 -0.68032-1.1089-0.29882-1.1 0.3815-4.7 0.3271-8-0.12089-5.7105-0.77523-5.9817-1.0075-5.6208-4.8145 0.28659-3.0231-0.60888-4.9231-3.6667-7.7797-2.2252-2.0788-4.0459-4.8358-4.0459-6.1267 0-1.2908-1.2-3.433-2.6667-4.7603-1.4667-1.3273-2.6667-3.1616-2.6667-4.0762s-1.8-2.2904-4-3.0573-3.9711-1.8756-3.9358-2.4638c0.0945-1.575 14.807-12.403 16.853-12.403 2.1218 0 2.1769 0.71045 0.32392 4.1729-1.6801 3.1394-0.0943 5.6193 5.2243 8.1696 1.9012 0.91165 4.2001 3.1575 5.1086 4.9909s3.2502 4.615 5.2038 6.1815c3.1604 2.5341 3.5706 3.8197 3.7206 11.661 0.1373 7.1797 0.57061 8.8137 2.3386 8.8185 1.1935 0.0033 2.919 0.90835 3.8344 2.0113 0.91534 1.1029 3.5388 2.4875 5.8299 3.0768 3.3314 0.8569 4.2449 1.8572 4.5613 4.9947 0.40766 4.0418 7.301 9.9232 11.631 9.9232 1.135 0 3.3027 2.1 4.8171 4.6667 1.5144 2.5667 3.3296 4.6667 4.0337 4.6667 0.70419 0 0.90951 0.6 0.45628 1.3333-0.45322 0.73333-1.2386 1.2516-1.7454 1.1518-0.50672-0.09987-2.4213-0.44549-4.2546-0.76806zm-38.667-43.05c-2.6087-1.6859-5.3333-1.6859-5.3333 0 0 0.73333 1.65 1.3241 3.6667 1.3129 2.8572-0.01591 3.2252-0.30574 1.6667-1.3129zm-38.667 32c0-0.73333 0.56459-1.3333 1.2546-1.3333 0.69006 0 1.6255 0.6 2.0787 1.3333 0.45323 0.73333-0.11136 1.3333-1.2546 1.3333s-2.0787-0.6-2.0787-1.3333z" fill="#4a3931"/>
  <path d="m160.63 289.28c-0.65376-1.0578-3.0625-1.2969-7.344-0.7289-4.7884 0.6352-6.8754 0.341-8.4006-1.1842-1.1162-1.1162-3.213-2.0294-4.6596-2.0294-1.5926 0-3.7164-1.841-5.3836-4.6667-3.133-5.3101-5.9227-5.8141-14.816-2.6764-6.0782 2.1445-10.005 1.6724-17.361-2.0872-6.1478-3.1422-15.13-13.864-19.074-22.767-3.429-7.7409-5.1503-9.6106-10.259-11.144-8.3732-2.5126-36.272-31.687-37.851-39.581-0.67962-3.3981-0.18584-4.9234 2.5021-7.729 1.8419-1.9225 3.3488-4.5744 3.3488-5.8932 0-1.3188-2.7809-5.486-6.1799-9.2604-9.9525-11.052-10.265-11.805-10.265-24.784 0-9.9271 0.4719-12.475 3.0975-16.723 3.599-5.8233 5.1869-12.122 6.5599-26.022 0.6126-6.2019 2.1633-12.278 4.0829-15.997 4.3447-8.4176 15.225-20.538 22.803-25.4 3.5243-2.2615 7.5488-6.0224 8.9433-8.3575 3.5904-6.0119 14.889-18.246 16.85-18.246 1.0761 0 1.4389 1.4079 1.0484 4.0684-0.42668 2.9072 0.10823 4.5841 1.8741 5.8754 2.2326 1.6325 2.3126 2.4002 0.82803 7.9508-0.90376 3.3791-1.6432 8.1152-1.6432 10.525s-0.73498 5.1158-1.6333 6.0141c-1.2888 1.2888-1.2888 2.1849 0 4.2486 3.2631 5.225 0.50494 9.3181-6.2791 9.3181-1.5149 0-2.7543 0.31286-2.7543 0.69525 0 1.6418 7.1417 11.305 8.3551 11.305 0.73372 0 3.6535 2.25 6.4883 5 5.7494 5.5774 6.8939 11.31 2.7055 13.551-3.8019 2.0347-8.2156 0.29899-8.2156-3.2308 0-3.1419-2.2507-4.6538-6.9279-4.6538-1.5084 0-4.9294-2.5012-7.7163-5.6416-4.3738-4.9287-5.2813-5.4135-7.1812-3.8367-1.1961 0.99266-2.1747 2.8581-2.1747 4.1454 0 3.7364 3.9019 12.046 6.0421 12.867 3.0678 1.1772 2.4298 6.6982-0.87384 7.5622-2.3074 0.60341-2.6675 1.3946-1.945 4.2735 0.83727 3.3359 0.66996 3.4854-2.9992 2.6795-6.9575-1.5281-5.9779 3.6717 3.3532 17.798 0.18672 0.28266 1.7516-0.41131 3.4775-1.5422 1.7259-1.1309 5.7071-2.8258 8.8471-3.7666s6.0197-2.52 6.3994-3.5094c0.37968-0.98943-1.4408-3.7258-4.0455-6.0807-5.2617-4.7572-7.6844-10.282-4.5089-10.282 1.0596 0 2.6906 0.92054 3.6243 2.0456 1.1769 1.4181 3.5789 1.9294 7.8299 1.6667 5.4789-0.33859 6.1776-0.0596 6.558 2.6189 0.31611 2.2256-0.49396 3.3475-3.1449 4.3554-2.9624 1.1263-3.2911 1.6945-1.9292 3.3355 0.90283 1.0878 2.468 1.9779 3.4783 1.9779 1.0102 0 1.8367 0.99964 1.8367 2.2214 0 1.2218 2.7 6.5534 6 11.848 3.3 5.2946 6.001 9.845 6.0021 10.112 1e-3 0.26692 3.8805 4.5976 8.6208 9.6238 9.8407 10.434 11.047 12.978 8.1292 17.144-2.5599 3.6548-2.6894 8.7984-0.29224 11.612 3.4301 4.0266 6.2068 13.54 6.2068 21.266 0 10.795 2.0218 15.557 8.802 20.734 3.2108 2.4516 10.026 8.3523 15.145 13.113 11.897 11.064 19.199 13.494 26.195 8.7184 2.4656-1.6831 4.8094-3.9039 5.2084-4.935 1.4471-3.7392-3.4142-14.575-8.437-18.807-2.7024-2.2766-6.7135-5.8305-8.9135-7.8977-2.2-2.0671-5.2869-4.4197-6.8598-5.2281-1.5729-0.80834-3.5068-3.3257-4.2976-5.5942-1.2668-3.634-1.0529-4.5094 1.7991-7.3615 1.7803-1.7803 4.2015-3.237 5.3804-3.237 3.7553 0 15.526 4.3255 15.941 5.8578 0.21956 0.81153 1.0602 3.9201 1.8682 6.908 0.94437 3.4925 2.6574 6.0685 4.7968 7.2135 1.8303 0.97956 3.6644 2.8414 4.0758 4.1374s2.8746 3.6112 5.474 5.1448c3.9958 2.3576 6.0183 2.6561 13.088 1.9317 7.5468-0.77318 8.9699-0.50065 14.593 2.7947 3.4269 2.0083 7.1056 5.3434 8.175 7.4113 1.9237 3.72 1.8774 3.805-4.3686 8.0204-3.4721 2.3433-8.5658 5.0554-11.319 6.0269-4.9167 1.7347-5.0431 1.6957-7.0439-2.1734-1.1205-2.1669-2.9458-3.9398-4.0562-3.9398-4.3364 0-12.601 5.5916-19.428 13.145-7.0581 7.8084-7.2661 7.9228-16.016 8.8082-6.2315 0.63061-9.1536 0.42952-9.8375-0.67699zm-44.299-59.803c1.1143-7.7426-0.14083-10.806-4.4273-10.806-1.3396 0-4.0373-2.1-5.995-4.6667s-4.315-4.6667-5.2386-4.6667c-0.92351 0-2.5791-1.35-3.6791-3l-2-3-3.5162 3.505c-2.2037 2.1967-3.2065 4.3119-2.6867 5.6667 0.45704 1.191 0.16676 2.1616-0.64649 2.1616-0.81179 0-1.476 0.6-1.476 1.3333s0.45 1.2623 1 1.1754c3.3281-0.52549 4.5845 0.38687 3.9378 2.8597-1.0093 3.8594 4.4951 9.8263 12.783 13.857 9.4836 4.6124 10.71 4.1587 11.944-4.4198zm-44.754-44.389c-0.42563-1.0636-0.74158-0.7477-0.80556 0.80556-0.05789 1.4056 0.25724 2.1931 0.70029 1.75 0.44305-0.44306 0.49042-1.5931 0.10527-2.5556zm184.42 45.542c0-1.4443 0.89952-2.6248 2-2.6248 1.1 0 2 0.83581 2 1.8574s-0.9 2.2027-2 2.6248c-1.3604 0.52203-2-0.072-2-1.8573z" fill="#362b27"/>
 </g>
</svg>
