<svg width="328" height="320" version="1.1" viewBox="0 0 328 320" xmlns="http://www.w3.org/2000/svg">
 <g transform="translate(2.5703 3.8555)" stroke-width="1.3333">
  <path d="m236.67 289.03c-6.6-0.62436-19.5-0.96334-28.667-0.75327-36.277 0.83132-55.085 0.18663-62.667-2.148-5.9585-1.8349-14.582-2.361-46-2.8063-44.591-0.63199-58.798-1.5766-62.76-4.1727-6.0847-3.9869-6.2745-5.9645-5.9977-62.483 0.14366-29.333 0.51887-56.033 0.8338-59.333 1.1552-12.105 1.5975-52.953 0.67856-62.667-1.2388-13.095 1.4385-57.007 3.726-61.113 3.8992-6.9983 1.8868-6.8871 124.62-6.8871h113.86l7.4096 4.8796c6.2634 4.1248 7.9404 6.1357 10.841 13 1.8873 4.4662 3.3711 10.22 3.2973 12.787-0.07386 2.5667 0.37139 11.867 0.98938 20.667 0.618 8.8 1.0164 28 0.88532 42.667-0.23767 26.594-0.25451 47.052-0.0543 66 0.24179 22.886-1.9937 84.986-3.2023 88.956-1.7135 5.6291-8.243 11.044-13.318 11.044-2.192 0-4.9959 0.51872-6.231 1.1527-3.4854 1.7891-24.948 2.4682-38.246 1.2103z" fill="#c4b5ae"/>
  <path d="m237.33 287.66c-6.9667-0.57779-20.167-0.88735-29.333-0.68791-36.682 0.79809-53.817 0.21543-63.057-2.1443-7.3464-1.876-17.168-2.4335-52-2.9516-23.619-0.3513-44.813-0.79572-47.099-0.98763-5.4904-0.46089-10.956-4.167-12.718-8.6236-1.3814-3.4948-1.6992-101.16-0.37396-114.93 0.31754-3.3 0.76839-31.2 1.0019-62 0.47133-62.17 0.5708-62.892 9.0714-65.855 2.9744-1.0369 38.121-1.4779 117.78-1.4779h113.54l5.9277 3.7723c3.2602 2.0748 6.809 4.8445 7.8862 6.1549 3.1332 3.8117 5.7278 11.591 6.028 18.073 0.15284 3.3 0.81842 13.2 1.4791 22s1.0897 27.7 0.9534 42c-0.26183 27.477-0.2924 50.133-0.0899 66.667 0.28239 23.059-1.921 82.434-3.2549 87.707-1.5991 6.3229-6.7101 10.959-12.081 10.959-1.794 0-5.0014 0.55632-7.1275 1.2363-5.6429 1.8046-22.018 2.2928-36.532 1.089zm-181.18-19.68c8.9351-3.6475 14.517-7.7701 14.517-10.722 0-0.61289-3.3553-3.3415-7.4562-6.0635s-7.7297-5.6619-8.064-6.533c-0.33429-0.87113 0.26295-4.1112 1.3272-7.2002 2.7196-7.8936 0.94786-13.614-5.24-16.92-4.7028-2.5122-4.7776-2.5108-6.7607 0.1264-2.3486 3.1232-1.5055 13.469 1.5847 19.445 1.484 2.8698 1.6226 5.2116 0.62079 10.494-0.70926 3.7399-1.902 7.9442-2.6506 9.343-2.041 3.8136-1.7296 12.052 0.45558 12.052 0.99914 0 6.2491-1.8094 11.667-4.021zm128.92-1.579c2.0458-2.0458 2.0687-5.0667 0.0383-5.0667-1.8611 0-6.4383 3.9386-6.4383 5.54 0 1.6927 4.5721 1.3546 6.4-0.47332zm-88.838-5.94c3.3918-3.0696 3.0424-5.5909-0.91233-6.5835-3.8166-0.9579-7.316 1.3051-7.316 4.7312 0 4.5547 4.198 5.4997 8.2283 1.8523zm-17.511-22.539c1.1277-2.1563 3.8194-6.6206 5.9815-9.9206 6.1468-9.3817 8.5762-20 4.5757-20-0.60892 0-3.0533 4.05-5.4319 9-2.3786 4.95-5.3862 10.207-6.6836 11.682-3.1306 3.5591-5.0224 14.593-2.3575 13.75 1.026-0.32456 2.7881-2.3544 3.9158-4.5107zm35.283-21.921c0.45323-0.73333 0.18863-1.3333-0.58798-1.3333s-1.412 0.6-1.412 1.3333 0.26459 1.3333 0.58798 1.3333 0.95879-0.6 1.412-1.3333zm64.441-13.808c0.81917-4.2612-1.8006-5.3874-6.3207-2.7173-5.602 3.3092-5.2467 5.5071 0.86234 5.3337 3.7275-0.10573 5.1024-0.76488 5.4584-2.6164zm-103.65-16.072c0.43588-2.6489 1.1045-5.1282 1.4858-5.5095 0.38134-0.38133 3.9247-1.0494 7.8742-1.4846 7.0147-0.77298 13.181-4.733 13.181-8.465 0-2.2963-7.0553-7.9057-10-7.9507-1.4667-0.0224-5.7935 2.9586-9.6151 6.6245-3.8216 3.6659-7.5505 6.6653-8.2864 6.6653s-1.9802 1.2-2.7652 2.6667c-0.78494 1.4667-2.2326 2.6667-3.217 2.6667-3.8055 0-5.0513-4.1053-5.5514-18.294-0.52519-14.899 1.2902-22.91 6.0179-26.555 1.6973-1.3086 1.518-2.1754-1.308-6.3242-1.8012-2.6443-3.9514-4.8119-4.7782-4.8169-4.1532-0.0252-7.9339 11.357-9.216 27.747-0.93369 11.935-0.86334 12.429 1.8747 13.145 3.0572 0.79947 3.5449 2.5945 1.5585 5.7358-0.85221 1.3477-0.56936 2.7166 0.89581 4.3356 1.9698 2.1766 1.9476 2.7258-0.27691 6.8564-4.0687 7.5552-2.4795 8.8335 10.277 8.2663l11.057-0.49168zm93.874-2.12c-0.45323-0.73333-1.3886-1.3333-2.0787-1.3333-0.69005 0-1.2546 0.6-1.2546 1.3333s0.93542 1.3333 2.0787 1.3333 1.7079-0.6 1.2546-1.3333zm-59.334-5.0556c0.91678 0.21394 1.9419-0.36104 2.278-1.2777 0.39876-1.0875-0.70161-1.6596-3.1667-1.6463-5.131 0.0277-7.7011 1.8523-6.6109 4.6932 0.83272 2.17 1.0446 2.175 3.3607 0.0789 1.3596-1.2304 3.2221-2.0621 4.1389-1.8482zm-55.267-81.233c3.176-4.8472 3.5581-21.979 0.55735-24.987-1.8376-1.8426-2.3405-1.8404-5 0.02245-2.6528 1.8581-2.9569 3.2178-2.9569 13.22 0 6.1318 0.36419 12.098 0.80932 13.258 1.216 3.1689 3.9312 2.5457 6.5902-1.5125z" fill="#b09b92"/>
  <path d="m228.67 286.77c-2.2-0.54498-19-0.72172-37.333-0.39275-28.253 0.50696-34.756 0.25268-42.667-1.6683-7.1646-1.7398-17.234-2.3817-43.333-2.7623-47.778-0.6968-63.694-1.6811-67.499-4.1743-1.7288-1.1327-3.7121-4.2441-4.4073-6.9142-0.75478-2.8986-0.99483-28.493-0.59576-63.521 0.36761-32.267 0.82812-77.267 1.0233-100 0.41351-48.15 1.6486-69.457 4.2665-73.601 1.0195-1.6136 4.1093-3.5603 6.8663-4.3259 3.2971-0.91563 43.02-1.3946 116.07-1.3995 107.43-0.0072 111.21 0.07712 116 2.5861 13.826 7.2488 15.72 12.237 17.618 46.398 1.8192 32.753 0.53818 189.39-1.6083 196.65-1.9859 6.7175-5.239 9.3339-14.187 11.411-8.5884 1.9931-44.174 3.2057-50.209 1.7108zm-172.81-17.54c10.659-4.0701 19.752-10.62 18.209-13.116-1.1254-1.821 6.7652-18.132 12.641-26.131 5.8177-7.9197 7.0932-11.437 6.8195-18.807-0.22073-5.9436 2.5469-13.82 6.7201-19.126 1.8948-2.4089 3.6627-3.2215 6.3868-2.9357 3.2667 0.34265 3.9738-0.23227 5.3264-4.3307 0.85781-2.5992 1.6672-8.1294 1.7987-12.289 0.22631-7.1613 0.0617-7.5817-3.0943-7.904-10.223-1.044-14.158-2.1893-15.829-4.6078-1.0061-1.4555-2.968-2.6464-4.3598-2.6464-2.6456 0-13.485 6.2348-14.255 8.1993-0.24445 0.62374-1.3224 1.1341-2.3953 1.1341-1.073 0-2.973 1.7962-4.2222 3.9916-2.9082 5.1107-4.2713 5.0742-4.2713-0.1146 0-2.2677-1.1146-5.54-2.4769-7.2718-3.1009-3.9421-2.4294-15.868 1.1226-19.938 1.2797-1.4667 3.9693-5.5241 5.9769-9.0164 3.6614-6.3695 3.7567-10.317 0.24918-10.317-1.0332 0-2.6255-0.9-3.5384-2-4.3026-5.1843-13.947 1.5523-17.217 12.027-1.7147 5.4912-2.2581 24.967-1.314 47.091 0.48057 11.261 0.84227 12.703 3.7845 15.085 2.4204 1.9598 4.9022 2.5466 9.6948 2.2922 5.4161-0.28747 6.7814 0.14327 8.5762 2.7056 1.5333 2.1891 3.0572 2.8711 5.4103 2.4213 2.217-0.4238 3.5335 0.0747 4.0734 1.5423 0.43871 1.1927 1.4164 2.5812 2.1727 3.0856 0.88536 0.59047 0.32648 3.0166-1.5694 6.8127-1.6194 3.2426-2.9444 7.11-2.9444 8.5941 0 1.514-1.0937 2.9845-2.4917 3.35-1.9032 0.4977-2.7129 2.4219-3.4281 8.1463-0.68385 5.4733-1.7101 8.0366-3.805 9.5039-3.9419 2.761-4.4518 2.6001-6.8228-2.1527-2.3257-4.662-1.582-7.4921 1.333-5.0729 2.1323 1.7696 2.5997-0.18014 0.53749-2.2423-0.73909-0.73909-2.1144-4.0091-3.0563-7.2667-1.4009-4.8451-2.7552-6.499-7.4426-9.0888-5.1571-2.8494-5.9352-2.9608-7.7814-1.1146-2.202 2.202-2.6375 18.206-0.64214 23.599 0.99789 2.6975 0.20927 13.019-1.7541 22.956-1.0308 5.2177-0.24028 9.0582 1.8646 9.0582 0.6937 0 6.1003-1.8478 12.015-4.1063zm130.71-3.5308c2.2534-2.7338 4.0971-6.0656 4.0971-7.4041 0-1.3385 1.5-4.641 3.3333-7.339 3.7154-5.4676 4.0541-7.9124 1.786-12.89-3.0164-6.6204-6.3928-2.9802-6.4344 6.9373-0.0107 2.3833-0.6182 4.3333-1.3515 4.3333s-1.3333 0.87274-1.3333 1.9394c0 1.0667-1.5419 3.6167-3.4263 5.6667s-4.2845 4.6776-5.3333 5.8391-1.907 3.4115-1.907 5c0 4.859 5.7878 3.7188 10.57-2.0823zm-38.012 2.8278c2.3553-0.90381 2.9059-4.524 0.68807-4.524-2.2798 0-6.579 2.6446-6.579 4.0469 0 1.4575 2.7547 1.6806 5.8909 0.4771zm-52.501-5.8879c4.2954-2.2988 5.6339-6.179 3.9214-11.368-1.9609-5.9417-6.5744-6.2105-12.081-0.70393-4.4189 4.4189-4.8873 7.4655-1.6908 10.998 2.4685 2.7276 6.0346 3.1166 9.8504 1.0744zm21.434-14.22c1.9157-1.638 1.9641-2.7747 0.43049-10.124-2.1577-10.34-0.48079-35.556 2.6859-40.389 2.492-3.8033 2.6317-5.9039 0.39225-5.8996-1.9131 4e-3 -9.7853 14.323-8.5521 15.556 0.44835 0.44836-0.20564 2.5433-1.4533 4.6555-1.9144 3.2408-1.9971 4.2749-0.52977 6.6244 1.3879 2.2224 1.4115 3.5742 0.117 6.6994-1.2294 2.9679-1.254 4.7224-0.10176 7.2512 0.83599 1.8348 1.52 5.0724 1.52 7.1946s0.63908 4.2536 1.4202 4.7363c0.94156 0.58192 0.7159 1.656-0.66958 3.1869-3.9505 4.3653-0.23586 4.7638 4.7408 0.50861zm55.128-33.249c1.194-0.45819 3.6945-3.8398 5.5567-7.5147 3.3913-6.6924 3.5498-12.317 0.51134-18.15-0.62152-1.193-2.0694-4.3365-3.2175-6.9855-3.2322-7.4574-4.9517-8.3511-11.687-6.0743-4.263 1.441-6.1732 2.9929-7.4076 6.0181-1.06 2.5978-1.1879 4.3702-0.35257 4.8864 0.7209 0.44555 1.3107 2.4814 1.3107 4.524 0 2.0426 1.3997 5.3428 3.1104 7.3337 1.7107 1.9909 4.5607 6.5749 6.3333 10.187 1.7726 3.6118 3.3239 6.5762 3.4472 6.5876 0.12333 0.012 1.2012-0.35415 2.3952-0.81232zm-21.983-9.8896c-1.7888-3.3424-3.5635-3.3255-4.6329 0.044-1.2328 3.8842 0.28713 5.6402 3.4274 3.9596 2.0916-1.1194 2.3283-1.9056 1.2055-4.0036zm-34.318-48.944c1.3283-12.184 0.1246-20.609-4.1937-29.355-2.2689-4.595-4.1253-9.145-4.1253-10.111 0-2.9649-1.2351-3.2536-6.3818-1.4916-4.6443 1.59-4.9767 2.0748-5.3575 7.8149-0.57844 8.7206 0.96549 10.813 7.6247 10.332 4.1176-0.2973 5.6634 0.15408 6.3114 1.843 0.47207 1.2302 0.3008 2.6262-0.38059 3.1021-1.4701 1.027-1.5841 8.8755-0.14968 10.31 0.55 0.55 1 2.0358 1 3.3018 0 1.266 0.82583 2.6187 1.8352 3.006 1.1655 0.44724 1.5953 1.959 1.1779 4.1426-0.36152 1.8911-0.0709 3.4384 0.64575 3.4384 0.71668 0 1.6138-2.85 1.9935-6.3333zm50.168-29.12c0.898-0.75717-2.4953-9.0125-4.7108-11.461-3.3907-3.7467-4.4434-2.9244-4.4434 3.471 0 8.5698 0.93504 10.252 5.139 9.2453 1.9402-0.46461 3.747-1.0297 4.0151-1.2558zm-79.915-5.5472c-0.07518-4.0109-0.32039-4.4725-1.2396-2.3333-1.5922 3.7052-1.5922 7.3333 0 7.3333 0.73333 0 1.2912-2.25 1.2396-5zm-30.45-21.333c2.5437-4.1655 3.0664-6.9407 3.1317-16.628 0.070334-10.432-0.2379-11.94-2.9967-14.667l-3.0751-3.0388-3.9249 4.3544c-3.7254 4.1331-3.9249 4.9586-3.9249 16.247 0 6.5407 0.58515 13.431 1.3003 15.312 1.9011 5.0002 5.8754 4.3385 9.4896-1.5799zm35.877-34.255c0-1.0567-0.6-2.2921-1.3333-2.7454-0.73333-0.45322-1.3333 0.41137-1.3333 1.9213s0.6 2.7454 1.3333 2.7454c0.73333 0 1.3333-0.86459 1.3333-1.9213z" fill="#9e8579"/>
  <path d="m248.63 286.86c-0.4068-0.4068-22.766-0.78909-49.687-0.84954-39.428-0.0885-49.596-0.47447-52.281-1.9844-2.5176-1.4158-10.023-1.9347-30.667-2.1204-15.033-0.13523-38.037-0.6939-51.12-1.2415-31.623-1.3236-30.611-0.54828-31.584-24.209-0.38722-9.4157-0.2705-38.719 0.25938-65.119 0.52988-26.4 1.1938-71.4 1.4753-100 0.55869-56.75 0.71967-57.95 8.1531-60.781 3.0273-1.1529 34.279-1.7544 115.55-2.2237l111.4-0.64337 6.5996 3.3587c13.215 6.7253 15.953 13.236 17.506 41.623 0.60169 11 0.99928 32.3 0.88353 47.333-0.11573 15.033-0.15981 34.233-0.0979 42.667 0.20322 27.695 0.1308 33.622-0.85557 70-0.53685 19.8-1.284 38.015-1.6603 40.478-0.84241 5.5136-6.3396 10.855-11.171 10.855-1.9835 0-5.3459 0.55632-7.472 1.2362-4.5143 1.4437-24.147 2.705-25.231 1.621zm-189.24-17.868c4.3673-1.836 11.028-4.7023 14.802-6.3696l6.8612-3.0314 3.652 2.8726c5.1381 4.0416 9.0134 3.5854 14.643-1.7239 3.7462-3.5331 4.6655-5.2524 3.9739-7.4316-1.0825-3.4106 1.7682-10.955 3.8582-10.21 0.81625 0.29077 1.3295 2.4304 1.1405 4.7548-0.4173 5.1333 2.0778 6.4696 7.7178 4.1334 5.0134-2.0766 5.7843-5.3348 3.5104-14.836-2.2198-9.2754-0.92238-29.857 2.3981-38.042 1.7994-4.4355 1.9413-6.1507 0.70088-8.4685l-1.5555-2.9065-3.8807 3.718c-2.1344 2.0449-3.8807 4.7703-3.8807 6.0565 0 1.2862-0.53662 2.6702-1.1925 3.0755-1.2706 0.78524-2.6374 8.2568-3.3088 18.087-0.22539 3.3-1.921 9.5289-3.768 13.842-2.6279 6.1367-4.3082 8.2415-7.7265 9.6788-3.2771 1.3779-4.8224 1.4599-6.1863 0.32798-2.7299-2.2656-2.189-11.231 1.0598-17.569 1.7651-3.4431 2.8426-7.9334 2.7866-11.614-0.1751-11.526 4.8944-21.333 11.028-21.333 4.452 0 6.9279-3.8505 8.5737-13.333 0.82725-4.7667 2.0511-11.667 2.7196-15.333 0.66854-3.6667 1.2225-12.006 1.2311-18.532 0.0124-9.4627-0.48841-12.573-2.4734-15.36-1.3689-1.9225-3.5387-6.7049-4.8218-10.628l-2.3328-7.1323-7.1277 0.83772c-5.8354 0.68584-7.1277 0.47299-7.1277-1.1739 0-1.2466-1.2439-2.0116-3.2706-2.0116-4.9234 0-10.063 2.793-10.063 5.4687 0 3.2894-2.0983 4.2627-5.391 2.5005-2.0582-1.1015-3.258-1.0904-4.6237 0.0431-1.2051 1.0002-4.3226 1.221-8.9955 0.63712l-7.1512-0.89348-3.709 7.1221c-4.4944 8.6302-6.8712 28.331-5.2827 43.789 0.56523 5.5 0.85277 13.618 0.63898 18.04-0.48348 9.9999 1.5648 12.716 11.938 15.828 6.6831 2.0053 7.716 2.8282 10.347 8.2428 3.0674 6.3136 2.5116 10.061-1.7338 11.691-1.1204 0.42992-2.037 1.7005-2.037 2.8235 0 2.9916-1.5641 2.5128-5.535-1.6944-1.9395-2.0549-6.0563-4.877-9.1484-6.2714-5.5464-2.5011-5.6487-2.5002-7.5986 0.0695-1.6322 2.151-1.8057 5.508-0.99603 19.271 1.1571 19.668 1.1732 18.933-0.58979 26.997-1.9259 8.8103-0.9084 10.791 5.1271 9.9818 2.6729-0.35851 8.433-2.154 12.8-3.99zm22.046-21.767c0.06397-1.5533 0.37992-1.8692 0.80556-0.80556 0.38516 0.96249 0.33779 2.1125-0.10527 2.5556-0.44306 0.44305-0.75819-0.34446-0.70029-1.75zm-14.105-86.328c-1.4667-1.6818-2.8215-5.3365-3.0106-8.1215-0.29012-4.2709 0.41262-5.8237 4.4885-9.9181 3.0916-3.1056 5.0567-4.254 5.4551-3.1877 1.0974 2.9375 4.679 1.9783 3.7338-1-0.4655-1.4667-0.31493-2.6667 0.33461-2.6667s3.54-2.0995 6.4232-4.6656c5.9748-5.3177 7.2422-5.6964 7.2422-2.1639 0 3.9512 3.8628 12.163 5.7216 12.163 2.1228 0 6.0268 4.4979 7.6815 8.8502 1.6754 4.4066 1.6545 4.4831-1.2233 4.4831-3.4112 0-9.7388-5.1887-8.6666-7.1068 0.47959-0.85795-1.7647 0.89561-4.9873 3.8968-4.566 4.2523-18.107 12.658-20.168 12.519-0.19683-0.0133-1.5579-1.4001-3.0245-3.082zm79.491 109.75c4.1606-1.1557 5.307-2.4157 8.3333-9.1593 3.5128-7.8276 4.6518-16.152 2.21-16.152-0.7145 0-2.1546 1.65-3.2003 3.6667-1.0457 2.0167-4.1044 5.9315-6.7971 8.6996-5.3783 5.5289-8.9448 11.498-7.8899 13.205 0.86042 1.3922 1.4767 1.3704 7.344-0.25932zm38.199-1.9221c2.142-1.8024 6.088-7.8341 8.769-13.404 3.9119-8.1271 4.8745-11.677 4.8745-17.978 0-4.3179-0.62639-8.2378-1.392-8.711-2.4448-1.511-7.3277 2.8948-9.8547 8.8915-4.7722 11.325-6.4993 15.233-10.16 22.993-2.0366 4.3168-3.389 8.6668-3.0053 9.6667 1.0981 2.8615 6.5047 2.129 10.769-1.459zm-61.273-1.973c0.33333-1-0.16667-1.5-1.1667-1.1667-0.9625 0.32083-2.0125 1.3708-2.3333 2.3333-0.33333 1 0.16667 1.5 1.1667 1.1667 0.9625-0.32084 2.0125-1.3708 2.3333-2.3333zm23.667-37.201c0.48312-3.4184 2.0119-8.8415 3.3973-12.051 2.9225-6.7712 3.1049-9.4189 0.97154-14.101-1.8607-4.0837-5.8073-4.4265-7.8131-0.67863-1.5975 2.985-0.41607 14.756 1.6129 16.07 0.66856 0.43282-0.66825 2.8036-2.9707 5.2684-4.1066 4.3961-4.1466 4.5646-2.1024 8.8513 2.8497 5.9759 5.7872 4.5472 6.9045-3.3581zm29.343-16.95c4.9516-7.539 5.907-10.046 5.907-15.501 0-10.647-9.2937-26.431-15.563-26.431-3.098 0-13.454 7.9792-14.26 10.987-0.44402 1.657-0.8155 5.5473-0.82551 8.6452-0.0159 4.9159 0.48976 5.8951 3.9749 7.6973 3.9506 2.043 10.674 12.99 10.674 17.38 0 2.6273 2.6416 7.7595 3.5343 6.8668 0.35839-0.35839 3.3098-4.6987 6.5586-9.6452zm-14.553-59.989c1.2144-3.1648 0.0747-3.3401-3.5598-0.54761l-3.3134 2.5458 3.0418 0.0296c1.673 0.0163 3.3972-0.89622 3.8314-2.0278zm5.773-23.522c0.037-8.9069-5.5814-18.42-10.879-18.42-2.1524 0-2.4342 1.2259-2.4342 10.588 0 11.221 0.23674 11.677 7.3333 14.126 4.8586 1.6767 5.9512 0.52673 5.9796-6.2936zm-45.313-2.3414c0-0.69006-0.6-1.6255-1.3333-2.0787-0.73333-0.45323-1.3333 0.11136-1.3333 1.2546s0.6 2.0787 1.3333 2.0787c0.73334 0 1.3333-0.56459 1.3333-1.2546zm5.2632-13.079c1.8797-6.7684 1.7596-9.0446-0.57958-10.986-2.4396-2.0247-6.5546-0.67153-5.5913 1.8387 0.3863 1.0067-0.0951 4.15-1.0698 6.9853-2.0754 6.0371-1.6577 7.1619 2.6602 7.1619 2.5528 0 3.47-1.0013 4.5805-5zm-71.864-5.0342c2.7683-1.4316 3.9338-3.0241 3.9338-5.3752 0-1.8375 0.87312-3.676 1.9403-4.0855 1.5668-0.60124 1.8731-3.5871 1.5912-15.512-0.31955-13.52-0.59618-14.932-3.2736-16.71-1.6085-1.068-2.9246-3.1143-2.9246-4.5473 0-2.4732-0.20009-2.4481-3.943 0.49596-2.1686 1.7058-5.2524 5.714-6.8529 8.9071-2.596 5.1794-2.8312 7.234-2.1804 19.046 0.49085 8.9078 1.4344 14.316 2.8836 16.528 2.5174 3.842 3.5388 3.9871 8.8255 1.2533zm36.653-38.067c1.9447-3.7605 1.9405-4.3771-0.04993-7.4149-2.7584-4.2098-6.7551-3.6506-6.4478 0.90207 0.24684 3.6565 2.6796 10.614 3.7113 10.614 0.36598 0 1.6199-1.8457 2.7864-4.1016zm-22.053-3.3104c0-1.1433-0.6-1.7079-1.3333-1.2546-0.73333 0.45322-1.3333 1.3886-1.3333 2.0787 0 0.69006 0.6 1.2546 1.3333 1.2546 0.73333 0 1.3333-0.93541 1.3333-2.0787z" fill="#8c7064"/>
  <path d="m158.67 285.83c-2.5667-0.3256-9.704-1.8028-15.861-3.2827-7.6662-1.8427-13.339-2.4386-18-1.891-3.7432 0.43986-24.123 0.2417-45.288-0.44036l-38.482-1.2401-6.7141-6.7141-0.14168-48.464c-0.25464-87.104 1.6207-176.52 3.9335-187.55 1.4593-6.9607 0.59656-6.9121 122.86-6.9121h113.06l6.8002 4.5795c9.1863 6.1864 10.56 10.846 12.45 42.22 1.9065 31.664 0.65386 190.08-1.5621 197.55-1.8928 6.3798-3.2068 7.4079-12.651 9.8992-7.2891 1.9227-22.417 2.2528-61.739 1.347-4.7667-0.10973-18.867 0.18126-31.333 0.64679-12.467 0.46555-24.767 0.58004-27.333 0.25445zm-103.17-14.316c5.046-1.734 12.725-4.4745 17.064-6.09 7.5787-2.8216 8.0565-2.8472 12.132-0.65226 5.5086 2.9666 9.8969 1.8328 16.702-4.3154 3.6456-3.2936 7.3121-5.177 11.633-5.9758 7.7054-1.4245 10.088-4.1871 9.0402-10.48-0.42749-2.5667-1.1121-11.567-1.5213-20-0.64225-13.236-0.3734-16.388 1.9657-23.041 1.4903-4.2393 2.4858-8.4393 2.212-9.3333s-0.89542-3.4198-1.3816-5.6129l-0.88393-3.9874-7.6785 9.3081 0.59464-4.6667c0.32705-2.5667 1.236-9.1667 2.0198-14.667 0.78385-5.5 1.7025-15.595 2.0413-22.434 0.33888-6.8387 1.5344-14.632 2.6568-17.318 1.1223-2.6861 1.7103-6.2 1.3065-7.8086-0.52957-2.11-0.0215-3.151 1.8238-3.7366 3.0688-0.974 5.4474-7.1898 5.4474-14.235 0-8.1786-7.431-13.477-12.238-8.7264-0.96905 0.9577-2.8266 2.1445-4.128 2.6374-1.7172 0.65034-2.1464 1.7715-1.565 4.0879 0.78467 3.1264 0.61005 3.1957-8.5179 3.3834-5.9303 0.1219-9.9673-0.42204-11.102-1.4959-1.9917-1.8853-15.459-2.2865-18.198-0.5422-0.9619 0.6126-2.2971 2.5555-2.967 4.3176-0.80404 2.1148-2.2717 3.2038-4.3178 3.2038-7.5352 0-6.9118-6.384 1.4048-14.386 3.6539-3.5156 4.3894-5.0589 3.7068-7.7784-0.52023-2.0727-0.34386-3.0789 0.45332-2.5862 0.71766 0.44354 1.8587-0.18324 2.5356-1.3928 0.83939-1.4999 1.5265-1.7208 2.1606-0.69471 0.51143 0.82751 2.1972 1.5046 3.7462 1.5046 1.549 0 3.8983 0.97919 5.2207 2.176 2.2482 2.0346 2.4876 1.9573 3.6845-1.191 0.70406-1.8518 1.7098-5.681 2.2351-8.5093 0.52522-2.8283 1.7983-6.4387 2.829-8.0231 1.6763-2.5767 1.4895-3.6321-1.7696-10-2.004-3.9156-3.7821-7.3135-3.9513-7.5509-0.16922-0.23741-2.2245 0.55959-4.5673 1.7711-4.0556 2.0972-4.2181 2.4795-3.3933 7.9801 0.52039 3.4702 0.31937 6.1154-0.50338 6.6239-2.4193 1.4952-6.5678-1.8279-7.0029-5.6096-0.38274-3.3265-0.91746-3.6638-5.7553-3.6307-3.6618 0.02503-5.896-0.73005-7.1287-2.4092-1.0008-1.3633-3.0397-2.2646-4.6071-2.0365-3.7356 0.54365-11.144 10.455-13.054 17.465-1.9546 7.1738-0.80349 26.135 2.2465 37.005 1.9767 7.045 2.0692 9.1533 0.64544 14.709-2.044 7.9753-3.2634 47.149-1.5664 50.32 0.73572 1.3747 0.76149 4.8273 0.06391 8.5612-0.85773 4.5912-0.66998 7.4519 0.70509 10.743 2.296 5.4952 3.8036 6.6942 11.006 8.7533 3.1047 0.88758 6.2547 2.7532 7 4.1458 1.7673 3.3023 1.7417 10.311-0.0418 11.413-0.76829 0.47482-5.06-1.3188-9.5371-3.9858-4.4771-2.667-8.9575-4.5354-9.9565-4.1521-3.77 1.4467-4.7222 7.7617-3.7343 24.765 1.1481 19.759 1.1758 17.842-0.36842 25.43-1.4622 7.1845-0.09759 11.903 3.4423 11.903 1.3943 0 6.6636-1.4188 11.71-3.1528zm35.853-35.478c-0.47276-1.4896 0.38555-5.3896 1.9788-8.9914 1.5476-3.4985 3.0121-9.7414 3.2545-13.873 0.56198-9.5776 2.9534-16.827 6.1076-18.515 3.6915-1.9756 7.9809-1.6118 7.9809 0.6769 0 1.1-0.75 2.0004-1.6667 2.0008-1.1991 6e-4 -1.7294 3.5134-1.8902 12.521-0.23632 13.237-1.4499 17.05-7.8466 24.652-4.0223 4.7802-6.7212 5.3014-7.9184 1.5293zm-20.093-83.703c-1.5804-2.6539-1.0293-7 0.88765-7 0.70258 0 1.6228 0.9 2.0449 2 1.2484 3.2533 2.9294 2.3239 5.7316-3.1689 3.1307-6.1367 6.2438-7.703 9.4833-4.7713 2.0352 1.8419 2.115 2.5715 0.59998 5.4916-1.7639 3.4-7.4129 7.1153-10.818 7.1153-1.0162 0-1.8476 0.6-1.8476 1.3333 0 2.2397-4.6029 1.4828-6.0814-1zm6.0814-73c0-1.1 0.23581-2 0.52402-2s0.86938 0.9 1.2915 2 0.1863 2-0.52402 2c-0.71032 0-1.2915-0.9-1.2915-2zm73.352 191.32c4.1144-2.202 8.5821-13.539 8.6162-21.864 0.0387-9.4346-2.2664-11.183-5.269-3.9972-1.1444 2.739-4.7784 7.864-8.0755 11.389-10.233 10.94-11.243 18.187-2.3004 16.51 2.7288-0.51192 5.8917-1.4286 7.0287-2.0372zm35.642-1.6041c1.803-1.679 5.7064-7.8528 8.6743-13.719 4.5266-8.9477 5.3865-11.926 5.3357-18.481-0.0775-9.992-2.465-13.053-7.5719-9.7064-1.8671 1.2234-4.264 3.566-5.3264 5.2058-3.9039 6.0254-15.404 36.853-14.565 39.041 1.1812 3.0782 9.1174 1.6978 13.453-2.34zm-62.594 1.3472c2.3231-2.3231 2.051-9.0667-0.36576-9.0667-1.888 0-6.0342 6.3676-6.0342 9.2671 0 1.9096 4.4287 1.7709 6.4-0.20045zm98.704-5.5725c0.604-5.2694-0.87657-10.459-2.8009-9.8174-1.7506 0.58352-4.0196 11.291-2.8081 13.252 1.562 2.5274 5.1796 0.3125 5.609-3.4342zm-83.771-20.827c0-0.73333-0.26459-1.3333-0.58798-1.3333-0.32338 0-0.9588 0.6-1.412 1.3333-0.45323 0.73333-0.18864 1.3333 0.58797 1.3333s1.412-0.6 1.412-1.3333zm12.594-19.946c2.8378-8.6254 3.5328-12.782 2.9543-17.667-0.56084-4.7354-0.30892-6.3875 0.97403-6.3875 3.7844 0 7.922 7.8836 9.4613 18.027 0.44741 2.9483 1.282 6.1186 1.8546 7.0452 1.5984 2.5862 5.0584 0.53981 7.3881-4.3698 1.1547-2.4334 4.2011-7.5473 6.7696-11.364 6.7948-10.097 6.5204-16.303-1.3299-30.079-4.2902-7.5283-6-12.013-6-15.737 0-2.9898-1.2117-7.1689-2.8449-9.8113-2.4844-4.0198-2.7113-5.6449-1.7911-12.824 2.0294-15.832 0.1816-23.264-7.9632-32.031-3.4076-3.668-3.637-3.7225-6.1371-1.46-2.1494 1.9452-2.5971 4.1361-2.5971 12.709 0 5.6971 0.70255 13.402 1.5612 17.122 1.1346 4.9152 1.1657 7.5847 0.11387 9.7684-1.587 3.2946-4.4344 14.69-3.8234 15.301 0.21019 0.21018 2.3718-0.61044 4.8036-1.8236 4.1798-2.0852 4.5195-2.0716 6.2164 0.24906 3.0671 4.1945 2.1023 7.0675-3.2988 9.8229-5.2988 2.7032-8.2395 8.6629-8.2395 16.698 0 4.0673-1.748 7.839-5.2614 11.352-1.6803 1.6803-2.6751 5.5215-3.3406 12.899-0.75048 8.3197-1.5198 10.954-3.6968 12.656-3.1672 2.4764-2.7235 5.8686 1.707 13.051l2.7967 4.5339 3.0061-3.2006c1.6534-1.7604 4.676-8.2762 6.7169-14.48zm58.072-76.054c0-4.4569-2.5688-5.3311-5.4531-1.8557-1.512 1.8219-1.398 2.4233 0.75826 4 3.744 2.7377 4.6948 2.3034 4.6948-2.1443zm-134.67-49.333c0-0.73333-0.6-1.3333-1.3333-1.3333-0.73333 0-1.3333 0.6-1.3333 1.3333 0 0.73333 0.6 1.3333 1.3333 1.3333 0.73333 0 1.3333-0.6 1.3333-1.3333z" fill="#74574a"/>
  <path d="m156 284.38c-1.8333-0.2194-7.7239-1.374-13.09-2.5657-6.3872-1.4184-12.604-1.8999-18-1.394-11.801 1.1063-79.544-1.5335-83.89-3.269-3.8375-1.5327-7.4028-9.9672-5.1609-12.209 0.63076-0.63076 1.5278 0.92892 2.0088 3.4925 1.3658 7.2805 3.3228 8.1428 13.08 5.7635 4.6116-1.1245 12.758-3.667 18.104-5.6501 8.8339-3.2772 10.189-3.4505 14.878-1.903 6.2306 2.0563 11.18 0.675 18.579-5.1852 2.7407-2.1707 6.7474-4.3244 8.9038-4.7861 9.5581-2.0466 9.9207-2.0526 9.9207-0.16701 0 1.0391-1.4928 4.5006-3.3173 7.6921-4.2874 7.4998-4.3256 10.469-0.13459 10.469 1.9597 0 4.5756-1.6172 6.7004-4.1424 2.9184-3.4684 3.3364-4.9328 2.5685-9-0.50437-2.6717-0.86657-5.7576-0.80489-6.8576 0.0617-1.1-0.40149-3.2-1.0293-4.6667-4.0179-9.3866-5.2228-38.15-1.9829-47.333 3.3358-9.4545 2.2206-29.75-1.3199-24.022-0.46062 0.74529-1.4726 1.3551-2.2488 1.3551-0.94525 0-1.1162-3.1922-0.51755-9.6667 0.49156-5.3167 1.1465-14.39 1.4555-20.164 0.30897-5.7735 1.6948-13.573 3.0796-17.333s2.2503-7.5861 1.9234-8.5028c-0.32695-0.91666 0.0862-1.6667 0.91803-1.6667 2.5092 0 5.3764-8.7866 5.3764-16.476 0-9.7823-2.6889-13.021-11.418-13.752-6.5424-0.54828-6.6039-0.51619-10.252 5.3507-2.0188 3.2462-4.8272 6.2047-6.2409 6.5744-2.8927 0.75646-7.2502-3.2763-8.6983-8.05-1.1578-3.8169 3.8254-12.313 7.2218-12.313 3.2124 0 5.0514-2.4505 8.1016-10.795 1.8801-5.1437 2.1746-7.4676 1.109-8.7515-1.1764-1.4175-2.0874-1.2474-4.8166 0.8994-1.8512 1.4561-4.372 2.6475-5.6019 2.6475-2.4716 0-8.0709-6.7977-8.0709-9.7983 0-1.0485-1.1428-3.3175-2.5395-5.0424-2.4276-2.9979-2.6525-3.0338-5.105-0.81438-1.411 1.277-3.5328 2.3218-4.7152 2.3218-1.1823 0-2.5063 0.57707-2.9422 1.2824-0.5052 0.81744-2.0581 0.80123-4.2831-0.04471-1.9198-0.7299-6.9332-1.457-11.141-1.6157-9.1766-0.34621-11.174 1.0937-16.732 12.062-3.6837 7.27-3.8718 8.4761-3.7916 24.316 0.04643 9.1667 0.83036 20.075 1.7421 24.241 1.2702 5.8042 1.3067 9.5096 0.15618 15.855-1.8163 10.016-1.4743 61.068 0.45758 68.299 1.1541 4.3201 2.3031 5.4707 7.8425 7.8538 6.0429 2.5996 9.0506 5.5894 9.0506 8.9969 0 2.6304-3.8745 1.4497-8.463-2.579-5.396-4.7378-7.5822-4.972-10.997-1.178-2.2784 2.5313-2.54 5.0596-2.54 24.546 0 11.948-0.37165 22.1-0.8259 22.559-1.7252 1.7449-2.9325-22.664-2.9639-59.928-0.05515-65.324 1.7363-159.02 3.1094-162.63 0.71457-1.8794 2.96-4.1222 4.9898-4.984 2.6942-1.1438 33.973-1.7098 115.86-2.0966 122.53-0.57877 114.67-1.0219 124.21 7.0045 2.7768 2.3366 4.5683 5.5628 5.7648 10.382 0.9548 3.8454 1.5963 7.4941 1.4255 8.1082-0.17076 0.61408 0.66725 11.714 1.8623 24.667 1.4337 15.539 1.8873 28.766 1.3336 38.883-0.46155 8.4333-1.1203 45.333-1.4639 82-0.38776 41.384-1.17 68.718-2.0626 72.076-2.8652 10.778-6.7978 11.392-75.236 11.746-30.8 0.15905-57.5 0.10973-59.333-0.10973zm-7.3333-12.197c7.1058-3.2334 11.533-11.964 12.584-24.817 0.78273-9.5695 2.9597-14.202 9.414-20.031 1.6238-1.4667 4.1008-4.9167 5.5043-7.6667 2.55-4.9962 4.3101-6.1276 5.795-3.7249 1.2825 2.0751 4.4593 0.10014 7.3423-4.5648 4.9218-7.9637 2.9956-20.751-4.4384-29.464-5.7931-6.79-8.8647-12.847-8.881-17.513-7e-3 -2.0531-1.4848-6.8942-3.2836-10.758-2.9975-6.4385-3.147-7.6409-1.7896-14.4 1.9928-9.9228-0.12146-18.831-7.0387-29.657-6.074-9.5062-8.2102-10.019-12.16-2.9184-2.2753 4.0904-2.5139 6.5176-1.9323 19.656 0.37419 8.4524 0.13014 15.319-0.5596 15.745-0.67274 0.41579-1.2232 2.328-1.2232 4.2493 0 3.2936-0.43977 5.1093-4.1918 17.308-0.8388 2.727-3.2388 7.7434-5.3333 11.147-5.9133 9.6103-4.8181 16.189 1.3142 7.8943 7.2937-9.8653 9.4092-0.25927 2.9504 13.398-2.1599 4.5671-4.3426 11.671-4.8504 15.786-0.50785 4.1155-2.0407 8.9136-3.4063 10.662-2.9917 3.8315-3.1427 6.7715-0.52529 10.232 2.5634 3.389 2.53 5.8394-0.11933 8.7668-2.5868 2.8584-1.5523 6.488 1.8493 6.488 7.4716 0 18.561-20.541 20.156-37.333 0.81541-8.5862 0.84328-8.6357 3.0016-5.3333 1.1982 1.8333 2.5506 7.2434 3.0053 12.022 0.7867 8.2681 0.60942 9.0191-3.6588 15.5-2.4671 3.7461-4.8939 8.4378-5.3929 10.426-0.49903 1.9883-3.5064 6.4133-6.6831 9.8333-6.5277 7.0276-11.992 16.879-10.917 19.681 0.98746 2.5732 7.0727 2.2955 13.468-0.61469zm36.226-0.87333c4.6563-3.051 13.49-17.252 15.91-25.579 1.6893-5.8109 1.7802-8.3766 0.51299-14.481-0.84703-4.0801-2.3354-7.7236-3.3076-8.0966-3.0106-1.1553-10.056 3.4426-13.049 8.5166-4.3805 7.4244-14.441 37.762-13.503 40.718 0.67306 2.1206 1.657 2.4479 5.4896 1.826 2.5683-0.41678 6.1443-1.7241 7.9468-2.9051zm38.491-2.531c1.4911-2.2758 1.8578-4.725 1.2477-8.3333-1.4345-8.4828-2.04-9.7769-4.5744-9.7769-2.7279 0-8.057 9.9558-8.057 15.052 0 6.6028 7.7049 8.6726 11.384 3.0581zm33.95-21.518c0-7.0347-1.2437-7.4934-4.3174-1.5923-5.2031 9.9889-4.3816 17.631 1.198 11.144 2.2584-2.6255 3.1194-5.2621 3.1194-9.5522zm-34.438-22.799c2.5254-2.2854 3.3981-10.376 1.2617-11.696-1.6598-1.0258-8.1567 4.3541-8.1567 6.7542 0 2.3758 2.4094 7.1489 3.6086 7.1489 0.46645 0 1.9453-0.99299 3.2864-2.2067zm-11.995-68.793c2.2272-4.0249 2.1098-22.844-0.15958-25.578-3.0021-3.6174-6.5372-2.4882-8.7438 2.7931-1.1218 2.6848-1.713 5.9104-1.3138 7.1681 0.48868 1.5396-0.15757 2.5176-1.9783 2.9938-3.7157 0.97168-3.4342 2.2837 2.0237 9.4317 5.2547 6.8819 7.7045 7.6506 10.172 3.1917zm2.4338-82.247c0-2.1523-0.62328-5.5525-1.385-7.5562l-1.385-3.643-2.1258 3.035c-1.947 2.7798-1.9445 3.4152 0.0301 7.5562 2.6512 5.5596 4.8658 5.8363 4.8658 0.60792zm-117.97 157.3c-0.3954-0.63976-0.09764-2.7973 0.66169-4.7945 0.75933-1.9972 1.8942-8.6981 2.5219-14.891 1.1898-11.739 3.1094-15.988 5.5821-12.357 2.0241 2.9722 0.52952 21.206-2.2074 26.93-2.3948 5.0084-5.2479 7.2325-6.5582 5.1123z" fill="#654538"/>
  <path d="m156 283.94c-4.0333-0.57648-9.4333-1.7422-12-2.5904-2.9581-0.97763-20.439-1.7769-47.747-2.1831-42.565-0.63313-55.309-1.7221-42.838-3.6606 3.2552-0.50601 9.9703-2.4963 14.922-4.4228 8.2985-3.2284 9.4246-3.364 14.375-1.7302 5.9902 1.977 9.2472 0.9449 21.382-6.7755 3.3518-2.1324 8.0057-4.2595 10.342-4.7268l4.248-0.8496-4.1987 8.9724c-3.4395 7.3501-3.863 9.1849-2.3421 10.148 3.0061 1.9036 6.5728 1.4034 11.439-1.6044 4.3326-2.6777 4.6518-2.7012 6.2883-0.46313 1.4484 1.9809 3.0678 2.2359 10.131 1.5955 5.2207-0.4734 9.7187-1.7365 11.869-3.3329 5.3012-3.9356 10.91-15.975 11.38-24.426 0.57354-10.321 9.7274-23.84 18.124-26.767 3.5912-1.2519 15.722-14.621 21.643-23.853 2.8473-4.4392 3.6376-19.624 1.103-21.191-2.5801-1.5954-5.4542-0.27184-5.4542 2.5118 0 3.6447-1.2129 3.9915-6.4421 1.8421-7.0135-2.8829-12.063-8.165-13.74-14.374-0.80056-2.9638-2.637-8.3157-4.0809-11.893-2.363-5.8545-2.4618-7.3274-0.98833-14.74 1.4897-7.4948 1.3825-8.916-1.1916-15.796-1.5557-4.158-4.6425-10.959-6.8596-15.114-2.2171-4.1547-4.0311-8.9696-4.0311-10.7 0-2.1147-0.76469-3.139-2.3333-3.1252-3.0608 0.02679-4.3516 1.0582-8.2408 6.5846-2.9731 4.2247-3.267 6.0199-3.5582 21.737-0.30976 16.721-1.507 23.049-6.6918 35.37-1.0134 2.4082-1.8426 5.5711-1.8426 7.0286 0 2.9304-6.3577 13.26-8.1614 13.26-0.62722 0-1.5242-2.4-1.9932-5.3333-0.97615-6.1045-1.9528-6.5543-5.0663-2.3333-2.0939 2.8388-2.1684 2.2117-1.3846-11.667 0.45556-8.0667 1.0637-14.902 1.3514-15.19 0.28768-0.28784 1.3428 0.15696 2.3446 0.98843 2.3762 1.972 3.5762 0.64508 3.5762-3.9544 0-2.0928-0.97911-4.2594-2.245-4.9679-2.0417-1.1426-1.8607-2.1719 2-11.369 4.4627-10.631 5.7522-23.533 2.8871-28.886-2.0703-3.8683-12.738-9.6484-15.935-8.6338-2.3606 0.74922-2.7074 0.27543-2.7074-3.6982 0-2.5067 0.66239-6.4577 1.472-8.7801 1.7852-5.1209 0.73267-9.9708-2.9666-13.67l-2.7602-2.7602-3.8244 3.664c-4.6665 4.4708-6.4355 3.4495-11.533-6.6588-1.8723-3.7127-3.9911-7.1264-4.7085-7.5859-0.71735-0.45951-3.6618 0.09059-6.5432 1.2224-4.7781 1.8769-5.6489 1.8624-9.8994-0.16453-7.6555-3.6506-12.814-2.894-20.229 2.9669-3.6107 2.8541-7.3414 7.0638-8.2904 9.3548-1.591 3.8411-1.8646 3.9821-3.5123 1.8107-1.9019-2.5062-2.2031-11.425-0.75495-22.352 0.83777-6.3212 1.1542-6.7526 6.1517-8.3869 4.0995-1.3406 29.655-1.7944 115.17-2.045 121.54-0.35617 114.97-0.78943 123.36 8.1391 3.6604 3.8983 3.8544 4.7942 5.3046 24.501 1.6402 22.289 1.7939 40.155 1.0645 123.68-0.26527 30.372-0.97019 56.924-1.5665 59.003-0.59631 2.0792-2.0602 4.7564-3.2531 5.9492-1.2452 1.2452-1.7964 3.0894-1.2942 4.3303 1.7852 4.411 2.2304 11.828 0.76435 12.734-0.81714 0.50503-1.4857 2.6094-1.4857 4.6763 0 2.0669-0.89416 4.5002-1.987 5.4072-2.9612 2.4576-19.341 3.5098-20.689 1.329-0.86237-1.3953-2.207-1.4225-6.8649-0.13857-3.1858 0.87815-13.592 1.8542-23.126 2.1689-9.5333 0.31476-24.833 1.1717-34 1.9044-19.004 1.5188-30.786 1.5234-41.333 0.016zm26.627-9.9149c5.321-2.7516 12.174-11.56 18.131-23.305l5.0468-9.9505-2.285-8.7161c-2.8847-11.004-4.2192-12.427-10.075-10.748-7.8796 2.2598-10.595 6.0794-17.087 24.032-3.8495 10.646-7.4324 26.345-6.5419 28.665 0.99316 2.5881 7.8269 2.6 12.812 0.0223zm40.92-1.6874c3.1337-3.3601 3.3559-4.3603 2.6567-11.962-0.75933-8.2559-3.8197-16.371-6.1739-16.371-2.0225 0-8.9548 10.977-10.541 16.692-2.4977 8.9968-2.0129 10.805 3.5116 13.096 6.6459 2.7566 6.6148 2.7609 10.547-1.4554zm27.49-7.0049c1.868-1.4694 4.9489-5.7872 6.8465-9.5951 3.7858-7.597 4.2912-14.841 1.5631-22.4-1.3998-3.8788-2.3394-4.6667-5.5652-4.6667-3.24 0-3.8878 0.55056-3.9218 3.3333-0.0539 4.3985-1.7679 12.719-3.983 19.333-2.1738 6.4916-3.3879 14.811-2.3175 15.881 1.4477 1.4477 3.9548 0.80689 7.378-1.8858zm-29.078-35.166c1.7437-1.7437 3.9316-5.7112 4.8621-8.8168 1.4156-4.7247 1.3778-6.203-0.23098-9.056-2.78-4.9301-4.4131-4.9488-9.9202-0.11347-4.8547 4.2625-4.9036 4.4063-3.9921 11.736 0.50755 4.0814 1.1983 7.8706 1.5349 8.4206 1.1811 1.9295 4.6061 0.96986 7.7463-2.1704zm-10.031-70.928c2.1404-4.3325 3.6636-33.222 2.1712-41.178-0.66445-3.5418-1.5542-4.7236-3.5564-4.7236-2.6387 0-9.0795 6.0853-9.173 8.6667-0.0265 0.73333-1.8867 6.0597-4.1336 11.836-3.6261 9.3223-3.902 10.971-2.4542 14.667 1.9194 4.8995 11.856 15.723 13.843 15.079 0.75643-0.24517 2.2427-2.2015 3.3028-4.3473zm3.1115-79.232c0.72296-2.79 0.59237-7.5382-0.34588-12.576-0.82906-4.4515-1.6938-9.4633-1.9217-11.137-0.5655-4.1543-1.8206-5.1219-4.4734-3.4486-3.0376 1.9161-4.7622 8.875-4.561 18.404 0.14651 6.9377 0.62439 8.2856 3.8817 10.949 4.6631 3.8127 5.9641 3.4285 7.4203-2.191zm43.371-4.3697c0.53462-6.2997-4.2352-14.221-8.5985-14.279-2.5598-0.03433-3.2531 6.1334-1.1441 10.177 1.0907 2.0913 1.9868 4.5226 1.9913 5.4028 9e-3 1.8578 4.0542 4.4968 6.0082 3.9202 0.73333-0.21638 1.5177-2.5657 1.743-5.2208zm-119.64-13.02c1.9771-1.0581 2.3923-2.2428 1.7524-5-1.7245-7.4305-8.5596-9.2858-11.152-3.0271-1.829 4.4156-1.0648 6.4077 3.1031 8.0894 3.7578 1.5162 3.3395 1.5203 6.2966-0.06227zm-8.5784 201.11c-1.1455-4.2762-1.0543-11.699 0.14536-11.832 0.55-0.0611 2.3772-0.26284 4.0604-0.44829 3.9132-0.43115 14.817-11.072 15.822-15.441 0.42165-1.8333 2.325-6.0333 4.2296-9.3333 4.7056-8.1528 5.5615-3.7217 1.0255 5.3092-1.8569 3.6971-4.0089 9.0714-4.7821 11.943-1.0051 3.7327-3.0101 6.4008-7.0334 9.3595-3.0951 2.2762-6.5337 6.0261-7.6413 8.3332-2.5251 5.2595-4.7648 6.0705-5.8259 2.1096zm-5.3401-25.907c-0.46635-3.4024-0.8479-8.5235-0.8479-11.38 0-4.781 0.21212-5.0806 2.6667-3.767 1.7065 0.91328 2.6667 2.7918 2.6667 5.217 0 2.0844 0.9 4.5368 2 5.4497s2 2.1555 2 2.7612c0 1.2103-5.9044 7.9054-6.9717 7.9054-0.36623 0-1.0474-2.7838-1.5138-6.1861zm2.1784-17.51c-4.156-3.2196-5.0949-9.5708-2.5494-17.245 1.1661-3.5155 2.5-9.9919 2.9642-14.392l0.84413-8 2 5c2.172 5.43 4.7688 6.2694 8.618 2.7859 3.8144-3.452 4.5013-0.99525 1.4604 5.2235-1.5215 3.1115-3.5214 10.157-4.4442 15.657-1.5703 9.3596-3.104 13.374-5.0827 13.304-0.46021-0.0163-2.1749-1.0663-3.8104-2.3333zm30.307-9.5583c0-3.2194 0.74148-3.5442 1.7991-0.78807 0.4131 1.0765 0.1773 2.3119-0.52401 2.7454-0.70131 0.43344-1.2751-0.44734-1.2751-1.9573zm-121.33-5.3252c0-2.8856 0.66608-6.9356 1.4802-9 1.3753-3.4876 1.5576-3.5646 2.573-1.0868 1.6619 4.0554 1.4784 11.935-0.3198 13.733-2.7475 2.7475-3.7333 1.7845-3.7333-3.6465zm64.912 4.2465c-0.31818-0.55-0.0958-2.2 0.49426-3.6667 0.93654-2.328 1.0847-2.201 1.1665 1 0.0925 3.6173-0.53133 4.619-1.6608 2.6667zm-63.579-48.255c0-3.2194 0.74148-3.5442 1.7991-0.78807 0.4131 1.0765 0.17729 2.3119-0.52401 2.7454-0.70131 0.43344-1.2751-0.44735-1.2751-1.9573z" fill="#513326"/>
  <path d="m173.33 283.48c0-1.2648 3.9912-1.9023 4.7027-0.7511 0.43344 0.70131-0.44735 1.2751-1.9573 1.2751-1.5099 0-2.7454-0.23581-2.7454-0.52401zm-22.222-2.9082c-0.5132-1.3374 1.0823-4.1189 4.3976-7.6667 5.6297-6.0245 8.6588-11.689 10.998-20.568 3.2962-12.509 4.6382-16.333 5.732-16.333 0.62994 0 0.83875 1.35 0.46404 3-2.4874 10.953-3.1168 14.997-2.4915 16.009 0.39168 0.63375 0.1128 2.766-0.61982 4.7385-0.73257 1.9724-2.6656 7.9362-4.2956 13.253l-2.9637 9.6667h-5.208c-3.5084 0-5.4708-0.68496-6.0134-2.0989zm39.222-2.9301c-3.6064-0.77259-2.8277-3.114 3.4344-10.327 3.1722-3.6541 7.3986-9.6669 9.3918-13.362 1.9932-3.695 5.0762-8.495 6.851-10.667 3.0193-3.6945 3.23-3.7606 3.2748-1.0272 0.0264 1.6067-0.50392 3.2624-1.1784 3.6792-2.2214 1.3729-8.107 13.009-8.107 16.027 0 1.6273-1.146 3.9959-2.5468 5.2635-1.4007 1.2676-2.8784 3.6106-3.2838 5.2067-0.87484 3.4442-4.5775 5.9043-7.8361 5.2062zm37.008-0.29068c-0.3818-0.61776-0.0868-2.7206 0.6554-4.6729 1.1997-3.1555 1.8301-3.447 5.6762-2.6255 7.2594 1.5506 8.5367 2.7217 5.0206 4.6035-4.7714 2.5536-10.586 3.934-11.352 2.695zm22.051-3.0137c0.0328-0.91666 2.8064-4.6667 6.1636-8.3333 4.4416-4.8512 5.9152-5.863 5.4112-3.7157-0.39216 1.671 0.1152 3.6214 1.1698 4.4966 2.8489 2.3643 2.3484 3.1182-4.1733 6.2867-6.9099 3.3571-8.6555 3.6149-8.5712 1.2657zm-144.06-5.6933c0-1.1235 4.58-5.9734 5.641-5.9734 1.5057 0-1.9239 5.1566-3.9456 5.9324-0.93244 0.3578-1.6954 0.37625-1.6954 0.041zm126.42-7.6351c-1.156-0.91941-2.5017-3.4717-2.9906-5.6717s-2.1456-7.0883-3.6817-10.863l-2.7929-6.8628 2.946-4.1372c1.6203-2.2755 3.5051-4.1372 4.1885-4.1372 0.6834 0 1.2426-2.2666 1.2426-5.037 0-3.387 0.87352-5.785 2.6667-7.3203 2.7482-2.3531 3.6336-6.3094 1.412-6.3094-0.69005 0-1.663 0.6607-2.1621 1.4682-0.53333 0.86296-2.0927-0.64863-3.7826-3.6667-1.8735-3.346-4.3493-5.6156-7.1066-6.5147-6.0698-1.9792-6.3608-2.7682-1.7706-4.8 4.1169-1.8223 5.2876-5.7796 3.2672-11.044-1.1303-2.9454-3.1907-2.6361-3.1907 0.47892 0 2.9286-0.53189 3.3591-5.6667 4.5864l-3.6667 0.87641v-9.4868c0-11.428 3.2671-23.897 6.2613-23.897 1.6121 0 1.886-0.9302 1.2339-4.1909-0.461-2.305-0.25395-4.8948 0.4601-5.7552 0.84643-1.0199 0.78935-3.3898-0.164-6.8091-0.89154-3.1977-1.161-10.655-0.69046-19.107 0.80897-14.529-0.93027-22.805-4.7928-22.805-2.127 0-12.975 8.9719-12.975 10.731 0 0.65446-1.5 4.4693-3.3333 8.4773-1.8333 4.0081-3.3333 8.2548-3.3333 9.4373 0 1.1824-1.2028 4.6394-2.6729 7.6822-2.9593 6.1251-2.7958 7.1998 2.8863 18.968 2.1146 4.3796 3.5974 8.5796 3.2954 9.3333-0.30209 0.75378-2.735 2.5257-5.4064 3.9376l-4.8572 2.567-2.2892-3.224c-1.2591-1.7732-3.8625-6.7384-5.7854-11.034-2.9393-6.5658-3.2946-8.5849-2.2306-12.676 4.6446-17.86 6.1818-39.295 3.4933-48.712-1.9292-6.7574-3.4225-8.8214-6.3825-8.8214-3.0794 0-5.3841-5.4772-5.3841-12.796 0-6.6292-2.7262-13.097-6.0597-14.376-1.1871-0.45553-3.9093-0.82824-6.0493-0.82824-3.4383 0-3.891 0.46746-3.891 4.0181 0 2.21 0.6 5.21 1.3333 6.6667 0.73334 1.4567 1.9104 3.8037 2.6157 5.2155 2.0066 4.0167 0.14295 15.891-2.6323 16.772-1.2757 0.40489-3.9917 4.4693-6.0356 9.0321-2.0439 4.5628-4.5536 8.9138-5.5773 9.6689-1.4666 1.0819-1.5517 2.187-0.40139 5.2125 0.80288 2.1118 1.3404 4.7939 1.1945 5.9604-0.14593 1.1664 0.20057 4.3774 0.76999 7.1354 0.7352 3.561 0.50836 5.6427-0.78248 7.1814-0.99979 1.1917-2.7554 4.5321-3.9012 7.4231-1.7775 4.4844-2.3284 4.9612-3.7513 3.2466-1.353-1.6303-1.1025-3.8523 1.3271-11.771 1.6472-5.3688 2.8065-10.361 2.5762-11.095-0.23032-0.73333-0.54732-4.9333-0.70444-9.3333s-0.76903-12.092-1.3598-17.094c-1.0084-8.5374-1.2568-9.0481-4.0586-8.3449-1.8692 0.46915-5.2816-0.53482-9.1318-2.6867-6.1274-3.4247-7.3038-5.0023-4.8576-6.5141 2.7824-1.7196-1.4825-16.491-5.9818-20.718-2.7499-2.5834-3.7952-2.8487-6.4532-1.6376-4.06 1.8498-11.065-2.0551-12.265-6.8373-1.2107-4.8238-6.724-9.6028-8.9485-7.7566-3.0982 2.5712-22.308-0.03833-22.308-3.0305 0-3.7867 10.725-8.1569 14.742-6.007 1.6198 0.86691 2.8006 0.64703 3.9477-0.73512 1.4163-1.7065 14.378-1.972 96.292-1.972 93.605 0 94.71 0.03099 99.624 2.7923 2.7326 1.5358 5.9832 4.5105 7.2237 6.6104 2.1127 3.5765 2.1146 4.3911 0.03 12.874-1.7203 7.001-2.3159 16.924-2.6245 43.723-0.47452 41.215-0.97647 55.329-1.9678 55.332-0.40333 9.7e-4 -1.4494-0.71428-2.3246-1.5894-2.0973-2.0973-9.6088 4.8658-9.6088 8.9073 0 1.5495-0.61967 3.4369-1.377 4.1942-1.936 1.936-0.14054 5.823 2.6898 5.823 1.2984 0 3.1317-0.92896 4.074-2.0643 0.94229-1.1354 2.9658-1.8854 4.4966-1.6667 2.4568 0.35103 2.8095 1.3819 3.0062 8.7864 0.22109 8.3208 0.19047 8.3952-3.7813 9.1896-2.2023 0.44047-4.2913 1.5492-4.6423 2.4639-0.36343 0.94707-1.826 1.3524-3.3972 0.94156-1.9722-0.51573-2.5767-0.18851-2.1196 1.1474 0.43213 1.263 2.4322 1.7822 6.1697 1.6017 4.845-0.23405 5.6308 0.13336 6.3416 2.9652 0.50434 2.0094-0.24902 5.4226-1.9912 9.0215-1.5414 3.184-2.8025 6.173-2.8025 6.6423 0 0.46923-1.5 3.0635-3.3333 5.7651-5.653 8.3302-3.6532 13.849 5.742 15.847 3.9761 0.84555 4.3686 1.3466 4 5.1058-0.29826 3.0421-1.6695 5.0065-5.0753 7.2707-2.5667 1.7064-5.7056 4.9954-6.9753 7.3091-2.4645 4.4905-6.358 7.5436-6.358 4.9855 0-0.81799 0.63384-2.6716 1.4085-4.1191 1.9486-3.641-1.8549-23.636-5.0537-26.567-1.2952-1.1867-5.0548-3.2965-8.3548-4.6884s-6.4184-3.1316-6.9298-3.8659c-1.8643-2.6772-7.4367 4.612-8.391 10.976-0.509 3.3943-1.8762 6.8666-3.0381 7.7162-1.719 1.257-1.8431 2.2614-0.66604 5.3903 0.79566 2.115 2.1904 7.6268 3.0995 12.248 1.7794 9.0468 0.75043 12.241-2.9862 9.2686zm34.535-50.091c-0.36315-3.2218-2.0464-7.7328-3.7406-10.024-3.4203-4.6262-3.5913-8.7261-0.55722-13.357 1.1095-1.6934 1.6363-3.4598 1.1707-3.9255-1.2861-1.2861-5.8294 1.5674-5.8294 3.6613 0 1.0127-2.4 4.415-5.3333 7.5608-2.9333 3.1457-5.3333 7.0606-5.3333 8.6998 0 1.6392-0.6909 3.4073-1.5353 3.9292-1.9785 1.2228 2.346 4.5418 5.9177 4.5418 2.5327 0 10.536 4.9133 11.414 7.0075 0.25464 0.6071 1.3684 0.35236 2.4751-0.56606 1.4506-1.2039 1.8278-3.3045 1.3518-7.5278zm-11.028-58.2c-3.3148-2.5069-4.595-2.5386-4.595-0.11366 0 2.5626 4.2722 4.9562 5.9283 3.3216 0.78995-0.77969 0.29141-1.9791-1.3333-3.2079zm5.4142-6.0053c-0.58404-2.6591-0.22983-3.928 1.2556-4.498 1.8078-0.6937 1.7152-1.473-0.73248-6.169-1.5409-2.9563-3.191-5.356-3.667-5.3326-2.026 0.0993-5.532 3.757-5.532 5.7712 0 2.5588 2.7732 2.8798 5.0667 0.58635 1.2444-1.2444 1.6-0.92042 1.6 1.4582 0 1.9368-0.97779 3.3138-2.6667 3.7555-3.436 0.89854-3.3631 2.2316 0.33333 6.092 3.7085 3.8729 5.415 3.2192 4.3426-1.6635zm-44.148-72.611c-0.11493-15.83-0.5685-19.954-2.6667-24.242-4.9941-10.208-12.627-9.911-14.441 0.56144-2.8549 16.477-3.0311 24.791-0.64002 30.189 2.757 6.2238 7.1928 11.394 9.775 11.394 0.98164 0 2.5528 0.92543 3.4915 2.0565 3.5628 4.2928 4.6231-0.42957 4.4814-19.959zm43.472 16.616c0-1.4409 1.2-3.262 2.6667-4.0469 3.8941-2.084 3.3822-8.2843-1.4292-17.311-4.6667-8.7556-12.198-16.706-14.858-15.686-1.9398 0.74436-6.3799 13.38-6.3799 18.156 0 1.6086 0.9 3.27 2 3.6921 1.1 0.42211 2 2.2954 2 4.163 0 2.2745 1.834 5.0886 5.5552 8.524 6.1198 5.6498 10.445 6.6886 10.445 2.5088zm-117.55-23.177c3.7407-7.8047-0.62452-16.255-11.708-22.666-4.207-2.4333-4.2662-2.4293-4.9887 0.33333-0.40212 1.5377-1.5612 2.7958-2.5756 2.7958-4.2309 0 0.39597 10.745 7.8924 18.328 6.3128 6.386 8.7735 6.6474 11.38 1.209zm58.494 151.09c-1.821-2.1267-2.8613-2.4112-4.8753-1.3333-3.0999 1.659-5.7891 1.7865-5.1802 0.24555 0.24444-0.61861 3.5657-4.6686 7.3805-9s8.1937-9.3752 9.7307-11.209l2.7946-3.3333-0.78997 4.1209c-0.54649 2.8507-0.15527 4.6476 1.2693 5.8299 1.1326 0.93999 2.0593 2.3018 2.0593 3.0262 0 1.679-8.1784 14.356-9.2616 14.356-0.44685 0-1.8542-1.2166-3.1274-2.7036zm-73.567-4.375c-2.1619-3.2994-2.1166-3.6232 1.1874-8.4854l3.435-5.055-0.0204 6.6428c-0.0277 8.9979-1.6412 11.416-4.602 6.8976zm41.613-105.15c-4.7617-7.3437-5.1536-16.404-0.75922-17.553 3.9352-1.0291 5.1019-0.05513 5.1019 4.2589 0 2.0101 0.49396 4.2246 1.0977 4.9213 0.60373 0.69667 0.44951 4.1347-0.34272 7.6402l-1.4404 6.3735z" fill="#46291b"/>
  <path d="m232.08 171.47c-2.5224-0.9114-4.7722-2.2158-4.9997-2.8986-0.4864-1.4603 8.2762-1.6623 9.7145-0.22394 0.54036 0.54036 2.2325 1.0015 3.7602 1.0249 2.7291 0.0416 2.7324 0.0767 0.1896 2-2.9916 2.2628-2.6822 2.2593-8.6647 0.0976zm-6.9358-42.827-3.522-1.9134-0.96508-23.165c-0.5308-12.741-0.55548-24.456-0.0549-26.033 1.0602-3.3402 3.6986-3.7179 6.0639-0.86786 0.91292 1.1 2.3364 2.0062 3.1632 2.0139 0.82688 0.0076 3.2088 3.6783 5.2932 8.157 2.2492 4.8329 4.8237 8.4135 6.3333 8.8083 2.8164 0.73651 3.1494 2.5872 1.3277 7.3786-0.66875 1.759-0.71256 4.0125-0.0973 5.008 1.2426 2.0106-1.9353 9.3009-4.0543 9.3009-0.71451 0-1.2991-1.2-1.2991-2.6667 0-1.7508-0.88889-2.6667-2.588-2.6667-3.3136 0-4.6754 2.1679-5.0254 8-0.24752 4.1242-0.87613 10.758-1.0056 10.613-0.0261-0.0294-1.6325-0.9144-3.5696-1.9668zm-37.35-25.647c-4.7314-11.714-9.6987-20.576-13.172-23.498-3.211-2.7019-3.957-4.3678-3.957-8.8366 0-6.4951-1.7227-10.264-6.5045-14.232-2.7677-2.2966-3.1558-3.2471-1.8637-4.5652 1.2907-1.3167 0.80296-3.1135-2.3333-8.5952-2.1809-3.8117-3.9652-8.2715-3.9652-9.9106 0-2.9766 0.0247-2.9796 20.6-2.5044 14.512 0.33518 21.109 0.9848 22.322 2.198 1.2264 1.2264 1.2973 1.9941 0.24632 2.6667-0.81169 0.51946-1.8782 2.2348-2.37 3.8119-1.4548 4.6652-10.132 5.7075-10.132 1.2171 0-3.1666-3.3494-4.6892-8.4829-3.8561-4.7678 0.7737-4.9429 0.98588-4.0913 4.9566 0.48935 2.2816 1.5394 5.3483 2.3334 6.8149 0.79404 1.4667 1.6398 3.8514 1.8796 5.2993 0.23971 1.448 2.0105 4.2763 3.9351 6.2851 2.6418 2.7574 3.1427 4.0821 2.0443 5.4057-2.2174 2.6718 2.7612 13.01 6.2652 13.01 1.9585 0 3.0592 1.3467 4.0868 5 0.77349 2.75 2.2966 6.1647 3.3847 7.5882 1.0881 1.4235 1.9784 3.3935 1.9784 4.3778 0 1.7078-8.4388 11.034-9.9842 11.034-0.40682 0-1.4061-1.65-2.2206-3.6667zm-41.196-17.921c-0.0368-0.22661-0.29015-2.9967-0.56283-6.1558-0.41825-4.8455-0.19925-5.4976 1.4004-4.1701 2.169 1.8001 2.5595 8.6798 0.56283 9.9138-0.73333 0.45322-1.3635 0.63863-1.4004 0.41202zm-23.074-16.866c-1.3284-1.4678-2.192-4.0522-1.9278-5.769 0.45162-2.9345 0.61268-2.8604 2.8548 1.3138 2.9085 5.4148 2.3538 8.0805-0.92704 4.4552zm132.51-11.321c-5.2359-6.9659-10.34-12.98-11.342-13.364-1.0082-0.38686-2.7736 0.75368-3.9531 2.5538-1.3218 2.0172-3.4018 3.2529-5.4758 3.2529-3.3934 0-3.7452 0.47587-5.1748 7-0.54684 2.4956-1.647 3.6667-3.4447 3.6667-1.4589 0-2.6413 0.8953-2.6413 2 0 1.1-0.82271 2-1.8282 2-1.1907 0-2.1413-2.36-2.726-6.7679-0.49379-3.7223-2.0711-9.7445-3.5051-13.383-3.428-8.697-3.3361-11.626 0.39268-12.51 1.65-0.39113 15-0.51483 29.667-0.27488 36.423 0.59588 38.297 1.6392 33.138 18.449-1.2075 3.9342-3.4224 8.2424-4.9222 9.5737s-4.0628 4.2315-5.6958 6.4448l-2.9689 4.0242zm-139.15-1.5339c-1.0869-1.0869-2.2298-2.7369-2.5397-3.6667-0.35914-1.0774-3.0894-1.6905-7.5286-1.6905-5.832 0-7.3973-0.54228-9.6221-3.3333-4.6983-5.8942-9.4024-13.566-8.7304-14.238 1.3709-1.3709 11.631-2.051 17.551-1.1633 8.7879 1.3178 11.822 4.7522 10.716 12.129-0.6141 4.0951-0.25123 6.9925 1.2359 9.8684 2.3083 4.4637 1.9602 5.1374-1.0823 2.095zm22.399-7.7591c-2.9624-2.3456-6.8256-5.6147-8.5848-7.2647-1.7592-1.65-3.7271-3-4.3731-3s-0.98293-1.35-0.74859-3c0.33214-2.3386 1.4352-3.0961 5.0032-3.436 12.011-1.1442 16.315 2.4434 16.917 14.103 0.42832 8.2968-0.60372 8.6233-8.2134 2.5981z" fill="#3a2015"/>
 </g>
</svg>
