<svg width="328" height="320" version="1.1" viewBox="0 0 328 320" xmlns="http://www.w3.org/2000/svg">
 <g transform="translate(1.474 14.74)" stroke-width="1.3333">
  <path d="m142 306.52c-29.54-4.2568-58.387-18.214-80.117-38.763-32.728-30.949-49.508-73.395-46.608-117.9 1.656-25.412 5.2984-36.473 20.3-61.643 6.1932-10.391 9.6139-14.355 20.709-24 17.251-14.996 34.883-26.836 57.284-38.469 21.602-11.218 28.779-12.907 55.099-12.967l18.667-0.04281 19.333 6.8124c10.633 3.7468 22.333 8.4898 26 10.54 16.251 9.0859 34.289 24.674 51.225 44.264 9.7417 11.269 10.108 11.848 15.542 24.543 20.162 47.107 15.227 102.54-12.805 143.82-7.4263 10.936-23.541 27.741-34.561 36.043-30.06 22.644-72.055 33.235-110.07 27.757z" fill="#d8c3ba"/>
  <path d="m140.67 305.26c-55.118-8.6052-100.66-47.778-117.72-101.26-9.7129-30.448-8.7562-69.369 2.3076-93.884 9.4608-20.963 19.444-34.458 36.088-48.783 10.215-8.7919 36.699-26.342 46.406-30.752 4.6295-2.1031 11.829-5.8608 16-8.3504 9.6106-5.737 23.051-8.1546 45.583-8.1987 16.474-0.03225 16.89 0.04293 36 6.5018 20.094 6.7916 29.368 11.253 40.667 19.565 9.1699 6.7457 23.305 19.481 28.747 25.901 2.4868 2.9333 7.5806 8.7037 11.319 12.823 7.879 8.6805 14.978 23.957 20.307 43.698 3.1274 11.585 3.4564 15.113 3.4325 36.813-0.0241 21.85-0.34904 25.194-3.6285 37.333-4.3258 16.012-15.559 39.394-24.707 51.429-8.3451 10.978-23.899 25.832-34.805 33.238-12.306 8.3571-31.51 17.012-46.296 20.865-10.351 2.6976-17.018 3.4917-32.37 3.8556-10.633 0.25205-22.933-0.10374-27.333-0.79072z" fill="#cdaca0"/>
  <path d="m144.67 305.16c-24.83-3.1015-54.435-15.671-73.957-31.4-38.105-30.702-57.562-77.445-53.102-127.57 1.9731-22.174 6.6066-35.937 18.518-55.002 14.246-22.803 38.084-42.39 73.875-60.7 7.3333-3.7517 14.833-7.8633 16.667-9.1369 5.341-3.7104 20.496-5.8542 42-5.9411l20-0.08082 18 6.1769c29.702 10.192 46.626 21.716 70.734 48.161 15.649 17.166 20.223 25.488 27.154 49.408 11.659 40.233 4.8316 85.896-18.1 121.06-30.548 46.84-85.526 72.054-141.79 65.026zm-22-258.5c0-0.73333-0.6-1.3333-1.3333-1.3333-0.73333 0-1.3333 0.6-1.3333 1.3333 0 0.73333 0.6 1.3333 1.3333 1.3333 0.73334 0 1.3333-0.6 1.3333-1.3333z" fill="#b49a8c"/>
  <path d="m136.44 303.36c-65.085-11.809-114.69-67.238-118.59-132.52-0.91456-15.293 1.0173-38.246 4.0705-48.363 2.5475-8.4416 10.081-23.89 17.139-35.145 6.0551-9.656 25.38-28.072 38.943-37.111 13.651-9.0979 24.144-15.388 28.945-17.351 2.7195-1.1123 9.2394-4.5306 14.489-7.5964 12.408-7.2468 22.676-9.4185 45.9-9.7085l18.667-0.23311 19.333 6.5213c33.05 11.148 45.141 19.683 77.785 54.909 12.622 13.62 22 37.892 25.657 66.408 1.9047 14.849 1.9032 17.775-0.0164 32.53-4.458 34.267-16.551 60.771-38.058 83.413-11.28 11.875-19.729 18.568-34.62 27.425-11.924 7.0924-34.164 15.129-48.081 17.375-11.671 1.8834-39.784 1.58-51.559-0.55641zm-19.861-225.99c3.7813-1.4376 4.5663-5.0102 1.3705-6.2366-2.3212-0.89071-7.2837 3.0225-7.2837 5.7435 0 2.1316 1.315 2.2413 5.9132 0.49302zm-2.3775-25.459c8.6193 0.2221 11.948-0.27058 16.084-2.3802 3.4713-1.7709 5.8552-2.2549 7.131-1.4477 2.9645 1.8758 10.954 1.3924 13.91-0.8416 4.0686-3.0746 0.21795-4.861-8.4869-3.9372-4.5618 0.48411-7.8392 0.19615-9.0317-0.79355-2.7974-2.3216-34.281 2.4318-38.598 5.8276-4.9721 3.9111-4.0661 5.5047 2.4566 4.3209 3.1167-0.56561 10.558-0.90235 16.536-0.74831z" fill="#aa8870"/>
  <path d="m141.05 303.94c-12.454-1.7328-33.06-8.518-45.671-15.038-37.385-19.33-64.713-54.522-74.207-95.563-4.3437-18.776-3.8944-49.718 0.99698-68.667 3.0809-11.935 14.105-33.285 23.308-45.14 4.4244-5.6994 29.784-27.004 36.934-31.028 3.4393-1.9358 8.7905-5.2681 11.891-7.405 3.101-2.1369 8.2954-5.0608 11.543-6.4974 3.2478-1.4366 9.9764-5.0855 14.952-8.1085 12.013-7.2982 21.708-9.2644 47.2-9.572l20.667-0.24939 16.893 5.6818c29.196 9.8196 41.868 18.009 66.006 42.655 17.39 17.757 22.9 26.176 29.255 44.7 13.534 39.453 10.574 82.028-8.2193 118.22-18.551 35.729-52.062 62.241-91.981 72.772-14.992 3.9549-43.337 5.4953-59.567 3.237zm-64.587-168.24c0.44399-1.6978-0.13137-4.356-1.3432-6.2054-1.8155-2.7707-2.2887-2.9337-3.2955-1.1347-0.64658 1.1554-0.91676 3.4978-0.60039 5.2054 0.31636 1.7076 0.61979 3.5548 0.67429 4.1048 0.22977 2.319 3.8519 0.75572 4.5648-1.9701zm30.201-41.401c12.245-3.3726 25.333-14.506 25.333-21.55 0-1.1295 2.7-4.5944 6-7.6998 3.3-3.1054 6-6.39 6-7.2991 0-3.0227 5.2375-4.5191 18.685-5.3384 14.474-0.8818 16.084-2.0368 9.7647-7.0072-4.4272-3.4824-5.5052-3.7102-25.117-5.3056-13.964-1.136-18.279-0.94331-33.91 1.5143l-17.91 2.8159-7.5444 6.7871c-4.1494 3.7329-10.476 8.8871-14.058 11.454-12.232 8.7636-5.9044 10.8 8.0761 2.5989 12.411-7.2804 22.166-10.623 28.162-9.6497 2.6122 0.4239 5.0591 1.5776 5.4375 2.5638 0.38595 1.0058-3.2272 6.022-8.2286 11.424-12.23 13.21-15.797 20.434-11.975 24.256 2.5502 2.5502 3.4788 2.5861 11.283 0.43652zm43.333-34.296c-0.45323-0.73333-1.724-1.3333-2.824-1.3333s-1.6292 0.6-1.176 1.3333 1.724 1.3333 2.824 1.3333 1.6292-0.6 1.176-1.3333z" fill="#a37c64"/>
  <path d="m142 304.01c-47.205-6.9029-88.612-36.851-109.26-79.024-12.253-25.023-16.282-49.399-13.269-80.29 1.9744-20.245 3.1142-24.337 11.093-39.82 9.2981-18.044 17.969-29.486 28.079-37.055 2.5819-1.9328 6.8365-5.5799 9.4548-8.1045 6.5186-6.2854 16.562-13.048 19.379-13.048 3.5661 0-2.7318 6.2108-10.139 9.9991-3.3 1.6877-8.5139 5.0783-11.587 7.5347-5.3778 4.2993-12.413 13.264-12.413 15.816 0 0.67735-1.5168 2.0263-3.3707 2.9976-4.8255 2.5283-12.629 14.034-12.629 18.62 0 5.0366 1.1613 4.2511 13.258-8.9676 15.384-16.811 44.409-35.333 55.368-35.333 7.9345 0 7.4498 3.1355-1.939 12.544-4.5857 4.5951-8.9663 9.5026-9.7347 10.906-0.76844 1.4029-3.397 5.0126-5.8413 8.0214-3.1613 3.8915-4.4442 6.8272-4.4442 10.17 0 6.8861 2.0503 7.8113 10.667 4.8133 8.6872-3.0227 10.619-3.5498 13.506-3.6853 4.8196-0.22627 26.494-18.671 26.494-22.546 0-1.0275 2.4007-4.1979 5.3348-7.0454 3.7892-3.6773 6.4934-5.1773 9.3333-5.1773 4.0677 0 10.019-4.4758 8.7285-6.5642-1.4144-2.2885 3.036-4.0621 12.369-4.9295 10.066-0.93556 11.033-1.8206 7.4991-6.8659-3.5886-5.1235-7.4298-6.2055-27.265-7.6798-15.125-1.1243-21.8-1.0579-30.667 0.30494-6.2333 0.95809-14.333 2.1296-18 2.6034-6.5999 0.85281-6.6429 0.8346-4.2938-1.819 1.3051-1.4743 4.9051-3.7723 8-5.1066 3.0949-1.3344 9.8272-4.9507 14.96-8.0362 6.4682-3.8879 12.403-6.2249 19.333-7.6129 15.974-3.1994 41.806-3.63 51.333-0.85574 16.81 4.8952 31.636 10.126 38.667 13.641 8.5462 4.2734 26.038 16.847 34.456 24.767 11.325 10.657 26.426 29.594 30.096 37.743 20.031 44.483 19.308 91.541-2.0464 133.08-18.242 35.483-51.971 62.169-91.885 72.698-10.513 2.7734-17.183 3.6069-31.953 3.9931-10.267 0.2684-22.267-0.0384-26.667-0.68187zm-62.615-160.11c2.7062-5.2333 4.2314-21.822 2.1259-23.124-0.831-0.51359-1.5109-2.3984-1.5109-4.1884 0-4.7957-3.4767-4.0916-9.4902 1.9218-5.0334 5.0334-5.1765 5.4361-5.1765 14.57 0 8.5598 0.31179 9.6387 3.5131 12.157 4.917 3.8677 8.053 3.4699 10.539-1.3366z" fill="#9a7863"/>
  <path d="m150.67 304.44c-52.759-5.31-94.946-33.969-117.43-79.77-3.5995-7.3333-8.1754-18.733-10.169-25.333-3.4218-11.33-3.6208-13.452-3.5649-38 0.07051-30.948 1.3808-37.688 10.931-56.22 9.4263-18.293 18.046-29.691 28.203-37.295 2.5819-1.9328 6.8365-5.5799 9.4548-8.1045 6.5186-6.2854 16.562-13.048 19.379-13.048 3.5661 0-2.7318 6.2108-10.139 9.9991-3.3 1.6877-8.5139 5.0783-11.587 7.5347-5.3778 4.2993-12.413 13.264-12.413 15.816 0 0.67735-1.5168 2.0263-3.3707 2.9976-4.1298 2.1638-12.629 13.839-12.629 17.348 0 1.4078-0.8579 4.1522-1.9064 6.0986-1.0485 1.9465-2.5403 5.6391-3.315 8.2057-1.2855 4.2588-1.2354 4.4405 0.57311 2.0785 1.0899-1.4235 1.9817-3.1394 1.9817-3.813 0-0.67369 3-4.5074 6.6667-8.5193 3.6667-4.0119 6.6667-7.846 6.6667-8.5203s0.75836-1.2259 1.6852-1.2259 3.172-2.4056 4.9892-5.3458c1.8172-2.9402 4.3594-5.6808 5.6495-6.0903 1.2901-0.40946 2.9661-1.9038 3.7244-3.3208 0.75836-1.417 2.0511-2.5764 2.8727-2.5764 0.82165 0 3.3505-1.3984 5.6198-3.1076 13.824-10.412 29.401-16.692 33.667-13.572 2.0844 1.5241 1.6166 2.4094-5.0262 9.5134-4.0285 4.3081-8.4205 9.5812-9.7601 11.718-1.3396 2.1368-4.6742 6.3368-7.4102 9.3333-2.736 2.9966-5.728 7.8483-6.6489 10.782-0.92086 2.9333-3.6748 7.4333-6.1198 10-8.6178 9.0464-10.971 21.93-6.0027 32.871 4.1062 9.0432 11.159 9.4014 15.399 0.782 2.1307-4.331 3.0677-12.745 3.3444-30.034 0.0092-0.57606 2.5753-2.1441 5.7023-3.4845 3.1271-1.3404 6.5005-3.4191 7.4966-4.6193 0.99607-1.2002 3.6876-2.226 5.9811-2.2796s5.9701-1.247 8.1701-2.652 8.4392-4.7503 13.865-7.434c5.4256-2.6837 10.878-5.8403 12.117-7.0147 1.2387-1.1744 3.3996-2.808 4.8019-3.6303 1.6658-0.9768 2.588-3.0569 2.6603-6 0.14613-5.949 1.6755-9.1679 4.3653-9.1876 1.2049-0.0088 4.6452-1.4198 7.6453-3.1356 3-1.7157 6.9783-3.5019 8.8407-3.9694 1.8624-0.46742 3.6928-2.0228 4.0677-3.4564 0.54889-2.0989 2.0526-2.686 7.7212-3.0146 3.8718-0.22441 7.2511-1.0512 7.5096-1.8372 0.64551-1.9625-8.4347-11.1-12.746-12.827-7.2476-2.9026-45.669-3.2309-59.514-0.50848-5.8667 1.1536-12.11 2.0975-13.873 2.0976-3.0427 2.16e-4 -3.0918-0.12669-0.96048-2.4818 1.2354-1.3651 4.7784-3.5738 7.8733-4.9082 3.0949-1.3344 9.8272-4.9507 14.96-8.0362 9.5466-5.7382 24.361-9.9779 34-9.7306 2.5667 0.06584 10.731-0.05537 18.142-0.26937 7.4889-0.21622 15.189 0.25463 17.333 1.0599 2.1219 0.79692 10.158 3.3933 17.858 5.7698s17.6 6.1268 22 8.3342c21.151 10.611 54.899 43.329 63.931 61.981 9.2773 19.158 15.391 44.958 15.391 64.948 0 11.268-3.1146 31.374-6.7652 43.671-19.029 64.101-85.011 108.16-151.89 101.43zm-121.33-178.52c0-1.1433-0.6-1.7079-1.3333-1.2546-0.73333 0.45322-1.3333 1.3886-1.3333 2.0787 0 0.69005 0.6 1.2546 1.3333 1.2546s1.3333-0.93541 1.3333-2.0787z" fill="#a4765a"/>
  <path d="m150.67 304.44c-62.084-6.2485-110.35-46.055-127.45-105.1-6.3894-22.072-5.8991-52.819 1.2066-75.667 1.9618-6.3078 4.1713-6.5406 3.164-0.33334-1.1808 7.2764 0.85432 5.5035 4.3199-3.7633 2.3642-6.3218 5.4685-10.907 12.413-18.333 5.0933-5.4468 10.854-11.769 12.801-14.05 7.6892-9.0044 31.107-24.247 41.162-26.791 4.2819-1.0836 6.1691-1.0222 7.9196 0.25786 2.0844 1.5241 1.6166 2.4094-5.0262 9.5134-4.0285 4.3081-8.4205 9.5812-9.7601 11.718-1.3396 2.1368-4.6742 6.3368-7.4102 9.3333-2.736 2.9966-5.728 7.8483-6.6489 10.782-0.92086 2.9333-3.6748 7.4333-6.1198 10-8.6178 9.0464-10.971 21.93-6.0027 32.871 4.1062 9.0432 11.159 9.4014 15.399 0.782 2.1307-4.331 3.0677-12.745 3.3444-30.034 0.0092-0.57606 2.5753-2.1441 5.7023-3.4845 3.1271-1.3404 6.5005-3.4191 7.4966-4.6193 0.99607-1.2002 3.6876-2.226 5.9811-2.2796s5.9701-1.247 8.1701-2.652 8.4392-4.7503 13.865-7.434c5.4256-2.6837 10.878-5.8403 12.117-7.0147 1.2387-1.1744 3.3996-2.808 4.8019-3.6303 1.6658-0.9768 2.588-3.0569 2.6603-6 0.14613-5.949 1.6755-9.1679 4.3653-9.1876 1.2049-0.0088 4.6452-1.4198 7.6453-3.1356 3-1.7157 6.9783-3.5019 8.8407-3.9694 1.8624-0.46742 3.7016-2.0564 4.0873-3.5311 0.58531-2.2382 1.8103-2.6813 7.414-2.6813 8.0308 0 9.3317-1.4785 5.5412-6.2974-6.4428-8.1907-10.688-9.9331-25.563-10.491-7.5763-0.28442-16.252-0.84917-19.281-1.255-5.0415-0.67569-23.588 0.94829-33.086 2.8971-3.4954 0.71721-3.7049 0.58571-1.9164-1.2028 1.1044-1.1044 4.3704-3.3022 7.2578-4.884 2.8874-1.5818 7.8327-4.7131 10.99-6.9585 7.7769-5.5314 17.127-7.5814 41.855-9.1763 19.348-1.248 21.693-1.1449 31.061 1.3654 38.186 10.233 57.819 22.748 86.477 55.123 30.139 34.049 37.065 95.709 16.172 143.97-23.943 55.306-85.697 91.412-145.97 85.345zm-118.67-199.61c0-1.1 0.6-2.3708 1.3333-2.824 0.73333-0.45323 1.3333 0.076 1.3333 1.176 0 1.1-0.6 2.3708-1.3333 2.824-0.73333 0.45323-1.3333-0.07596-1.3333-1.176z" fill="#97735a"/>
  <path d="m146.67 303.82c-32.649-3.3277-64.689-19.036-87.687-42.991-18.093-18.846-29.109-38.103-35.644-62.309-3.7704-13.965-6.05-40.18-3.6245-41.679 0.78636-0.486 1.8134 0.32508 2.2823 1.8024 1.5872 5.0007 2.9677 2.7229 4.6348-7.6473 2.9237-18.187 9.2835-33.459 18.847-45.259 17.405-21.475 28.999-32.14 43.056-39.606 6.9047-3.6671 10.771-4.3429 12.143-2.1225 0.98038 1.5863-6.3373 11.685-16.776 23.153-8.7994 9.6662-19.194 25.155-21.719 32.362-1.8083 5.162-3.5064 14.454-4.2285 23.139-0.21342 2.5667-0.78724 7.3667-1.2752 10.667-1.0285 6.9561 2.0603 16 5.4646 16 1.1575 0 3.6995-1.2338 5.6488-2.7418s5.6442-4.058 8.2109-5.6667c5.874-3.6816 11.815-15.202 13.235-25.663 0.96201-7.0891 1.6141-8.2188 8.2382-14.273 3.9564-3.6159 9.7447-7.6968 12.863-9.0686s7.9074-4.0151 10.643-5.8739 6.1842-3.3986 7.6639-3.422c1.4798-0.0233 3.7958-0.87993 5.1468-1.9036 1.351-1.0236 4.951-2.2724 8-2.775s6.3145-1.5367 7.2566-2.298c0.94208-0.76129 3.4646-1.3344 5.6057-1.2735 2.6735 0.07601 4.137-0.65872 4.6725-2.3458 0.4288-1.3511 2.2563-3.424 4.061-4.6065 4.1187-2.6987 4.1095-4.0527-0.0609-9.009-3.3305-3.9581-3.3761-6.4129-0.11905-6.4129 0.94307 0 2.8091-1.2093 4.1467-2.6874l2.432-2.6874 2.8606 2.6874c5.1699 4.8569 12.198 2.8043 11.046-3.2258-0.57855-3.0265-0.0215-3.8031 3.9043-5.4434 4.036-1.6864 4.5293-2.419 4.1589-6.1774-0.3569-3.622-1.9017-5.2833-10.257-11.032l-9.8373-6.7676-30.829 0.19516c-16.956 0.10734-29.929-0.11632-28.829-0.49702 1.1-0.3807 3.8-2.3381 6-4.3497 5.2246-4.7773 9.2496-6.0112 26.477-8.1166 9.8104-1.199 15.868-1.3449 19.252-0.46362 2.7157 0.70723 7.6377 0.86817 10.938 0.35765 13.892-2.1491 25.881-1.2684 38.258 2.8105 23.393 7.709 40.93 20.009 63.361 44.44 10.107 11.008 14.336 16.785 17.715 24.201 7.0113 15.385 11.178 30.286 13.474 48.184 1.9454 15.167 1.9454 17.978 0 33.145-4.6132 35.966-17.737 63.116-41.666 86.201-25.055 24.171-54.729 38.03-88.226 41.207-15.642 1.4834-14.792 1.4876-30.917-0.15592zm137.33-178.49c0-0.73333-0.6-1.3333-1.3333-1.3333-0.73334 0-1.3333 0.6-1.3333 1.3333 0 0.73334 0.6 1.3333 1.3333 1.3333 0.73333 0 1.3333-0.6 1.3333-1.3333zm-6.8673-12.002c-1.4348-4.1158-3.7994-6.6235-3.7994-4.0293 0 1.445 3.896 8.0318 4.7507 8.0318 0.24417 0-0.18391-1.8011-0.95131-4.0024z" fill="#87634b"/>
  <path d="m136.44 302.11c-29.419-5.5902-54.461-18.699-75.216-39.375-24.236-24.142-39.236-55.432-40.622-84.732l-0.56749-12 2.316 6.9587c4.2724 12.837 5.2438 11.452 5.9842-8.5326 0.55594-15.005 1.3123-20.283 4.0741-28.426 5.2824-15.576 6.4042-17.695 16.303-30.8 16.026-21.217 29.617-33.466 41.787-37.659 3.0254-1.0423 5.5007-1.568 5.5007-1.1682 0 2.2253-7.8722 13.712-12.555 18.319-8.0978 7.9672-17.388 20.447-20.751 27.876-1.6352 3.6116-4.1151 12.244-5.5109 19.182-1.3958 6.9387-3.4473 16.126-4.5589 20.415-2.5027 9.6582-1.7533 19.103 2.0236 25.504 4.0378 6.8436 13.441 9.0777 18.591 4.4169 1.2674-1.147 3.4871-2.0854 4.9327-2.0854 4.593 0 5.9439-2.5757 3.6635-6.9854-2.4872-4.8097-1.5774-7.669 2.4563-7.7191 2.2332-0.0277 4.1938-1.9418 7.3752-7.2004 2.3833-3.9394 4.3333-7.7569 4.3333-8.4832s1.1339-3.8533 2.5198-6.9488c1.6432-3.6703 2.2885-7.3525 1.8549-10.585-0.60353-4.4996-0.19-5.333 4.4802-9.0292 10.081-7.9786 16.77-9.3483 36.846-7.5451 8.3507 0.75009 9.4329 0.53529 14.301-2.8386 5.3094-3.6794 6.4035-3.875 28.939-5.1741 8.5608-0.49348 11.466-2.6017 10.383-7.5343-0.54709-2.4909-0.19331-3.8493 1.1353-4.3591 1.0615-0.40735 2.9258-3.7383 4.1427-7.4022 1.7953-5.4052 1.9022-7.1587 0.56636-9.2976-1.3514-2.1639-1.2452-3.2482 0.5928-6.0533 3.3113-5.0537 2.8084-7.7823-3.2013-17.367-4.1817-6.6695-7.0756-9.5996-12.509-12.666-8.306-4.6876-13.53-10.533-11.356-12.706 0.80679-0.80678 7.9254-1.5968 16.214-1.7994 12.951-0.31662 15.355-0.01973 19.461 2.4032 2.577 1.5204 5.9478 2.6666 7.4907 2.5469 4.8652-0.3772 6.1386 0.02424 6.1386 1.935 0 2.5143 4.1999 3.9766 5.4787 1.9075 0.78437-1.2691 1.6171-1.1232 3.5449 0.62151 1.3858 1.2542 3.2523 2.2803 4.1476 2.2803 3.3292 0 9.7754 4.3247 20.888 14.014 6.2847 5.4797 12.997 11.918 14.917 14.308 1.9196 2.3897 6.4052 7.384 9.968 11.098 11.234 11.712 20.852 37.741 24.319 65.814 3.9742 32.178-4.9817 69.178-23.26 96.094-17.988 26.488-48.812 48.335-82.004 58.119-10.384 3.0611-14.962 3.6007-34 4.007-14.856 0.31707-25.104-0.12027-31.559-1.3469zm101.8-26.275c6.3349-4.3585 8.925-10.388 6.658-15.498-1.9476-4.3908-4.0936-3.7676-13.294 3.8603-9.2768 7.6909-13.07 12.588-11.97 15.453 1.1572 3.0158 11.871 0.81896 18.607-3.8152zm54.08-137.47c0.30054-0.90165-0.0859-3.3144-0.85858-5.3617-1.0419-2.7602-0.96938-4.4199 0.2804-6.4211 2.3307-3.732 0.71516-12.153-2.2384-11.668-3.5021 0.57488-5.5076-1.4558-5.5076-5.5765 0-2.1134-0.6-4.2134-1.3333-4.6667-1.94-1.199-1.6374-5.0763 0.33333-4.2706 6.3276 2.587 6.3333 2.5866 6.3333-0.40896 0-2.2754-0.60008-2.8079-2.5804-2.29-3.2295 0.84453-8.093-2.4353-8.0658-5.4394 0.012-1.326 0.42468-1.6891 1-0.87978 1.3796 1.9406 5.0549 1.5191 4.616-0.52946-0.57011-2.6605-5.7152-7.2347-12.752-11.337l-6.4488-3.7595-3.2633 3.0657c-3.676 3.4534-3.4338 7.9929 0.8098 15.182 1.2986 2.2 3.0982 6.4 3.9991 9.3333 2.0386 6.6379 14.202 31.18 17.016 34.333 2.3937 2.6823 7.8513 3.1197 8.6598 0.69398zm-157.66-104.84c0-1.1873 12.581-2.8566 21.529-2.8566 5.2239 0 6.8578 1.7213 3.0287 3.1907-3.2509 1.2475-24.558 0.95764-24.558-0.33407z" fill="#825c45"/>
  <path d="m140.67 302.67c-20.51-2.9774-43.917-12.511-62.967-25.646-29.873-20.598-53.201-59.882-56.822-95.688l-0.74158-7.3333 3.1531 6c1.7342 3.3 3.7887 7.35 4.5655 9 0.77683 1.65 1.7896 3 2.2507 3s0.41077-8.552-0.11175-19.004c-1.0403-20.81 0.18823-28.977 6.9677-46.323 3.37-8.6224 17.647-28.67 28.839-40.496 10.633-11.235 23.288-19.143 25.335-15.831 1.3273 2.1477-3.1211 9.5775-6.9061 11.535-2.1846 1.1297-5.3465 4.3185-7.0265 7.0863-1.68 2.7678-5.6379 8.022-8.7954 11.676-3.1574 3.6541-5.7408 7.2425-5.7408 7.9742 0 0.73175-1.1573 4.3421-2.5719 8.0229s-3.5392 11.792-4.7216 18.026c-1.1823 6.2333-3.0125 15.233-4.067 20-3.0019 13.569-2.5853 22.48 1.3197 28.226 2.8013 4.1225 4.2663 4.9794 9.8188 5.743 3.5894 0.49367 8.8578 0.31267 11.707-0.40222 2.8497-0.71491 6.7806-1.6587 8.7355-2.0974 2.7576-0.6188 4.508-2.7554 7.8098-9.533 2.3406-4.8045 6.0109-10.033 8.1562-11.619 3.182-2.3525 3.753-3.5559 3.0993-6.5322-0.72753-3.3124-0.19682-3.9547 5.7633-6.9749 4.1983-2.1274 7.1253-4.6801 8.12-7.0815 1.1329-2.7349 4.0978-4.9755 10.915-8.2481 6.3349-3.0412 9.9886-5.7098 11.306-8.2582 1.709-3.3048 8.1251-6.5162 13.084-6.5485 0.62748-4e-3 2.9323-1.5148 5.1219-3.3572 3.2288-2.7169 5.2806-3.3118 10.859-3.1488 3.783 0.11055 11.584-0.27283 17.335-0.85196l10.456-1.053 3.8515-6.1316c2.1183-3.3724 3.8629-7.4355 3.8769-9.0293 0.0139-1.5937 1.5253-4.6803 3.3587-6.8591 3.6165-4.2979 4.0954-6.9946 1.9531-10.997-0.93962-1.7557-0.94713-3.3883-0.0235-5.1141 1.6578-3.0977-0.348-9.6634-4.7264-15.471-1.6611-2.2033-3.6179-5.5779-4.3483-7.4992-0.73048-1.9213-4.1281-5.2186-7.5503-7.3274-3.4222-2.1088-8.1157-5.4876-10.43-7.5084-4.0874-3.5691-4.1338-3.7313-1.6197-5.6667 5.0695-3.9025 22.101-1.3264 34.638 5.2392 3.6076 1.8893 7.2511 3.4351 8.0966 3.4351 2.4234 0 16.677 8.0627 16.677 9.4335 0 0.67825 1.154 1.2332 2.5644 1.2332 1.4104 0 4.387 1.5336 6.6146 3.4081 3.3288 2.801 4.5345 3.1489 6.769 1.9531 3.5724-1.9119 5.9498-0.55177 13.91 7.9578 6.7299 7.1948 7.4213 9.7874 1.5915 5.9676-1.897-1.2429-3.4681-1.7409-3.4914-1.1065-0.0233 0.63434-0.89267 0.0306-1.9319-1.3416-1.3485-1.7807-2.8398-2.2565-5.2092-1.6618-1.8259 0.45826-3.6758 0.25721-4.1108-0.44679-0.4351-0.704-1.6719-0.94201-2.7484-0.52891-2.5202 0.96708-2.5384 7.657-0.0265 9.7416 1.0619 0.88129 2.8072 4.4048 3.8786 7.8299 2.4697 7.8959 8.6169 22.475 14.011 33.228 2.299 4.5833 5.9141 11.783 8.0336 16 2.1195 4.2167 5.1041 8.7957 6.6325 10.176 2.585 2.334 3.0069 2.3597 6.0453 0.36885 4.4612-2.9231 5.2025-6.1276 3.5084-15.167-1.161-6.195-1.0938-7.9409 0.34177-8.8804 1.7165-1.1232 0.91339-6.6594-2.0546-14.164-0.43504-1.1-1.4372-4.1111-2.2271-6.6913-0.78987-2.5802-4.1355-7.777-7.4346-11.548-5.6788-6.4916-7.3287-9.7602-4.9268-9.7602 1.8325 0 9.1119 8.4342 11.508 13.333 1.9138 3.9136 7.5946 18.045 12.864 32 0.69226 1.8333 2.4077 11.179 3.8121 20.767 2.3548 16.077 2.4058 18.632 0.65581 32.827-3.2392 26.276-10.968 48.328-23.306 66.496-17.925 26.395-48.839 48.283-81.938 58.013-10.231 3.0075-15.047 3.5913-32.667 3.9597-11.367 0.23766-24.267-0.0905-28.667-0.72921zm97.578-26.836c6.3349-4.3585 8.925-10.388 6.658-15.498-1.9476-4.3908-4.0936-3.7676-13.294 3.8603-9.2768 7.6909-13.07 12.588-11.97 15.453 1.1572 3.0158 11.871 0.81896 18.607-3.8152zm-132.43-137.83c-1.2908-3.3639 1.9029-12.316 5.2236-14.642 2.7008-1.8917 3.1065-1.8736 4.6276 0.2066 2.413 3.3 2.0671 6.1161-1.3796 11.231-3.4225 5.0787-7.2036 6.5091-8.4715 3.2049z" fill="#795945"/>
  <path d="m151.33 303.12c-35.429-2.8524-65.774-16.444-89.351-40.021-5.5264-5.5264-12.746-13.829-16.043-18.449-12.389-17.361-23.217-44.651-25.123-63.318-0.84943-8.3188 1.1497-6.8082 2.6107 1.9727 1.1026 6.6268 5.349 15.231 8.0234 16.257 2.8887 1.1085 2.9789 0.66003 1.7898-8.8963-3.6984-29.721-2.5606-47.601 4.1483-65.186 2.7448-7.1947 18.013-28.316 28.412-39.303 6.0437-6.3858 19.606-16.844 21.844-16.844 4.6085 0 1.4696 11.043-3.5959 12.651-1.4557 0.46201-3.9932 2.7545-5.639 5.0945-1.6458 2.34-6.1614 8.0126-10.035 12.606-3.8733 4.5932-7.0423 9.2643-7.0423 10.38 0 1.1159-0.83496 3.3578-1.8555 4.982-1.0205 1.6242-2.2469 5.9531-2.7254 9.6198-0.77756 5.959-5.6269 25.57-8.8687 35.866-0.66945 2.1261-1.2172 8.089-1.2172 13.251 0 7.5238 0.59014 10.246 2.9756 13.728 5.3779 7.8485 16.028 10.412 24.757 5.9587 3.0218-1.5416 6.3371-2.8029 7.3674-2.8029s3.5896-1.35 5.6872-3c2.0976-1.65 3.8286-2.8078 3.8465-2.5729 0.13265 1.7379 7.1368-2.8408 8.6388-5.6474 1.0356-1.9351 3.2781-3.8684 4.9833-4.2964 1.9471-0.48868 3.3902-2.0873 3.8794-4.2973 0.42844-1.9356 1.0424-4.5022 1.3643-5.7035 0.32191-1.2014 2.9514-3.7501 5.8433-5.6639 4.6145-3.0537 5.1631-3.9543 4.4822-7.3586-0.64919-3.246-0.1542-4.2653 3.0328-6.2456 2.0947-1.3016 5.5514-3.9073 7.6815-5.7904s3.4447-2.6738 2.9213-1.7572c-0.54001 0.94584-0.24211 1.6667 0.6888 1.6667 0.9022 0 2.6516 0.91513 3.8875 2.0336 1.9941 1.8046 2.4337 1.8088 3.9041 0.0371 0.91134-1.0981 1.7474-4.2188 1.8578-6.935 0.19674-4.8362 0.3479-4.9715 7.2987-6.5349 3.9038-0.87803 7.7413-2.2399 8.5278-3.0264 0.78652-0.78651 3.1333-1.0894 5.215-0.67301 2.7485 0.54969 4.0123 0.16477 4.6149-1.4056 1.189-3.0986 10.479-2.8952 13.673 0.29946 2.3938 2.3938 2.5454 2.3753 5.4733-0.66667 1.9415-2.0171 4.5434-3.1286 7.324-3.1286 3.3276 0 4.6662-0.77575 5.86-3.3961 0.85105-1.8678 1.5474-4.5678 1.5474-6s0.50369-2.6039 1.1193-2.6039c1.5746 0 4.214-6.1901 4.214-9.8829 0-1.6999 1.2956-4.7379 2.8791-6.751 2.4835-3.1573 3.5827-3.5658 8-2.9734 2.8165 0.37777 5.1209 0.38652 5.1209 0.01945 0-2.4017-4.9986-8.4122-6.996-8.4122-1.3316 0-2.7595-1.05-3.1731-2.3333-2.7222-8.446-6.7476-16.289-10.332-20.131-10.011-10.73-13.411-13.777-17.976-16.107-2.6707-1.3631-6.0478-3.7964-7.5048-5.4073-2.612-2.888-2.613-2.9552-0.0785-4.8085 5.1638-3.7759 22.228-1.138 34.62 5.352 3.6076 1.8893 7.282 3.4351 8.1654 3.4351 3.4676 0 13.967 7.0558 16.489 11.081 1.4654 2.3386 4.4578 5.9209 6.6498 7.9605 2.8818 2.6816 4.2373 5.4506 4.8956 10 0.50066 3.4603 1.343 6.8915 1.872 7.6248 0.52894 0.73333 2.0058 4.6066 3.2818 8.6073 1.2761 4.0007 4.6022 12.101 7.3914 18 9.3508 19.778 17.362 38.061 17.409 39.734 0.026 0.91207 0.8728 3.1498 1.8818 4.9726 1.5636 2.8248 2.8455 3.3353 8.6785 3.4562 6.0224 0.1248 7.1569-0.29772 9.4515-3.5202 1.4342-2.0141 2.6076-5.5694 2.6076-7.9006 0-2.7958 0.56732-4.0511 1.6667-3.6877 0.9796 0.32381 2.3011 5.1791 3.2057 11.778 2.9773 21.719-2.9431 52.271-14.836 76.56-8.1516 16.648-18.124 29.838-31.001 41-9.5711 8.2971-11.888 9.3394-10.376 4.6667 0.53417-1.65 1.2697-7.35 1.6346-12.667 0.64896-9.457 0.59511-9.6666-2.4824-9.6617-4.2808 7e-3 -9.4449 3.3792-20.479 13.374-11.886 10.766-18.051 18.633-18.395 23.471-0.26908 3.7823-0.20931 3.8136 6.7285 3.5258 3.85-0.15978 7-0.022 7 0.30622 0 1.2552-10.44 5.8153-20.748 9.0625-15.491 4.8798-34.984 6.8482-53.252 5.3774zm-116.67-100.46c0-0.73334-0.63541-1.3333-1.412-1.3333s-1.0412 0.6-0.58798 1.3333c0.45322 0.73333 1.0886 1.3333 1.412 1.3333s0.58798-0.6 0.58798-1.3333zm269.33-70.667c0-1.4667-0.6-2.6667-1.3333-2.6667-0.73334 0-1.3151-2.25-1.2928-5 0.028-3.458 0.39293-4.3832 1.1832-3 1.4628 2.5603 3.262 13.333 2.2268 13.333-0.43114 0-0.78387-1.2-0.78387-2.6667zm-195.39-0.0892c-0.52136-0.84358 0.0686-1.2506 1.4497-1 1.2808 0.23238 2.591-0.32749 2.9116-1.2442 0.32052-0.91665-0.06723-1.6666-0.86168-1.6666-0.79444 0-1.4444-0.54691-1.4444-1.2154 0-0.66845 1.05-1.0618 2.3333-0.87404 2.5631 0.37494 4.116 4.7561 1.6857 4.7561-0.83038 0-1.139 0.6-0.68574 1.3333s-0.37595 1.3333-1.8426 1.3333-3.0623-0.64013-3.5458-1.4225z" fill="#82533c"/>
  <path d="m145.33 302.54c-46.612-4.5192-89.352-34.169-110.54-76.688-2.8839-5.786-6.4878-14.42-8.0086-19.187-2.7709-8.6849-5.5163-21.333-4.6305-21.333 0.25964 0 1.9192 2.8557 3.6879 6.3461 1.7687 3.4903 4.5062 7.8403 6.0834 9.6667l2.8676 3.3206-0.69946-6.6667c-5.8792-56.036-2.1055-70.829 26.588-104.23 10.647-12.394 25.433-24.193 27.601-22.025 2.3682 2.3683-0.26015 6.9852-4.4542 7.824-3.1144 0.62287-4.6891 2.251-7.3621 7.6119-1.8702 3.7507-5.7 9.2195-8.5107 12.153-2.8107 2.9333-6.1011 8.0333-7.312 11.333-2.1774 5.934-2.6424 7.7696-6.5862 26-1.1105 5.1333-3.2092 13.533-4.6638 18.667-3.7201 13.129-3.6146 26.533 0.25324 32.178 5.5071 8.0371 15.292 10.276 25.479 5.8286 17.239-7.5255 23.216-10.899 24.908-14.062 0.98604-1.8424 3.188-3.7 4.8932-4.128 1.9471-0.48868 3.3902-2.0873 3.8794-4.2973 0.42844-1.9356 1.0424-4.5022 1.3643-5.7035 0.32191-1.2014 2.9514-3.7501 5.8433-5.6639 4.5874-3.0358 5.1606-3.9669 4.4939-7.3-0.67919-3.3959-0.0755-4.2852 5.433-8.0028 6.9392-4.6832 9.4919-5.1128 12.767-2.1487 1.9941 1.8046 2.4337 1.8088 3.9041 0.0371 0.91134-1.0981 1.7474-4.2188 1.8578-6.935 0.19674-4.8362 0.3479-4.9715 7.2987-6.5349 3.9038-0.87803 7.7413-2.2399 8.5278-3.0264 0.78652-0.78651 3.1333-1.0894 5.215-0.67301 2.7485 0.54969 4.0123 0.16477 4.6149-1.4056 1.189-3.0986 10.479-2.8952 13.673 0.29946 2.3938 2.3938 2.5454 2.3753 5.4733-0.66667 1.9415-2.0171 4.5434-3.1286 7.324-3.1286 3.3276 0 4.6662-0.77575 5.86-3.3961 0.85105-1.8678 1.5474-4.5678 1.5474-6s0.50369-2.6039 1.1193-2.6039c1.5746 0 4.214-6.1901 4.214-9.8829 0-1.6999 1.2956-4.7379 2.8791-6.751 2.4835-3.1573 3.5827-3.5658 8-2.9734 2.8165 0.37777 5.1209 0.38652 5.1209 0.01945 0-2.4017-4.9986-8.4122-6.996-8.4122-1.3316 0-2.7595-1.05-3.1731-2.3333-2.6964-8.3658-6.6202-16.225-9.8192-19.667-2.0447-2.2-4.1529-5.5-4.685-7.3333-0.5321-1.8333-3.8983-6.1193-7.4804-9.5244-3.5821-3.4051-6.513-6.6324-6.513-7.1718 0-1.9531 14.214 0.96553 23.308 4.7858 5.1194 2.1507 10.038 3.9103 10.931 3.9103s5.1038 2.8858 9.3586 6.413 8.813 6.8187 10.129 7.3146c2.7636 1.041 6.2731 8.6289 6.2731 13.563 0 1.8569 1.2497 4.6259 2.7772 6.1533 1.5275 1.5275 5.0958 8.3483 7.9297 15.157s6.3418 14.709 7.7954 17.556c4.7022 9.2091 14.83 32.478 14.878 34.184 0.026 0.91207 0.8728 3.1498 1.8818 4.9726 1.5636 2.8248 2.8455 3.3353 8.6785 3.4562 6.0224 0.1248 7.1569-0.29772 9.4515-3.5202 1.4342-2.0141 2.6076-5.5194 2.6076-7.7895 0-8.8906 2.3346-3.4541 3.8102 8.8725 2.991 24.986-1.7684 51.124-13.778 75.667-8.1453 16.645-18.117 29.835-30.996 41-9.5711 8.2971-11.888 9.3394-10.376 4.6667 0.53417-1.65 1.2697-7.35 1.6346-12.667 0.64896-9.457 0.59511-9.6666-2.4824-9.6617-4.2808 7e-3 -9.4449 3.3792-20.479 13.374-11.886 10.766-18.051 18.633-18.395 23.471-0.26908 3.7823-0.20931 3.8136 6.7285 3.5258 3.85-0.15978 7-0.022 7 0.30622 0 1.2552-10.44 5.8153-20.748 9.0625-10.838 3.4142-31.633 6.4078-42.199 6.0749-3.1456-0.0991-10.819-0.67467-17.053-1.279zm156.21-175.87c0-1.8333 0.30264-2.5833 0.67252-1.6667s0.36988 2.4167 0 3.3333c-0.36988 0.91667-0.67252 0.16667-0.67252-1.6667z" fill="#734b38"/>
  <path d="m137.33 301.26c-10.434-1.5424-28.429-7.4518-39.333-12.917-31.851-15.963-56.644-43.297-67.897-74.858-3.4142-9.5758-3.8206-14.71-0.60589-7.6546 2.0144 4.4212 4.4833 4.4586 7.3318 0.11134 1.8261-2.787 1.9682-4.278 0.79407-8.3333-2.1507-7.4286-4.1408-48.423-2.7281-56.196 2.3134-12.728 12.252-30.996 22.551-41.45 1.7844-1.8113 5.5614-6.1433 8.3933-9.6266 2.8319-3.4833 5.6766-6.3333 6.3216-6.3333s1.1727 1.7714 1.1727 3.9365c0 2.946-1.6774 5.6139-6.6667 10.603-3.6667 3.6667-6.6667 7.8974-6.6667 9.4017s-1.2 4.9739-2.6667 7.7104c-1.4667 2.7365-2.6759 6.7843-2.6871 8.9952-0.01984 3.8963-1.3026 9.4775-8.5423 37.166-3.5997 13.767-4.3741 22.784-2.0786 24.203 0.74728 0.46184 2.8307 3.7446 4.6298 7.295 4.2086 8.3052 9.1523 11.742 18.467 12.836 5.8856 0.69173 8.2075 0.39204 10.966-1.4154 1.9248-1.2612 7.0326-3.4528 11.351-4.8704 6.5343-2.1451 8.3146-2.2937 10.614-0.88599 2.3425 1.4344 2.9613 1.3412 4.0721-0.61363 0.7204-1.2678 1.3299-2.7678 1.3544-3.3333 0.10808-2.4941 4.5814-5.6949 7.9589-5.6949 2.0385 0 5.5529-1.5667 7.8498-3.4993 4.0427-3.4017 4.093-3.5784 1.8044-6.3333-1.2949-1.5587-1.5003-2.084-0.45642-1.1673 4.1241 3.6215 11.579-0.15477 10.26-5.1974-0.78376-2.9971 1.4398-4.6674 3.4875-2.6197 2.2672 2.2672 5.9929 1.7748 8.9505-1.1828 1.4667-1.4667 4.0932-2.6667 5.8368-2.6667 1.7435 0 3.917-0.9 4.8299-2s2.372-2 3.2423-2c0.87035 0 4.4353-3.3045 7.9222-7.3433 3.4868-4.0388 8.1625-8.2858 10.39-9.4379 3.4297-1.7736 3.9604-2.7093 3.4621-6.1045-0.48228-3.286-9e-3 -4.2299 2.6175-5.2288 4.6446-1.7659 7.0324-1.5007 7.0324 0.78108 0 1.3837 1.3901 2 4.5112 2 3.4618 0 4.6815-0.65148 5.2436-2.8008 0.87962-3.3636 3.2389-2.2661 4.9816 2.3173 1.0138 2.6666 1.6902 3.0157 3.7289 1.9246 3.8731-2.0728 6.8837-7.5876 6.7682-12.398-0.20747-8.6429 2.2744-22.719 4.2694-24.214 1.0977-0.82261 2.3718-2.4991 2.8315-3.7255 0.52545-1.4018 1.7825-1.9823 3.3853-1.5631 2.7033 0.70694 6.947-2.596 6.947-5.407 0-3.0454-8.2476-14.193-11.897-16.08-3.46-1.7893-6.7696-6.9729-6.7696-10.603 0-0.9666-1.2-3.283-2.6667-5.1476-1.4667-1.8646-2.6667-4.3883-2.6667-5.6084 0-1.22-1.0138-3.2254-2.253-4.4564-2.1128-2.0988-2.0059-2.2628 1.7185-2.6349 8.3011-0.82941 25.745 12.783 33.422 26.081 2.0054 3.4737 4.3801 6.7699 5.2773 7.3249 1.9213 1.1887 20.426 38.374 24.38 48.992 1.5022 4.034 3.3224 10.451 4.0448 14.26 2.0067 10.581 4.8169 16.202 9.0075 18.017 2.0548 0.88974 5.432 2.9911 7.5049 4.6696 2.0729 1.6785 4.2637 3.0519 4.8683 3.0519 0.60463 0 2.3591-2.1351 3.8988-4.7447 4.4825-7.5974 5.9631-4.7575 4.96 9.5136-1.6621 23.645-9.7656 47.591-22.665 66.975-6.0897 9.1511-25.953 29.59-28.757 29.59-0.89296 0-1.1329-0.69934-0.55874-1.6284 0.55352-0.8956 1.1778-4.6456 1.3873-8.3333 0.20952-3.6877 0.54205-8.4885 0.73896-10.668 0.89013-9.8539-10.911-4.0397-30.326 14.941-16.049 15.69-20.57 23.166-16.022 26.492 1.2641 0.92431 3.29 1.3335 4.502 0.90924 1.4525-0.5084 1.7492-0.32505 0.8704 0.53787-2.3149 2.273-13.628 5.9058-24.337 7.8153-11.158 1.9895-41.733 2.2888-53.663 0.52543z" fill="#694434"/>
  <path d="m130.67 299.52c-40.757-9.5456-73.368-33.743-91.767-68.092-5.2168-9.7394-5.2992-11.338-0.56806-11.014 2.9036 0.19886 3.7561-0.38766 4.1024-2.8224 0.24037-1.6904-0.29864-3.9598-1.1978-5.0432-1.2931-1.5581-1.2747-3.0612 0.08816-7.1906 1.4008-4.2445 1.4045-5.9896 0.01968-9.3328-0.93682-2.2617-1.3484-4.467-0.91468-4.9008 1.6964-1.6964 4.6966 0.8962 5.5539 4.7993 1.008 4.5892 16.335 21.408 19.51 21.408 1.0853 0 2.6258-0.65254 3.4233-1.4501s4.3675-1.712 7.9333-2.0322c3.5658-0.32018 12.019-1.5359 18.784-2.7015l12.301-2.1194 6.003-7.0266c5.4694-6.402 16.851-13.985 21.037-14.016 0.93018-7e-3 4.9912-1.9343 9.0246-4.2832 7.2492-4.2217 22.802-10.371 26.23-10.371 0.97371 0 1.7704 0.77064 1.7704 1.7125 0 2.1616 7.5657 6.7355 8.5382 5.162 0.83465-1.3505-0.074-15.049-1.3761-20.747-0.8638-3.7799-0.78084-3.8515 3.4765-3 2.3988 0.47975 5.4864 0.87228 6.8614 0.87228 1.8946 0 2.5 0.97871 2.5 4.0418 0 4.3495 2.9142 6.516 5.6836 4.2253 0.90733-0.75048 3.2968-1.5676 5.31-1.8158 3.5788-0.44128 3.6161-0.53596 1.6738-4.2568-1.0926-2.093-1.7259-4.2271-1.4074-4.7424 0.31851-0.51536 3.4653-0.82874 6.9929-0.69642 6.2108 0.23297 13.373-2.2214 15.393-5.2751 1.5994-2.4174 1.1566-7.1539-0.85689-9.1675-1.5086-1.5086-1.6454-3.9495-0.69667-12.429 0.64935-5.8032 1.5152-12.08 1.9241-13.949 1.0551-4.8216 6.8484-10.603 10.625-10.603 4.2862 0 5.4536-2.2811 2.7158-5.3064-1.7215-1.9022-1.913-3.0769-0.83131-5.0981 1.223-2.2852 0.0244-3.9372-9.227-12.717-7.3068-6.9347-10.633-11.054-10.633-13.171 0-1.6939-1.2463-5.4053-2.7696-8.2474l-2.7696-5.1675 4.4316 0.88632c7.344 1.4688 25.091 21.507 25.103 28.344 3e-3 1.8795 1.0714 3.1231 3.125 3.6385 1.9548 0.49063 3.9354 2.6609 5.3034 5.8112 1.2009 2.7655 3.9848 8.0281 6.1866 11.695 5.2497 8.7425 12.057 23.199 12.057 25.605 0 1.0468 0.57672 2.9809 1.2816 4.298 0.70489 1.3171 2.4608 7.7976 3.902 14.401 1.8034 8.263 3.9753 14.036 6.9661 18.518 7.6859 11.516 8.6807 13.134 9.6137 15.638 0.50418 1.353 2.0582 2.7584 3.4534 3.1233 1.3952 0.36485 2.8618 1.9066 3.2591 3.426 0.60883 2.3281 1.0476 2.4928 2.79 1.0468 1.1371-0.94374 2.0675-3.1424 2.0675-4.8859s0.62718-3.1701 1.3937-3.1701c1.5854 0 0.87904 4.8441-2.9165 20-5.1812 20.689-22.055 49.272-34.535 58.498l-3.6766 2.7182 0.41896-10.612c0.40171-10.175 0.29036-10.644-2.7034-11.395-6.9912-1.7547-14.612 3.0544-35.496 22.401-8.7517 8.1073-17.456 17.375-19.343 20.596-4.1421 7.068-7.4882 9.2572-9.8322 6.4329-2.0833-2.5102-5.8523-2.5318-7.916-0.0452-0.87949 1.0597-4.403 3.722-7.8299 5.9161-5.9318 3.7979-7.0947 4.0231-24.231 4.693-12.315 0.48144-20.316 0.16123-25.333-1.0138zm-93.324-132.84c-1.778-3.3222-1.9334-24.658-0.21869-30.018 1.6597-5.1874 8.8591-20.032 12.61-26 1.613-2.5667 6.3828-8.2377 10.599-12.602 4.2167-4.3646 7.6667-8.4146 7.6667-9 0-0.58535 0.9-1.0643 2-1.0643 3.3682 0 2.2825 2.3264-4.6667 10-3.8047 4.2013-6.6704 8.6434-6.6755 10.347-0.0048 1.6422-1.2009 4.7859-2.6579 6.9859s-2.653 5.8012-2.6579 8.0026c-0.0096 4.3899-6.3881 29.614-10.03 39.664-2.508 6.9212-3.8078 7.7234-5.9694 3.6844z" fill="#643b2e"/>
  <path d="m128 297.84c-4.0333-1.0654-9.5595-2.512-12.28-3.2148-6.9725-1.8009-25.052-10.827-34.807-17.377-9.124-6.1261-26.65-23.856-29.238-29.578-0.91208-2.0167-2.05-3.6667-2.5286-3.6667-0.47866 0-0.78219-4.05-0.67452-9 0.17467-8.0299 0.48321-9.0047 2.8624-9.0436 1.4667-0.024 4.5444-0.50578 6.8394-1.0706 3.3619-0.82747 5.6683-0.21787 11.87 3.1372 7.3774 3.9913 13.958 4.6188 13.958 1.331 0-0.69408 1.7798-3.0827 3.9551-5.3079 4.6133-4.7194 10.22-5.288 18.697-1.8962 5.1278 2.0517 5.7067 2.0143 12.694-0.82152 6.2479-2.5358 7.3208-3.4822 7.3208-6.4573 0-1.9173 1.3135-6.6551 2.9189-10.528 2.614-6.3068 3.4843-7.1881 8.3333-8.4385 2.978-0.76789 6.4557-1.6981 7.7283-2.0671 1.2726-0.36903 5.6535-3.3914 9.7353-6.7165l7.4215-6.0455 19.196 4.3777 3.3333-3.8555c1.8333-2.1206 4.7779-4.216 6.5434-4.6565 4.3114-1.0757 11.656 2.1521 12.751 5.6043 0.48675 1.5336 1.6711 2.7884 2.6319 2.7884 3.5566 0 5.0803-3.8794 4.4602-11.356-0.60446-7.289 1.124-11.261 4.1001-9.4215 2.224 1.3745 15.093-2.6604 16.499-5.173 1.7359-3.1019 1.5389-21.244-0.26733-24.619-2.2582-4.2195-1.6187-6.7389 2.615-10.301 2.3217-1.9536 4-4.6599 4-6.4502 0-2.2497 1.1173-3.4739 4.1285-4.5236 4.0188-1.401 4.1067-1.6081 3.3084-7.7971-1.2185-9.4459 0.5517-10.809 5.7064-4.395 8.9248 11.106 18.226 31.878 21.51 48.037 0.96869 4.7667 4.0544 13.276 6.8572 18.911 2.8028 5.6342 5.4394 12.834 5.8592 16 0.70335 5.3042 3.2714 15.718 4.179 16.946 0.21272 0.28784 1.3012-0.23563 2.419-1.1632 1.3898-1.1534 2.0322-1.2135 2.0322-0.19 0 0.82312-0.6 1.4966-1.3333 1.4966-1.7508 0-1.7222 3.6023 0.0372 4.6897 0.75382 0.46588 2.5339-0.54871 3.9556-2.2547 2.4399-2.9275 2.585-2.9519 2.5835-0.43504-5e-3 8.9228-16.421 39.331-26.698 49.453l-6.3735 6.2777 0.62071-8.6688c0.76373-10.666-0.7383-12.503-9.1331-11.165-8.967 1.4282-20.528 10.071-39.78 29.738l-17.879 18.265-7.1234 0.1132c-5.5281 0.0879-7.6183 0.73368-9.3333 2.8839-3.9644 4.9704-8.6913 6.9294-20.175 8.3617-14.966 1.8664-27.071 1.6129-36.035-0.75475zm-85.333-164.01c0-3.6796 1.9963-7.1556 4.1095-7.1556 1.0021 0-1.7362 8.7378-3.1958 10.197-0.50258 0.50257-0.91378-0.86623-0.91378-3.0418zm9.8573-22.598c0.44512-1.16 0.80932-2.3954 0.80932-2.7454s0.5738-0.28168 1.2751 0.15175c1.5479 0.95668 0.30498 4.7026-1.5604 4.7026-0.73333 0-0.96914-0.94907-0.52401-2.109z" fill="#56352b"/>
  <path d="m137.33 295.96c-16.662-2.2304-25.965-4.3872-32.002-7.4194-3.5117-1.7638-7.0568-3.2069-7.8781-3.2069-0.82128 0-4.7958-1.8638-8.8322-4.1419-4.8426-2.733-7.2168-4.8873-6.9798-6.3333 0.25094-1.531-0.79165-2.323-3.4593-2.628-2.4145-0.27604-4.065-1.3791-4.4888-3-0.3687-1.4099-1.5004-2.5634-2.5148-2.5634-1.9984 0-2.5668-4.7296-0.70655-5.8792 0.62587-0.38682 2.9374-0.0241 5.1367 0.80608 2.3238 0.87713 5.0585 1.0501 6.5287 0.41292 1.3915-0.60306 3.075-0.96952 3.7411-0.81439 2.3377 0.54443 3.17-2.9744 2.8017-11.846-0.35932-8.6556-0.2416-9.0299 3.5434-11.266 2.1533-1.272 4.8275-1.9626 5.9427-1.5347 1.1152 0.42793 3.3341 0.0723 4.931-0.79043 3.5889-1.9388 21.809-2.3534 25.94-0.59021 4.7707 2.0362 6.2214-0.55196 6.8118-12.152 0.0871-1.712 2.7759-5.4119 6.2982-8.6667 3.3804-3.1236 6.9884-7.6293 8.0179-10.013 1.2493-2.8923 2.7904-4.3333 4.6343-4.3333 1.5194 0 4.596-2.0709 6.8369-4.602 5.2173-5.8931 9.9639-6.9282 18.039-3.9336 8.1145 3.0093 12.64 6.1404 14.854 10.276 2.3049 4.3068 8.1126 7.108 9.6644 4.6614 0.60524-0.95419 1.1096-2.1849 1.1208-2.7349 0.0107-0.55 1.4993-1 3.3068-1 1.8533 0 3.8721-1.0944 4.6296-2.5097 0.85992-1.6068 3.476-2.8295 7.2712-3.3987 3.2604-0.48894 6.6506-1.7596 7.5337-2.8236 2.315-2.7894 5.2791-2.3784 5.2791 0.73202 0 1.4815-0.88889 2.6667-2 2.6667-1.1111 0-2 1.1852-2 2.6667 0 3.1691 1.7179 3.4249 4.4762 0.66667 1.1-1.1 3.1306-2 4.5124-2 3.3286 0 8.905-6.0577 11.596-12.597 2.6727-6.4946 1.6333-15.644-2.4307-21.395-4.9877-7.0582-7.8566-18.008-4.7182-18.008 0.78974 0 3.2782 1.8423 5.5299 4.094 3.128 3.128 4.3574 3.6785 5.2104 2.3333 1.4805-2.3349 1.4345-3.4319-0.18562-4.4332-2.0616-1.2741-5.5254-8.5892-4.6998-9.9252 1.1123-1.7997 8.4552 2.3635 9.3959 5.3271 1.1351 3.5765 3.1286 3.2636 4.6468-0.72944 0.69702-1.8333 1.7622-3.3333 2.367-3.3333 2.035 0 4.2997 3.1776 4.2997 6.0331 0 1.5582 1.5091 7.2701 3.3536 12.693 3.3099 9.7316 4.5707 23.211 2.7172 29.051-0.64021 2.0171 0.0528 3.5941 2.5234 5.7422 5.1633 4.4894 4.6148 9.8572-1.3678 13.387-5.0903 3.0034-7.2262 6.8855-7.2262 13.134 0 5.5218-6.7221 12.545-16.468 17.207-5.8039 2.7758-13.586 8.9107-26.645 21.004-18.307 16.953-29.025 24.416-35.068 24.416-1.7568 0-5.5677 2.1888-8.6337 4.9587-9.1002 8.2215-24.63 11.086-45.186 8.3343zm-42.667-15.96c0-0.73333-0.93541-1.3333-2.0787-1.3333-1.1433 0-1.7079 0.6-1.2546 1.3333 0.45323 0.73333 1.3886 1.3333 2.0787 1.3333 0.69005 0 1.2546-0.6 1.2546-1.3333zm134.67-73.444c0-3.2494-3.1157-2.7901-3.7644 0.55493-0.25518 1.3157 0.42501 2.2228 1.6667 2.2228 1.2368 0 2.0978-1.14 2.0978-2.7778zm27.459-78.417c-2.117-2.3392-3.028-12.153-1.1253-12.122 1.4234 0.0235 7 8.9106 7 11.155 0 2.9632-3.5406 3.5456-5.8747 0.96645z" fill="#522d26"/>
  <path d="m144.38 294.2c-3.093-0.8687-6.363-2.3189-7.2667-3.2226-1.9669-1.967-5.6202-2.2143-4.4373-0.3004 1.396 2.2587-3.5855 3.281-5.2038 1.0679-0.81344-1.1124-2.7703-2.4325-4.3485-2.9334-3.1533-1.0008-3.2382-2.1015-0.64399-8.3563 2.0662-4.9817 0.25272-9.7876-3.6932-9.7876-3.2101 0-5.3804-2.7194-5.1036-6.3948 0.1764-2.3418 1.0512-2.9386 4.3076-2.9386 5.3564 0 10.013-3.3696 10.013-7.2457 0-4.0742 2.0729-5.624 10.052-7.5154 3.638-0.86237 8.0317-2.1116 9.7637-2.7762 1.9819-0.76035 3.7503-0.70933 4.7709 0.13764 1.8838 1.5634 9.9627-2.1061 14.948-6.7893 1.7169-1.613 3.5031-2.5512 3.9693-2.085s3.2766-1.2314 6.2452-3.7725c2.9687-2.5411 5.8896-4.6202 6.491-4.6202s1.0933-0.915 1.0933-2.0333c0-1.1979 1.6631-2.3659 4.0478-2.8429 5.894-1.1788 11.13-9.7904 5.9522-9.7904-1.1 0-2-0.6-2-1.3333 0-1.7791 1.7768-1.6899 3.6499 0.1832 0.86584 0.86584 6.8832 1.6524 14.024 1.8332 6.8792 0.17416 13.732 0.70527 15.229 1.1802 1.6967 0.53852 3.3551 0.0995 4.4058-1.1665 1.8953-2.2837 5.3583-2.734 5.3583-0.69677 0 2.5681 2.708 1.2903 7.8587-3.7084 7.379-7.161 9.7922-13.515 10.998-28.958 1.6791-21.506 2.0836-22.921 6.8233-23.869 5.0869-1.0174 8.1145 1.4752 10.971 9.0326 3.0334 8.0249 1.9233 33.584-1.8756 43.184-1.5265 3.8579-2.7754 8.5198-2.7754 10.36 0 5.6936-5.7607 13.045-13.488 17.213-9.5214 5.1354-16.65 10.898-31.672 25.603-12.911 12.638-27.764 21.81-35.319 21.81-2.277 0-4.441 1.3529-6.3981 4-1.823 2.4657-4.1561 4-6.0828 4-1.719 0-5.241 0.88396-7.8268 1.9644-6.6128 2.763-16.231 3.4234-22.836 1.568zm59.29-55.518c3.5658-2.1741 4.3333-3.4721 4.3333-7.3284 0-3.6912-0.53019-4.6863-2.497-4.6863-2.6033 0-10.836 8.605-10.836 11.326 0 4.0298 3.1277 4.2691 9 0.68867zm21.754-6.7282c3.2766-1.7536 3.5351-7.9531 0.33161-7.9531-2.7274 0-8.4193 5.1148-8.4193 7.5658 0 2.1069 4.4742 2.3212 8.0877 0.38734zm-34.088-5.2864c-0.45322-0.73334-1.3886-1.3333-2.0787-1.3333s-1.2546 0.6-1.2546 1.3333c0 0.73333 0.93541 1.3333 2.0787 1.3333s1.7079-0.6 1.2546-1.3333zm22.55-4.8064c1.1558-0.44352 1.7856-1.3173 1.3997-1.9418-0.8524-1.3792-4.6163-0.10933-4.6163 1.5575 0 1.4065 0.42161 1.4568 3.2166 0.3843zm22.018-3.7416c0.95428-1.1498 1.0646-2.1883 0.28359-2.671-2.0882-1.2906-5.4084 0.62096-4.6249 2.6626 0.92019 2.398 2.3558 2.4007 4.3413 8e-3zm-72.901 10.332c-0.91667-0.36988-1.6667-1.4816-1.6667-2.4706 0-2.3105 6.8154-7.1154 9-6.3451 2.6752 0.94327 1.9225 5.3684-1.2967 7.6232-3.1363 2.1968-3.4127 2.2514-6.0366 1.1926zm2.6-14.05c-3.8938-3.8938-0.76567-8.8004 6.3228-9.9176 3.4003-0.53589 4.323-0.0685 5.6607 2.8675 1.7344 3.8066 0.13715 5.921-4.5048 5.963-1.24 0.0107-2.6255 0.62041-3.0787 1.3538-1.0911 1.7654-2.4503 1.683-4.4-0.26667zm22.4 0.26667c0-0.73334 0.6-1.3333 1.3333-1.3333 0.73334 0 1.3333 0.6 1.3333 1.3333 0 0.73333-0.6 1.3333-1.3333 1.3333-0.73333 0-1.3333-0.6-1.3333-1.3333z" fill="#482924"/>
  <path d="m173.63 282.36c-0.79116-0.95329-1.377-5.7863-1.3019-10.74 0.15901-10.486 2.2638-13.673 5.6332-8.5308 1.176 1.7948 4.8161 4.6839 8.0892 6.4203 3.2731 1.7364 5.951 3.8376 5.951 4.6695 0 1.1924-6.8746 5.2602-16.117 9.5365-0.44901 0.20776-1.4637-0.40222-2.2549-1.3555zm-24.127-2.8198c-1.1338-1.3661-0.90695-2.327 0.94493-4.0029 2.8364-2.5669 4.2204-1.6849 4.2204 2.6894 0 3.4332-2.8126 4.1484-5.1654 1.3135zm45.011-13.923c-9.6886-4.6738-11.845-6.5751-11.845-10.442 0-4.13 2.0112-4.0147 6.0536 0.34709l3.2596 3.5172 5.3148-3.5172c5.9953-3.9675 8.3157-4.4573 7.1875-1.5172-0.42212 1.1-0.10333 2 0.70851 2 0.8118 0 1.476-1.215 1.476-2.7 0-1.9404 1.1387-2.9278 4.0474-3.5095 2.226-0.44521 4.6451-1.9264 5.3757-3.2915 0.73059-1.3651 3.961-3.1449 7.1786-3.9551 5.8237-1.4664 6.4153-2.1672 9.2723-10.983 0.62197-1.9193 1.624-2.2565 4.6989-1.5811 4.5769 1.0052 6.7986-1.9108 8.0208-10.528 0.59222-4.1754 1.5851-5.6373 4.9802-7.3333 4.7991-2.3974 6.2846-6.6144 7.7914-22.118 0.59329-6.1044 1.8978-10.829 3.7709-13.658 1.5751-2.3783 3.1933-4.3283 3.5959-4.3333 0.40268-5e-3 1.4527 1.9835 2.3333 4.4189 2.1737 6.0112 2.0254 18.992-0.2583 22.619-1.0227 1.6242-2.5498 7.058-3.3936 12.075-1.9771 11.756-6.5004 18.996-13.919 22.277-3.1134 1.3772-6.7298 3.6853-8.0364 5.1291-1.3066 1.4438-3.2439 2.292-4.305 1.8848-1.1396-0.43728-1.7705-0.044-1.5414 0.96092 0.21332 0.93568-2.1621 3.449-5.2788 5.585-3.1167 2.1361-5.6667 4.9313-5.6667 6.2116 0 2.5373-6.7418 8.1626-9.7827 8.1626-1.0399 0-2.6273 0.88755-3.5276 1.9723-1.249 1.5049-9.1632 6.2827-9.8945 5.9733-0.0707-0.0299-3.4981-1.6799-7.6166-3.6667z" fill="#3e2520"/>
 </g>
</svg>
