<svg width="217.26mm" height="166.28mm" version="1.1" viewBox="0 0 217.26 166.28" xmlns="http://www.w3.org/2000/svg">
 <g transform="translate(-232.38 -88.993)" style="mix-blend-mode:normal">
  <g fill="none" stroke-width="42.069">
   <rect x="-35.547" y="124.42" width="188.24" height="112.3"/>
   <rect x="-88.869" y="25.045" width="83.213" height="59.784"/>
   <rect x="50.675" y="-19.305" width="178.57" height="82.85"/>
   <ellipse cx="-43.228" cy="92.557" rx="45.641" ry="67.512"/>
   <ellipse cx="170.93" cy="69.578" rx="39.012" ry="43.034"/>
   <ellipse cx="97.329" cy="5.6306" rx="109.39" ry="47.458"/>
   <ellipse cx="-103.76" cy="97.731" rx="55.501" ry="55.904"/>
   <rect x="-88.869" y="25.045" width="150" height="110.89"/>
  </g>
  <rect transform="matrix(.9278 -.37307 .39459 .91886 0 0)" x="136.79" y="265.68" width="206.48" height="68.292" ry="6.5276" stroke="#000" stroke-width="2.8194"/>
  <rect transform="matrix(.9278 -.37307 .39459 .91886 0 0)" x="136.79" y="265.68" width="206.48" height="68.292" ry="6.5276" fill="none"/>
 </g>
 <g transform="translate(-232.38 -88.993)" style="mix-blend-mode:normal">
  <path d="m419.27 116.68c-0.87207-5e-3 -1.7608 0.15683-2.6192 0.50204l-179.18 72.048c-3.4339 1.3808-5.0494 5.1671-3.6225 8.49l21.796 50.755c1.427 3.3229 5.3403 4.8861 8.7742 3.5053l179.18-72.048c3.4339-1.3808 5.0494-5.1671 3.6224-8.49l-6.0896-14.181c-0.29566 0.45962-0.73861 0.83649-1.3007 1.0528-1.3972 0.53775-2.9689-0.11756-3.5246-1.4695l-9.2955-22.614c-0.55571-1.352 0.12149-2.8733 1.5186-3.4111 0.38516-0.14823 0.78308-0.2027 1.1699-0.18l-4.274-9.9525c-1.0702-2.4921-3.5388-3.9944-6.155-4.0073z" fill="#4d4d4d"/>
 </g>
 <g transform="translate(-232.38 -88.993)">
  <ellipse transform="rotate(-6.2097)" cx="265.85" cy="228.88" rx="18.745" ry="11.368" fill="#808080"/>
  <path d="m304.75 191.35a9.5075 15.478 83.79 0 1-14.392 10.603 9.5075 15.478 83.79 0 1-16.206-6.7377 10.943 15.566 83.79 0 0 0.0356 1.2156 10.943 15.566 83.79 0 0 16.658 9.1946 10.943 15.566 83.79 0 0 14.292-12.562 10.943 15.566 83.79 0 0-0.38707-1.7133z" fill="#a00"/>
  <ellipse transform="rotate(-6.2097)" cx="266.9" cy="223.19" rx="15.478" ry="9.5075" fill="#ff2a2a"/>
  <ellipse transform="rotate(-16.195)" cx="283.71" cy="285.42" rx="18.745" ry="11.368" fill="#808080"/>
  <path d="m364.2 183.56a9.5075 15.478 73.805 0 1-12.336 12.938 9.5075 15.478 73.805 0 1-17.129-3.8256 10.943 15.566 73.805 0 0 0.24585 1.191 10.943 15.566 73.805 0 0 18 6.1667 10.943 15.566 73.805 0 0 11.897-14.85 10.943 15.566 73.805 0 0-0.67829-1.6202z" fill="#2a2aff"/>
  <ellipse transform="rotate(-16.195)" cx="283.18" cy="277.86" rx="15.478" ry="9.5075" fill="#55f"/>
  <ellipse transform="rotate(-12.723)" cx="348.64" cy="238.49" rx="18.745" ry="11.368" fill="#808080"/>
  <path d="m404.95 147.36a9.5075 15.478 77.277 0 1-13.097 12.167 9.5075 15.478 77.277 0 1-16.866-4.856 10.943 15.566 77.277 0 0 0.17325 1.2037 10.943 15.566 77.277 0 0 17.594 7.2457 10.943 15.566 77.277 0 0 12.774-14.102 10.943 15.566 77.277 0 0-0.5789-1.6583z" fill="#054"/>
  <ellipse transform="rotate(-12.723)" cx="347.19" cy="232.93" rx="15.478" ry="9.5075" fill="#008066"/>
 </g>
 <g transform="translate(-232.38 -88.993)">
  <ellipse transform="rotate(-16.195)" cx="276.8" cy="251.12" rx="18.745" ry="11.368" fill="#808080"/>
  <rect transform="rotate(-19.402)" x="257.27" y="208.71" width="9.0612" height="59.721" ry="4.5306" fill="#6c5353"/>
  <ellipse cx="314.13" cy="106.29" rx="17.505" ry="17.299" fill="#fc0"/>
  <path d="m327.69 95.508a17.505 17.299 0 0 1 2.3554 8.6667 17.505 17.299 0 0 1-0.0186 0.7922 17.505 17.299 0 0 1 0.0186 0.7953 17.505 17.299 0 0 1-17.504 17.299 17.505 17.299 0 0 1-7.8228-1.8237 17.505 17.299 0 0 0 9.8076 2.9709 17.505 17.299 0 0 0 17.504-17.299 17.505 17.299 0 0 0-4.3403-11.401z" fill="#f39500"/>
 </g>
</svg>
